<?xml version="1.0" encoding="utf-8"?>
<!-- Generator: Adobe Illustrator 18.1.1, SVG Export Plug-In . SVG Version: 6.00 Build 0)  -->
<svg version="1.1" id="YTyK7zL_xA0_Image" xmlns="http://www.w3.org/2000/svg" xmlns:xlink="http://www.w3.org/1999/xlink" x="0px"
	 y="0px" viewBox="0 0 1440 596.4" enable-background="new 0 0 1440 596.4" xml:space="preserve">
<g>
	<path fill="#BBBBBB" d="M1780,703.6h34.4c0.3,0,0.6,0.3,0.6,0.6v32.5c0,0.3-0.3,0.6-0.6,0.6H1780c-0.3,0-0.6-0.3-0.6-0.6v-32.5
		C1779.4,703.9,1779.7,703.6,1780,703.6z"/>
	<polyline fill="#BBBBBB" points="1814.3,737 1808.6,742.4 1785.6,742.4 1779.9,736.6 	"/>
	<path fill="#BBBBBB" d="M1797.2,760c-1.6,0-3.1-0.2-4.3-0.6c-1.2,0.1-4.2,0.3-5.4,0.6c-1.5,0.3-12.2,1.9-24.6,1.8
		c-12.4-0.1-84.4-1.7-90.8-1.9c-6.4-0.2-9.3-2.4-9.6-3.7c-0.3-1.3-0.3-1.7-0.3-1.7s97.2-7.3,100.6-7.5c3.4-0.2,6.1-0.3,10.6,0.7
		c4.5,1,10.4,3,13.4,3.9c2.1,0.6,4.5,1.2,5.8,1.5c1.3-0.5,2.9-0.7,4.7-0.7c1.6,0,3.1,0.2,4.3,0.6c1.2-0.1,4.2-0.3,5.4-0.6
		c1.5-0.3,12.2-1.9,24.6-1.8c12.4,0.1,84.4,1.7,90.8,1.9c6.4,0.2,9.3,2.4,9.6,3.7c0.3,1.3,0.3,1.7,0.3,1.7s-97.2,7.3-100.6,7.5
		c-3.4,0.2-6.1,0.3-10.6-0.7c-4.5-1-10.4-3-13.4-3.9c-2.1-0.6-4.5-1.2-5.8-1.5C1800.6,759.7,1798.9,760,1797.2,760z"/>
	<rect x="1788.4" y="748.8" fill="#BBBBBB" width="17.7" height="12.6"/>
	<path fill="#BBBBBB" d="M1785.8,741.5h22.4c0.3,0,0.5,0.2,0.5,0.5v7.8c0,0.3-0.2,0.5-0.5,0.5h-22.4c-0.3,0-0.5-0.2-0.5-0.5V742
		C1785.4,741.7,1785.6,741.5,1785.8,741.5z"/>
	<path fill="#BBBBBB" d="M1804.4,759.1c0,0-0.4,8.4-0.8,11.8c-0.3,2.9-2.2,9.1-5.8,9.1c-1.2,0-5.7-1.5-6.4-10
		c-0.3-3-0.8-10.8-0.8-10.8H1804.4z"/>
</g>
<g>
	<path fill="#BBBBBB" d="M1812.9,674.5h-31.4c-0.3,0-0.6-0.2-0.6-0.6v-29.7c0-0.3,0.2-0.6,0.6-0.6h31.4c0.3,0,0.6,0.2,0.6,0.6V674
		C1813.5,674.3,1813.2,674.5,1812.9,674.5z"/>
	<polyline fill="#BBBBBB" points="1781.6,644.1 1786.8,639.1 1807.7,639.1 1813,644.4 	"/>
	<path fill="#BBBBBB" d="M1807.6,639.9h-20.5c-0.2,0-0.4-0.2-0.4-0.4v-7.1c0-0.2,0.2-0.4,0.4-0.4h20.5c0.2,0,0.4,0.2,0.4,0.4v7.1
		C1808,639.8,1807.8,639.9,1807.6,639.9z"/>
	<path fill="#BBBBBB" d="M1797.2,623.1c1.4,0,2.8,0.2,3.9,0.6c1.1-0.1,3.8-0.3,4.9-0.5c1.3-0.3,11.1-1.7,22.4-1.6
		c11.3,0.1,77.1,1.6,82.9,1.8c5.8,0.2,8.5,2.2,8.8,3.4c0.3,1.2,0.3,1.6,0.3,1.6s-88.7,6.7-91.8,6.9c-3.1,0.2-5.6,0.3-9.7-0.6
		c-4.1-0.9-9.5-2.8-12.2-3.6c-1.9-0.6-4.1-1.1-5.3-1.3c-1.2,0.4-2.7,0.7-4.3,0.7c-1.4,0-2.8-0.2-3.9-0.6c-1.1,0.1-3.8,0.3-4.9,0.5
		c-1.3,0.3-11.1,1.7-22.4,1.6c-11.3-0.1-77.1-1.6-82.9-1.8c-5.8-0.2-8.5-2.2-8.8-3.4c-0.3-1.2-0.3-1.6-0.3-1.6s88.7-6.7,91.8-6.9
		c3.1-0.2,5.6-0.3,9.7,0.6c4.1,0.9,9.5,2.8,12.2,3.6c1.9,0.6,4.1,1.1,5.3,1.3C1794.1,623.3,1795.6,623.1,1797.2,623.1z"/>
	<path fill="#BBBBBB" d="M1790.7,623.9c0,0,0.4-7.7,0.7-10.8c0.3-2.7,2-8.3,5.3-8.3c1.1,0,5.2,1.4,5.8,9.2c0.2,2.7,0.7,9.9,0.7,9.9
		H1790.7z"/>
	<rect x="1789.1" y="621.8" fill="#BBBBBB" width="16.2" height="11.6"/>
</g>
<g>
	<path fill="#BBBBBB" d="M2448.5,696.5h35.4c0.3,0,0.6,0.3,0.6,0.6v33.5c0,0.3-0.3,0.6-0.6,0.6h-35.4c-0.3,0-0.6-0.3-0.6-0.6v-33.5
		C2447.9,696.8,2448.2,696.5,2448.5,696.5z"/>
	<polyline fill="#BBBBBB" points="2483.8,730.8 2478,736.4 2454.4,736.4 2448.5,730.4 	"/>
	<path fill="#BBBBBB" d="M2466.3,754.5c-1.6,0-3.2-0.2-4.4-0.6c-1.2,0.1-4.3,0.4-5.5,0.6c-1.5,0.3-12.5,1.9-25.3,1.8
		c-12.8-0.1-86.8-1.8-93.4-2c-6.6-0.2-9.5-2.5-9.9-3.8c-0.4-1.4-0.3-1.7-0.3-1.7s100-7.6,103.5-7.8c3.5-0.2,6.3-0.3,10.9,0.7
		c4.6,1,10.7,3.1,13.8,4c2.2,0.6,4.7,1.2,5.9,1.5c1.4-0.5,3-0.7,4.8-0.7c1.6,0,3.2,0.2,4.4,0.6c1.2-0.1,4.3-0.4,5.5-0.6
		c1.5-0.3,12.5-1.9,25.3-1.8c12.8,0.1,86.8,1.8,93.4,2c6.6,0.2,9.5,2.5,9.9,3.8c0.4,1.4,0.3,1.7,0.3,1.7s-100,7.6-103.5,7.8
		c-3.5,0.2-6.3,0.3-10.9-0.7c-4.6-1-10.7-3.1-13.8-4c-2.2-0.6-4.7-1.2-5.9-1.5C2469.7,754.2,2468.1,754.5,2466.3,754.5z"/>
	<rect x="2457.2" y="742.9" fill="#BBBBBB" width="18.2" height="13"/>
	<path fill="#BBBBBB" d="M2473.6,753.5c0,0-0.4,8.6-0.8,12.1c-0.3,3-2.2,9.3-5.9,9.3c-1.2,0-5.8-1.5-6.6-10.3
		c-0.3-3.1-0.8-11.1-0.8-11.1H2473.6z"/>
	<path fill="#BBBBBB" d="M2454.6,735.4h23.1c0.3,0,0.5,0.2,0.5,0.5v8c0,0.3-0.2,0.5-0.5,0.5h-23.1c-0.3,0-0.5-0.2-0.5-0.5v-8
		C2454.1,735.6,2454.3,735.4,2454.6,735.4z"/>
</g>
<g>
	<path fill="#BBBBBB" d="M1707.3,673.5h-51.6c-0.5,0-0.9-0.4-0.9-0.9v-48.7c0-0.5,0.4-0.9,0.9-0.9h51.6c0.5,0,0.9,0.4,0.9,0.9v48.7
		C1708.2,673.1,1707.8,673.5,1707.3,673.5z"/>
	<polyline fill="#BBBBBB" points="1655.9,623.5 1664.4,615.4 1698.8,615.4 1707.4,624 	"/>
	<path fill="#BBBBBB" d="M1698.5,616.8h-33.6c-0.4,0-0.7-0.3-0.7-0.7v-11.6c0-0.4,0.3-0.7,0.7-0.7h33.6c0.4,0,0.7,0.3,0.7,0.7v11.6
		C1699.2,616.5,1698.9,616.8,1698.5,616.8z"/>
	<path fill="#BBBBBB" d="M1681.5,589.1c2.4,0,4.6,0.3,6.5,0.9c1.8-0.1,6.3-0.5,8-0.9c2.2-0.4,18.3-2.8,36.8-2.6
		c18.6,0.2,126.4,2.6,136,2.9c9.6,0.3,13.9,3.6,14.4,5.5c0.5,2,0.5,2.5,0.5,2.5s-145.6,11-150.7,11.3c-5.1,0.3-9.2,0.4-15.9-1
		c-6.7-1.4-15.6-4.5-20-5.8c-3.1-0.9-6.8-1.8-8.6-2.2c-2,0.7-4.4,1.1-7,1.1c-2.4,0-4.6-0.3-6.5-0.9c-1.8,0.1-6.3,0.5-8,0.9
		c-2.2,0.4-18.3,2.8-36.8,2.6c-18.6-0.2-126.4-2.6-136-2.9c-9.6-0.3-13.9-3.6-14.4-5.6c-0.5-2-0.5-2.5-0.5-2.5s145.6-11,150.7-11.3
		c5.1-0.3,9.2-0.4,15.9,1c6.7,1.4,15.7,4.5,20,5.8c3.1,0.9,6.8,1.8,8.6,2.2C1676.4,589.5,1678.8,589.1,1681.5,589.1z"/>
	<path fill="#BBBBBB" d="M1670.7,590.4c0,0,0.6-12.6,1.1-17.7c0.5-4.4,3.2-13.6,8.7-13.6c1.8,0,8.5,2.2,9.5,15
		c0.4,4.5,1.2,16.2,1.2,16.2H1670.7z"/>
	<rect x="1668.1" y="586.9" fill="#BBBBBB" width="26.6" height="19"/>
</g>
<g>
	<path fill="#BBBBBB" d="M1655.2,687.5h51.6c0.5,0,0.9,0.4,0.9,0.9v48.7c0,0.5-0.4,0.9-0.9,0.9h-51.6c-0.5,0-0.9-0.4-0.9-0.9v-48.7
		C1654.3,687.9,1654.7,687.5,1655.2,687.5z"/>
	<polyline fill="#BBBBBB" points="1706.6,737.4 1698.1,745.6 1663.7,745.6 1655.1,736.9 	"/>
	<path fill="#BBBBBB" d="M1681,771.9c-2.4,0-4.6-0.3-6.5-0.9c-1.8,0.1-6.3,0.5-8,0.9c-2.2,0.4-18.3,2.8-36.8,2.6
		c-18.6-0.2-126.4-2.6-136-2.9c-9.6-0.3-13.9-3.6-14.4-5.5c-0.5-2-0.5-2.5-0.5-2.5s145.6-11,150.7-11.3c5.1-0.3,9.2-0.4,15.9,1
		c6.7,1.4,15.6,4.5,20,5.8c3.1,0.9,6.8,1.8,8.6,2.2c2-0.7,4.4-1.1,7-1.1c2.4,0,4.6,0.3,6.5,0.9c1.8-0.1,6.3-0.5,8-0.9
		c2.2-0.4,18.3-2.8,36.8-2.6c18.6,0.2,126.4,2.6,136,2.9c9.6,0.3,13.9,3.6,14.4,5.6c0.5,2,0.5,2.5,0.5,2.5s-145.6,11-150.7,11.3
		c-5.1,0.3-9.2,0.4-15.9-1c-6.7-1.4-15.7-4.5-20-5.8c-3.1-0.9-6.8-1.8-8.6-2.2C1686,771.5,1683.6,771.9,1681,771.9z"/>
	<path fill="#BBBBBB" d="M1691.7,770.5c0,0-0.6,12.6-1.1,17.7c-0.5,4.4-3.2,13.6-8.7,13.6c-1.8,0-8.5-2.2-9.5-15
		c-0.4-4.5-1.2-16.2-1.2-16.2H1691.7z"/>
	<rect x="1667.8" y="755.1" fill="#BBBBBB" width="26.6" height="19"/>
	<path fill="#BBBBBB" d="M1664,744.2h33.6c0.4,0,0.7,0.3,0.7,0.7v11.6c0,0.4-0.3,0.7-0.7,0.7H1664c-0.4,0-0.7-0.3-0.7-0.7v-11.6
		C1663.3,744.5,1663.6,744.2,1664,744.2z"/>
</g>
<g>
	<path fill="#BBBBBB" d="M2527.9,683.7h51.6c0.5,0,0.9,0.4,0.9,0.9v48.7c0,0.5-0.4,0.9-0.9,0.9h-51.6c-0.5,0-0.9-0.4-0.9-0.9v-48.7
		C2527,684.1,2527.4,683.7,2527.9,683.7z"/>
	<polyline fill="#BBBBBB" points="2579.2,733.6 2570.7,741.8 2536.4,741.8 2527.8,733.2 	"/>
	<path fill="#BBBBBB" d="M2553.7,768.1c-2.4,0-4.6-0.3-6.5-0.9c-1.8,0.1-6.3,0.5-8,0.9c-2.2,0.4-18.3,2.8-36.8,2.6
		c-18.6-0.2-126.4-2.6-136-2.9c-9.6-0.3-13.9-3.6-14.4-5.5c-0.5-2-0.5-2.5-0.5-2.5s145.6-11,150.7-11.3c5.1-0.3,9.2-0.4,15.9,1
		c6.7,1.4,15.6,4.5,20,5.8c3.1,0.9,6.8,1.8,8.6,2.2c2-0.7,4.4-1.1,7-1.1c2.4,0,4.6,0.3,6.5,0.9c1.8-0.1,6.3-0.5,8-0.9
		c2.2-0.4,18.3-2.8,36.8-2.6c18.6,0.2,126.4,2.6,136,2.9c9.6,0.3,13.9,3.6,14.4,5.6c0.5,2,0.5,2.5,0.5,2.5s-145.6,11-150.7,11.3
		c-5.1,0.3-9.2,0.4-15.9-1c-6.7-1.4-15.7-4.5-20-5.8c-3.1-0.9-6.8-1.8-8.6-2.2C2558.7,767.7,2556.3,768.1,2553.7,768.1z"/>
	<path fill="#BBBBBB" d="M2564.4,766.7c0,0-0.6,12.6-1.1,17.7c-0.5,4.4-3.2,13.6-8.7,13.6c-1.8,0-8.5-2.2-9.5-15
		c-0.4-4.5-1.2-16.2-1.2-16.2H2564.4z"/>
	<rect x="2540.5" y="751.3" fill="#BBBBBB" width="26.6" height="19"/>
	<path fill="#BBBBBB" d="M2536.7,740.4h33.6c0.4,0,0.7,0.3,0.7,0.7v11.6c0,0.4-0.3,0.7-0.7,0.7h-33.6c-0.4,0-0.7-0.3-0.7-0.7v-11.6
		C2536,740.7,2536.3,740.4,2536.7,740.4z"/>
</g>
<g>
	<path fill="#BBBBBB" d="M2481,675h-31.4c-0.3,0-0.6-0.2-0.6-0.6v-29.7c0-0.3,0.2-0.6,0.6-0.6h31.4c0.3,0,0.6,0.2,0.6,0.6v29.7
		C2481.5,674.7,2481.3,675,2481,675z"/>
	<polyline fill="#BBBBBB" points="2449.7,644.5 2454.8,639.6 2475.8,639.6 2481,644.8 	"/>
	<path fill="#BBBBBB" d="M2475.6,640.4h-20.5c-0.2,0-0.4-0.2-0.4-0.4v-7.1c0-0.2,0.2-0.4,0.4-0.4h20.5c0.2,0,0.4,0.2,0.4,0.4v7.1
		C2476,640.2,2475.8,640.4,2475.6,640.4z"/>
	<path fill="#BBBBBB" d="M2465.2,623.5c1.4,0,2.8,0.2,3.9,0.6c1.1-0.1,3.8-0.3,4.9-0.5c1.3-0.3,11.1-1.7,22.4-1.6
		c11.3,0.1,77.1,1.6,82.9,1.8c5.8,0.2,8.5,2.2,8.8,3.4c0.3,1.2,0.3,1.6,0.3,1.6s-88.7,6.7-91.8,6.9c-3.1,0.2-5.6,0.3-9.7-0.6
		c-4.1-0.9-9.5-2.8-12.2-3.6c-1.9-0.6-4.1-1.1-5.3-1.3c-1.2,0.4-2.7,0.7-4.3,0.7c-1.4,0-2.8-0.2-3.9-0.6c-1.1,0.1-3.8,0.3-4.9,0.5
		c-1.3,0.3-11.1,1.7-22.4,1.6c-11.3-0.1-77.1-1.6-82.9-1.8c-5.8-0.2-8.5-2.2-8.8-3.4c-0.3-1.2-0.3-1.6-0.3-1.6s88.7-6.7,91.8-6.9
		c3.1-0.2,5.6-0.3,9.7,0.6c4.1,0.9,9.5,2.8,12.2,3.6c1.9,0.6,4.1,1.1,5.3,1.3C2462.2,623.8,2463.7,623.5,2465.2,623.5z"/>
	<path fill="#BBBBBB" d="M2458.7,624.4c0,0,0.4-7.7,0.7-10.8c0.3-2.7,2-8.3,5.3-8.3c1.1,0,5.2,1.4,5.8,9.2c0.2,2.7,0.7,9.9,0.7,9.9
		H2458.7z"/>
	<rect x="2457.1" y="622.2" fill="#BBBBBB" width="16.2" height="11.6"/>
</g>
<g>
	<path fill="#BBBBBB" d="M2578,673.5h-51.6c-0.5,0-0.9-0.4-0.9-0.9v-48.7c0-0.5,0.4-0.9,0.9-0.9h51.6c0.5,0,0.9,0.4,0.9,0.9v48.7
		C2578.9,673.1,2578.5,673.5,2578,673.5z"/>
	<polyline fill="#BBBBBB" points="2526.6,623.5 2535.1,615.4 2569.5,615.4 2578.1,624 	"/>
	<path fill="#BBBBBB" d="M2552.2,589.1c2.4,0,4.6,0.3,6.5,0.9c1.8-0.1,6.3-0.5,8-0.9c2.2-0.4,18.3-2.8,36.8-2.6
		c18.6,0.2,126.4,2.6,136,2.9c9.6,0.3,13.9,3.6,14.4,5.5c0.5,2,0.5,2.5,0.5,2.5s-145.6,11-150.7,11.3c-5.1,0.3-9.2,0.4-15.9-1
		c-6.7-1.4-15.6-4.5-20-5.8c-3.1-0.9-6.8-1.8-8.6-2.2c-2,0.7-4.4,1.1-7,1.1c-2.4,0-4.6-0.3-6.5-0.9c-1.8,0.1-6.3,0.5-8,0.9
		c-2.2,0.4-18.3,2.8-36.8,2.6c-18.6-0.2-126.4-2.6-136-2.9c-9.6-0.3-13.9-3.6-14.4-5.6c-0.5-2-0.5-2.5-0.5-2.5s145.6-11,150.7-11.3
		c5.1-0.3,9.2-0.4,15.9,1c6.7,1.4,15.6,4.5,20,5.8c3.1,0.9,6.8,1.8,8.6,2.2C2547.2,589.5,2549.6,589.1,2552.2,589.1z"/>
	<path fill="#BBBBBB" d="M2541.5,590.4c0,0,0.6-12.6,1.1-17.7c0.5-4.4,3.2-13.6,8.7-13.6c1.8,0,8.5,2.2,9.5,15
		c0.4,4.5,1.2,16.2,1.2,16.2H2541.5z"/>
	<rect x="2538.8" y="586.9" fill="#BBBBBB" width="26.6" height="19"/>
	<path fill="#BBBBBB" d="M2569.2,616.8h-33.6c-0.4,0-0.7-0.3-0.7-0.7v-11.6c0-0.4,0.3-0.7,0.7-0.7h33.6c0.4,0,0.7,0.3,0.7,0.7v11.6
		C2569.9,616.5,2569.6,616.8,2569.2,616.8z"/>
</g>
<path fill="#BBBBBB" d="M1902.4,703.1l52.5,8.1c0,0,12.1,0.7,14.1,9.1l13.8,31.3c0,0,6.1,13.1-3,28.3c0,0-60.3,135-61.3,137.3
	c-1,2.4-3.6,5.2,7.8,11.5c4.8,2.5,10.1,6.2,13.1,1c2.6-4.5,77.4-148.4,77.4-148.4s11.5-16.8,0-40.1l-15.2-43.1L1902.4,703.1z"/>
<path fill="#BBBBBB" d="M2330.8,703.1l-52.5,8.1c0,0-12.1,0.7-14.1,9.1l-13.8,31.3c0,0-6.1,13.1,3,28.3c0,0,60.3,135,61.3,137.3
	c1,2.4,3.6,5.2-7.8,11.5c-4.8,2.5-10.1,6.2-13.1,1c-2.6-4.5-77.4-148.4-77.4-148.4s-11.5-16.8,0-40.1l15.2-43.1L2330.8,703.1z"/>
<path fill="#BBBBBB" d="M1636.6,671.7c9.1-0.4,359.5,4.2,367.4,2.9c7.8-1.3,23.2-11.5,35.8-13.7c12.6-2.2,139.8-2.1,146.9,0
	s35.2,12.4,38.6,13.5c10.8,3.8,364.4-9,367.6-6.5c3.3,2.5,4.7,34.9,0.3,34.6c-8.1-0.5-359.5,5.4-366.8,6.3s-23.8,2.7-36.3,5.2
	c-12.5,2.5-127.8,0-138,0c-6.4,0-22.2-3.1-34.1-7.3c-8-2.8-268.1-3.1-380.5-3.1C1629.6,703.6,1626.6,672,1636.6,671.7z"/>
<path fill="#BBBBBB" d="M1851.9,704.1l59,0.6c0,0,12.1,0.4,17.8,13.6l16,36.3c0,0,7,15.2-3.5,32.8c0,0-69.9,156.6-71.1,159.3
	c-1.2,2.7-4.1,6.1,9.1,13.3c5.6,2.9,11.7,7.2,15.2,1.1c3-5.2,89.8-172.2,89.8-172.2s13.3-19.5,0-46.5l-17.6-50l-5.1-17.7l-109.8-1
	L1851.9,704.1z"/>
<path fill="#BBBBBB" d="M2376.9,705.5l-61,0.8c0,0-11.5,0-15.5,12l-16,36.3c0,0-7,15.2,3.5,32.8c0,0,69.9,156.6,71.1,159.3
	c1.2,2.7,4.1,6.1-9.1,13.3c-5.6,2.9-11.7,7.2-15.2,1.1c-3-5.2-89.8-172.2-89.8-172.2s-13.3-19.5,0-46.5l17.6-50l5.1-17.7l110.1-1.8
	L2376.9,705.5z"/>
<path fill="#BBBBBB" d="M2113,612.7"/>
<path fill="#BBBBBB" d="M2596,685.9c-0.2-8.4-1.4-17-3-18.3c-3.3-2.5-356.8,10.3-367.6,6.5c-3.3-1.2-31.4-11.4-38.6-13.5
	s-134.3-2.2-146.9,0c-12.6,2.2-28,12.4-35.8,13.7c-7.8,1.3-358.2-3.3-367.4-2.9c-4.7,0.2-6.5,7.1-6.4,14.5L2596,685.9z"/>
<path fill="#BBBBBB" d="M2188.6,666.2l0-37.9c0-1-0.6-2.5-1.5-2.7l-17-12.9c-1.6-1.4-3.6-2.1-5.8-2.1h-102.6c-1.9,0-3.8,0.6-5.3,1.8
	l-19.8,13.4l0,0.1c-0.6,0.3-1.1,1-1.1,1.8v38.6h-0.1v67.1h153.6v-67.1H2188.6z"/>
<rect x="2111.1" y="555.5" fill="#BBBBBB" width="6.6" height="62.8"/>
<path fill="#BBBBBB" d="M2148.2,560.8h-66.4c-2.3,0-4.2-1.9-4.2-4.2v-17.9c0-2.3,1.9-4.2,4.2-4.2h66.4c2.3,0,4.2,1.9,4.2,4.2v17.9
	C2152.4,558.9,2150.5,560.8,2148.2,560.8z"/>
<path opacity="0.5" fill="#BBBBBB" d="M2113,733.3h-77.8v-67.1h0.1v-38.6c0-0.8,0.4-1.4,1.1-1.8l0-0.1l19.8-13.4
	c1.5-1.1,3.4-1.8,5.3-1.8h51.1L2113,733.3z"/>
<path opacity="0.5" fill="#BBBBBB" d="M2114.9,560.9h-24c-7.2,0-13.1-5.9-13.1-13.1l0,0c0-7.2,5.9-13.1,13.1-13.1h24.2"/>
<path opacity="0.2" fill="#BBBBBB" d="M1971,705.3l13,36.9c13.3,27,0,46.5,0,46.5s-86.8,167-89.8,172.2c-3.5,6.1-9.6,1.8-15.2-1.1
	c-13.2-7.2-10.2-10.6-9.1-13.3s71.1-159.3,71.1-159.3c10.6-17.6,3.5-32.8,3.5-32.8l-16-36.3c-5.7-13.2-17.8-13.6-17.8-13.6
	L1971,705.3z"/>
<path opacity="0.2" fill="#BBBBBB" d="M2258.1,705.6l-13,36.9c-13.3,27,0,46.5,0,46.5s86.8,167,89.8,172.2c3.5,6.1,9.6,1.8,15.2-1.1
	c13.2-7.2,10.2-10.6,9.1-13.3c-1.2-2.7-71.1-159.3-71.1-159.3c-10.6-17.6-3.5-32.8-3.5-32.8l15.9-36.6c5.1-13.1,18.4-12,18.4-12
	L2258.1,705.6z"/>
<g>
	<polygon fill="#333333" points="1106.7,308.2 1085,358.7 1054.6,357.7 1066.1,300.6 1110.8,301.3 	"/>
	<polygon fill="#333333" points="1066.1,300.6 1055.1,354 1072.1,355.9 1089.6,299.7 	"/>
	<polygon fill="#333333" points="322.8,299.9 344.5,350.4 374.9,349.4 363.4,292.3 318.7,293 	"/>
	<polygon fill="#333333" points="321,298.1 344.6,297.8 363,354.5 346.8,355.4 	"/>
	<path fill="#333333" d="M52.6,461.9l68.1,92.2c1.1,1.4,2.8,2.2,4.5,2l37.2-3.3c3.4-0.3,5.6-3.9,4.2-7.1l-44.1-103.4
		c-0.9-2.1-3-3.3-5.3-3.1l-62.6,7.2c-3,0.3-5,3.1-4.4,6l1.5,7.3C51.8,460.6,52.1,461.3,52.6,461.9z"/>
	<path fill="#333333" d="M78,444.6l-22.7,1.7c-3,0.3-5,3.1-4.4,6l1.5,7.3c0.1,0.7,0.5,1.4,0.9,2l68.1,92.2c1.1,1.4,2.8,2.2,4.5,2
		l19.3-1.7L78,444.6z"/>
	<path fill="#333333" d="M709.5,212.1h-19.4V47.9c0-1.9,1.6-3.5,3.5-3.5H706c1.9,0,3.5,1.6,3.5,3.5V212.1z"/>
	<path fill="#333333" d="M699.9,212.4h-9.8v-158c0-5.3,4.3-9.7,9.7-9.7l0,0L699.9,212.4z"/>
	<path fill="#333333" d="M1093.2,204.8c2.5,0.5,4.8,1.4,6.7,2.5c1.9,0.2,6.8,0.8,8.8,0.8c2.4,0,20.2,0.8,40,5.2
		c19.8,4.4,134.4,31.2,144.5,33.6c10.2,2.5,14,7.3,14,9.6c0.1,2.4-0.1,3-0.1,3s-158.1-19.8-163.6-20.6c-5.5-0.8-9.9-1.5-16.7-4.7
		c-6.8-3.1-15.6-8.7-20-11.2c-3.1-1.8-6.8-3.6-8.7-4.5c-2.3,0.3-5,0.3-7.7-0.3c-2.5-0.5-4.8-1.4-6.7-2.5c-1.9-0.2-6.8-0.8-8.8-0.8
		c-2.4,0-20.2-0.8-39.9-5.2c-19.8-4.4-134.4-31.2-144.5-33.6c-10.2-2.5-14-7.3-14-9.6c-0.1-2.4,0.1-3,0.1-3s158.1,19.8,163.6,20.6
		c5.5,0.8,9.9,1.5,16.7,4.7c6.8,3.1,15.6,8.7,20,11.2c3.1,1.8,6.8,3.6,8.7,4.5C1087.7,204.1,1090.4,204.2,1093.2,204.8z"/>
	<path fill="#333333" d="M810.1,268.8l235.8-19.1c1.7-0.1,3.3-0.7,4.8-1.7c6.8-4.5,30.9-17.4,70.1-3.8c4,1.4,6.7,5.2,6.7,9.4v33.7
		c0,2.3-0.8,4.6-2.3,6.4l-8.5,10.2c-1.9,2.3-4.8,3.6-7.8,3.6l-37.2-0.4c-3.9,0-7.4-2.3-9-5.9l-5.1-7.4c-1.8-4-5.4-6.7-9.7-6.2
		l-219,24.6c-3.3,0.4-6.7-0.8-8.9-3.4l-19.8-23c-5-5.8-1.9-14.8,5.6-16.3l3.4-0.7C809.3,268.8,809.7,268.8,810.1,268.8z"/>
	<path fill="#333333" d="M1106.9,237.5h-28.8v-30c0-2.9,2.3-5.2,5.2-5.2h18.4c2.9,0,5.2,2.3,5.2,5.2V237.5z"/>
	<path fill="#333333" d="M1064.7,243.7l12.2-15.4h32.3l10.1,17C1119.3,245.3,1091.2,255.7,1064.7,243.7z"/>
	<path opacity="5.000000e-02" fill="#333333" d="M1086.8,200.3c-1.9-0.9-5.6-2.7-8.7-4.5c-4.4-2.5-13.2-8-20-11.2
		c-6.8-3.1-11.2-3.9-16.7-4.7c-5.5-0.8-163.6-20.6-163.6-20.6s-0.2,0.6-0.1,3c0.1,2.3,3.9,7.1,14,9.6
		c10.2,2.5,124.8,29.3,144.5,33.6c19.8,4.4,37.5,5.2,39.9,5.2c1.9,0,6.9,0.6,8.8,0.8C1085.1,211.6,1080.4,203.4,1086.8,200.3z"/>
	<path fill="#333333" d="M1376.7,470.5l-67.2,90.9c-1.5,2-3.8,3-6.3,2.8l-33.4-2.9c-4.8-0.4-7.7-5.4-5.9-9.8l42.5-99.6
		c1.2-2.9,4.2-4.6,7.3-4.2l59.1,6.8c4.1,0.5,6.9,4.3,6.1,8.4l-1,4.8C1377.7,468.7,1377.3,469.7,1376.7,470.5z"/>
	<path fill="#333333" d="M1345.1,452.9l-31.3-5.3c-3.1-0.4-6.1,1.4-7.3,4.2l-42.5,99.6c-1.9,4.4,1.1,9.4,5.9,9.8l13.7,1
		L1345.1,452.9z"/>
	<path fill="#333333" d="M1381.7,339.1c5.9-6.3,10.7-7.9,15-15.4c3.6-6.3,9.1-10.4,5.3-16.6c-2.9-4.6-10.5-27-16.5-28.6
		c-1.7-0.5-2.4-0.3-8.3-2.1c-6.6-2-36,12.3-41.4,16.6c-6.7,5.5-7.3,5.6-6.9,14.3s-2.2,22.3,1.2,30.3c1.2,2.9,2.6,6,5.2,7.7
		c2.6,1.7,5.8,1.8,8.9,1.8c9.6,0.2,3,2.7,12.6,2.9c2.3,0,4.1,1.9,6.2,1C1365.2,350.2,1380.2,340.7,1381.7,339.1z"/>
	<path fill="#333333" d="M833.1,331.1l444.5,41.2c1.1,0.1,2.3-0.1,3.3-0.5c3-1.2,10.6-3.8,22-4.9c0,0,70.7-7.7,95.6,14.1
		c1.6,1.4,2.5,3.6,2.3,5.8l-5,66.8c-0.2,2-1.2,3.9-2.8,5.1l-21.5,15.8c-1.4,1-3.2,1.5-4.9,1.3l-60.6-6.3c-1.9-0.2-3.7-1.2-4.9-2.7
		l-24-31.2c-1.2-1.5-2.9-2.5-4.8-2.7l-463.6-50.3c-3.1-0.3-5.6-2.6-6.2-5.7c-2-10.6-2.9-34.6,27.5-45.5
		C831.1,331.2,832.1,331.1,833.1,331.1z"/>
	<path fill="#333333" d="M1302.1,374.4l14.4-18.2c0.7-0.9,1.8-1.4,2.9-1.4h45.1c1.3,0,2.5,0.7,3.2,1.8l11.9,20.1
		c1.2,2.1-0.3,6.6-3.7,7.9c-11.9,4.8-41.3,7.6-72.2-4.5C1301.3,379.2,1300.5,376.3,1302.1,374.4z"/>
	<path fill="#333333" d="M1361.2,360.4l-29.2-1.3c-2.5,0-4.1-3.4-4.1-6v-18.4c0-10.5,8.5-19,19-19h0.7c10.5,0,19,8.5,19,19l0.2,20.3
		C1366.8,357.6,1363.7,360.4,1361.2,360.4z"/>
	<path fill="#333333" d="M336.3,196.5c-2.5,0.5-4.8,1.4-6.7,2.5c-1.9,0.2-6.8,0.8-8.8,0.8c-2.4,0-20.2,0.8-40,5.2
		c-19.8,4.4-134.4,31.2-144.5,33.6c-10.2,2.5-14,7.3-14,9.6c-0.1,2.4,0.1,3,0.1,3s158.1-19.8,163.6-20.6c5.5-0.8,9.9-1.5,16.7-4.7
		c6.8-3.1,15.6-8.7,20-11.2c3.1-1.8,6.8-3.6,8.7-4.5c2.3,0.3,5,0.3,7.7-0.3c2.5-0.5,4.8-1.4,6.7-2.5c1.9-0.2,6.8-0.8,8.8-0.8
		c2.4,0,20.2-0.8,39.9-5.2c19.8-4.4,134.4-31.2,144.5-33.6c10.2-2.5,14-7.3,14-9.6c0.1-2.4-0.1-3-0.1-3s-158.1,19.8-163.6,20.6
		c-5.5,0.8-9.9,1.5-16.7,4.7c-6.8,3.1-15.6,8.7-20,11.2c-3.1,1.8-6.8,3.6-8.7,4.5C341.7,195.9,339.1,195.9,336.3,196.5z"/>
	<path fill="#333333" d="M619.4,260.5l-235.8-19.1c-1.7-0.1-3.3-0.7-4.8-1.7c-6.8-4.5-30.9-17.4-70.1-3.8c-4,1.4-6.7,5.2-6.7,9.4
		V279c0,2.3,0.8,4.6,2.3,6.4l8.5,10.2c1.9,2.3,4.8,3.6,7.8,3.6l37.2-0.4c3.9,0,7.4-2.3,9-5.9l5.1-7.4c1.8-4,5.4-6.7,9.7-6.2
		l219,24.6c3.3,0.4,6.7-0.8,8.9-3.4l19.8-23c5-5.8,1.9-14.8-5.6-16.3l-3.4-0.7C620.2,260.5,619.8,260.5,619.4,260.5z"/>
	<path fill="#333333" d="M322.6,229.2h28.8v-30c0-2.9-2.3-5.2-5.2-5.2h-18.4c-2.9,0-5.2,2.3-5.2,5.2V229.2z"/>
	<path fill="#333333" d="M364.7,235.4L352.5,220h-32.3l-10.1,17C310.1,237,338.3,247.4,364.7,235.4z"/>
	<path opacity="5.000000e-02" fill="#333333" d="M342.7,192c1.9-0.9,5.6-2.7,8.7-4.5c4.4-2.5,13.2-8,20-11.2
		c6.8-3.1,11.2-3.9,16.7-4.7c5.5-0.8,163.6-20.6,163.6-20.6s0.2,0.6,0.1,3c-0.1,2.3-3.9,7.1-14,9.6c-10.2,2.5-124.8,29.3-144.5,33.6
		c-19.8,4.4-37.5,5.2-39.9,5.2c-1.9,0-6.9,0.6-8.8,0.8C344.4,203.3,349.1,195.1,342.7,192z"/>
	<path fill="#333333" d="M47.7,330.8c-5.9-6.3-10.7-7.9-15-15.4c-3.6-6.3-9.1-10.4-5.3-16.6c2.9-4.6,10.5-27,16.5-28.6
		c1.7-0.5,2.4-0.3,8.3-2.1c6.6-2,36,12.3,41.4,16.6c6.7,5.5,7.3,5.6,6.9,14.3s2.2,22.3-1.2,30.3c-1.2,2.9-2.6,6-5.2,7.7
		c-2.6,1.7-5.8,1.8-8.9,1.8c-9.6,0.2-3,2.7-12.6,2.9c-2.3,0-4.1,1.9-6.2,1C64.3,341.9,49.3,332.4,47.7,330.8z"/>
	<path fill="#333333" d="M595.2,323l-442,40.9c-1.9,0.2-3.7-0.1-5.5-0.7c-3.5-1.3-10.7-3.6-21.1-4.5c0,0-65.2-7.1-92.4,11.6
		c-3.6,2.5-5.6,6.7-5.3,11.1l4.6,61.5c0.3,3.6,2.1,6.9,5,9L56.3,465c2.5,1.8,5.5,2.7,8.6,2.3l56.3-5.9c3.4-0.4,6.4-2.1,8.5-4.7
		l21.2-27.6c2-2.7,5.1-4.4,8.4-4.7l457.2-49.6c5.8-0.6,10.5-5.3,11-11.1c1-11.6-1.8-30.3-26.7-39.9
		C599.1,323.1,597.1,322.8,595.2,323z"/>
	<path fill="#333333" d="M127.4,366.1L113,347.8c-0.7-0.9-1.8-1.4-2.9-1.4H65c-1.3,0-2.5,0.7-3.2,1.8l-11.9,20.1
		c-1.2,2.1,0.3,6.6,3.7,7.9c11.9,4.8,41.3,7.6,72.2-4.5C128.2,370.9,129,368,127.4,366.1z"/>
	<path fill="#333333" d="M68.3,352.1l29.2-1.3c2.5,0,4.1-3.4,4.1-6v-18.4c0-10.5-8.5-19-19-19h-0.7c-10.5,0-19,8.5-19,19l-0.2,20.3
		C62.7,349.3,65.8,352.1,68.3,352.1z"/>
	<path fill="#333333" d="M627.1,354c0.5,3.5,0.5,6.9,0.3,9.8c-0.5,5.9-5.1,10.5-11,11.1l-457.2,49.6c-3.3,0.4-6.4,2.1-8.4,4.7
		l-21.2,27.6c-2.1,2.7-5.1,4.4-8.5,4.7l-56.3,5.9c-3.1,0.3-6.1-0.5-8.6-2.3L38.2,452c-2.9-2.1-4.7-5.4-5-9l-2-27L627.1,354z"/>
	<path fill="#333333" d="M801.6,363.7c-0.5,3.5-0.5,6.9-0.3,9.8c0.5,5.9,5.1,10.5,11,11.1l457.2,49.6c3.3,0.4,6.4,2.1,8.4,4.7
		l21.2,27.6c2.1,2.7,5.1,4.4,8.5,4.7l56.3,5.9c3.1,0.3,6.1-0.5,8.6-2.3l17.9-13.2c2.9-2.1,4.7-5.4,5-9l2-27L801.6,363.7z"/>
	<path fill="#333333" d="M98,336.7c7.6,1.6,25,14.3,28.5,21.3c4.8,9.7,4.1,19.4-5.5,32.8c-4.3,6-32.8,31.1-40.4,37
		c-11.5,8.9-29,20.4-41.8,24.7c-1.1,0.4-4.3-2.1-10.4-5.8c-2.3-1.4,31.8-73.1,35.2-84.2c0.7-2.2,9.7-25.3,11.6-25.4
		C83.9,336.3,94.8,336,98,336.7z"/>
	<path fill="#333333" d="M1331.5,345c-7.6,1.6-25,14.3-28.5,21.3c-4.8,9.7-4.1,19.4,5.5,32.8c4.3,6,32.8,31.1,40.4,37
		c11.5,8.9,29,20.4,41.8,24.7c1.1,0.4,4.3-2.1,10.4-5.8c2.3-1.4-31.8-73.1-35.2-84.2c-0.7-2.2-9.7-25.3-11.6-25.4
		C1345.6,344.6,1334.7,344.3,1331.5,345z"/>
	<path fill="#333333" d="M620.1,288.8l-10.3,12c-2.2,2.6-5.5,3.8-8.9,3.4l-219-24.6c-4.4-0.6-7.9,2.1-9.7,6.2l-5.1,7.4
		c-1.6,3.5-5.1,5.8-9,5.9l-37.2,0.4c-3,0-5.9-1.3-7.8-3.6l-8.5-10.2c-1.5-1.8-2.3-4.1-2.3-6.4V262c0,0,25.9,6.5,63.6,2
		C403.4,259.5,620.1,288.8,620.1,288.8z"/>
	<path fill="#333333" d="M809.6,297.2l10.3,12c2.2,2.6,5.5,3.8,8.9,3.4l219-24.6c4.4-0.6,7.9,2.1,9.7,6.2l5.1,7.4
		c1.6,3.5,5.1,5.8,9,5.9l37.2,0.4c3,0,5.9-1.3,7.8-3.6l8.5-10.2c1.5-1.8,2.3-4.1,2.3-6.4v-17.1c0,0-25.9,6.5-63.6,2
		C1026.3,267.9,809.6,297.2,809.6,297.2z"/>
	<path fill="#333333" d="M843.1,284.5c-20-16.1-20-31.8-21.4-38.7c-10.6-36.9-60.8-42.2-60.8-42.2h-32.9h-70.7h-26.3
		c0,0-50.2,5.3-60.8,42.2c-1.4,6.9-1.4,22.6-21.4,38.7c-16.4,13.8-38,54.4-4.4,113.3c6.9,13.8,18.9,29.7,28.6,38.7
		c0,0,14.7,16.6,30.4,19.4c13,2.7,58.9,6.7,91.3,6.9l0,0c0.5,0,0.9,0,1.4,0c0.5,0,0.9,0,1.4,0l0,0c32.4-0.2,78.3-4.2,91.3-6.9
		c15.7-2.8,30.4-19.4,30.4-19.4c9.7-9,21.7-24.9,28.6-38.7C878.6,349,859.5,298.3,843.1,284.5z"/>
	<path fill="#333333" d="M864.1,333.8c0,0-9.5,48.2-108.5,49.1l-59.4,0.7l0,0l-59.9-0.5c-99.1-0.9-109.7-49.3-109.7-49.3
		c-3.2,56.2,49.8,108.7,49.8,108.7c19.4,17.5,40.5,16.6,40.5,16.6s90.7,8.8,158-0.2c12.5-2.4,21.2,0.9,40.5-16.6
		C815.4,442.3,867.9,393.2,864.1,333.8z"/>
	<path fill="#333333" d="M842.6,284c-20-16.1-20-31.8-21.4-38.7c-10.6-36.9-60.8-42.2-60.8-42.2h-32.9h-70.7h-26.3
		c0,0-50.2,5.3-60.8,42.2c-1.4,6.9-3.8,25.3-21.4,38.7C713.6,249.7,842.6,284,842.6,284z"/>
</g>
</svg>
