<?xml version="1.0" encoding="utf-8"?>
<!-- Generator: Adobe Illustrator 18.1.1, SVG Export Plug-In . SVG Version: 6.00 Build 0)  -->
<svg version="1.1" id="YTyK7zL_xA0_Image" xmlns="http://www.w3.org/2000/svg" xmlns:xlink="http://www.w3.org/1999/xlink" x="0px"
	 y="0px" viewBox="1590 -310.8 4620.1 2621.8" enable-background="new 1590 -310.8 4620.1 2621.8" xml:space="preserve">
<g>
	<g>
		<path fill="#BBBCBF" d="M5675.6,858.6c0.3,0,0.5,0,0.8,0c1.8-9.6-0.8-18.8-4-24.7c-3.8,1.4-2.4-9.2-4.8-11.9c0-0.5,0-1.1,0-1.6
			c-3.1-1.1-3-5.5-4.8-8c-0.1-2-0.5-3.8-1.6-4.8c-1.7,0.9-5.3-7.3-4.8-8.7c-4.9-5.3-6.9-14-13.5-19.9c3.8,4.9-3.6-1.3-3.2-4.8
			c-3.2-4.8-6.1-9.8-11.1-12.7c-1.6,3-8.7-4.7-4.8-2.4c-2.1-2.4-5.7-3.3-9.5-4c-5.5-1.9-15-4.1-17.5-6.4c-0.2-0.6-0.7-0.9-1.6-0.8
			c-3,1.3-9.7-0.3-11.9-2.4c-0.3,0-0.5,0-0.8,0c-1,2-8.6-0.3-7.2-0.8c-11.5-6.1-18.8,2.5-26.2,8.7c2.9-1.1-6.6,8.9-8.7,8
			c-33,31.2-59,71.1-54.9,136c1.3,1.1,1.3,7.6,0,8.7c2.3,27.5,10,56.1,13.5,81.9c0.1,2.5-3.6,8-4.8,11.9c-2.9,2.9-9.8,1.9-13.5,4
			c-0.3,0.2-0.7,0.5-1,0.7c-0.1,0.1-0.2,0.1-0.3,0.2c-0.3,0.2-0.5,0.3-0.8,0.5c-0.1,0.1-0.2,0.1-0.3,0.1c-0.3,0.2-0.5,0.3-0.8,0.4
			c0,0-0.1,0-0.1,0.1c-4,2.1-7.5,3.3-9,7c-0.3,0.9-0.5,1.9-0.7,2.8c0,0,0,0,0,0c0,0,0,0,0,0c-0.4,4,1.6,7.8,3,11
			c0.1,0.2,0.2,0.4,0.3,0.6c0,0.1,0.1,0.2,0.1,0.2c0.1,0.2,0.2,0.5,0.3,0.7c0,0.1,0,0.1,0.1,0.2c0.1,0.3,0.2,0.5,0.2,0.7
			c0,0,0,0.1,0,0.1c0.1,0.2,0.1,0.5,0.2,0.7c0,0,0,0.1,0,0.1c0,0.2,0.1,0.5,0.1,0.7c0,0,0,0,0,0.1c0,0.2,0,0.5,0,0.7
			c-1.2,1.2-1.7,3.1-1.6,5.6c0.1,1.4-0.2,2.5-0.8,3.2c-3.7-0.3-5.3,1.6-8.7,1.6c-6.6,1.1-9.6,10-13.5,11.1c-12.8,5-26.1,9.4-35,18.3
			c-8.5,6.3-16.2,17.7-23.9,22.3c-0.5,0-0.9,0.1-0.8,0.8c1.4,1.5-3.8,7.3-4.8,6.4c-0.6,0.2-0.9,0.7-0.8,1.6c0.5,1.4-2.7,5.8-4.8,7.2
			c-4.2,4-6.1,10.4-9.5,15.1c1.4,1.7-1.8,5.6-3.2,7.2c-10.9,19.6-18.4,42.6-24.7,66.8c0.9,0.1,0.9,1.3,0.8,2.4
			c-5.6,1.3-10.2,3.6-11.9,8.7c-2.7,3.4-2.4,9.8-4,14.3c-1.3,0-2.7,0-4,0c-3.3,0.1-9.4-1.2-8.7-2.4c-9.5-2.7-19-5.4-29.4-7.2
			c-3.9,0-7.2-0.8-9.5-2.4c-12.3-3.6-24.8-7-38.2-9.5c-3.3,0.1-9.4-1.2-8.7-2.4c-1.6-1.8-5.9-1-8-2.4c-2.1,1.8-6.9-0.5-8.7-1.6
			c-6.7-2.6-14.4-4.1-22.3-5.6c-3.9,0-7.2-0.8-9.5-2.4c-17.2-5.6-36.7-8.9-54.1-14.3c-4.9,1.7-11.2-2-15.9-3.2
			c-15.5-4.4-31.1-8.7-47.7-11.9c-4.3-0.2-11.5-1.7-11.9-3.2c-1.7-1.2-4.5-1.4-7.2-1.6c-2.4,0.2-7.7-0.7-6.4-1.6
			c-9.8-3.7-22-5-31.8-8.7c-2.2,1.6-7.6-0.3-9.5-1.6c-42.8-11.5-86.4-22.3-130.4-32.6c-3.9,0-7.2-0.8-9.5-2.4
			c-1.5-1.2-3.8-1.5-6.4-1.6c-12-2.1-26.6-5.7-35-8.7c0-0.5-0.1-0.9-0.8-0.8c-1.2,1.9-5.2,0-6.4-0.8c-5.4-3.9-13.4-9.4-18.3-11.1
			c-11-3.9-23.8-5.9-35-9.5c-5,1.3-15.9-2.7-18.3-4c-12.6-3.5-25.4-6.9-39-9.5c-3.3,0.1-9.4-1.2-8.7-2.4c-3.4-1.2-7.1-1.9-11.1-2.4
			c-2.8-0.1-8.8-1.3-8-2.4c-4-1.6-8.8-2.3-13.5-3.2c-7.1-0.9-13.5-2.5-19.1-4.8c-7.6-3.2-17.7-4-25.5-7.2c-2.1,2-10.1-1-9.5-1.6
			c-1.7-1.5-5.5-0.9-7.2-2.4c-4,1.6-13.9-1.9-15.1-3.2c-1.7-1.3-4.2-1.6-7.2-1.6c-7.3-1.2-18-3.2-21.5-5.6c0-0.5-0.1-0.9-0.8-0.8
			c-3.6,1.7-9.4-1.1-12.7-2.4c-10.3-2.7-19.3-6.7-31.8-7.2c-9.5-1.2-23.5,2.7-27.8-0.8c0-0.5-0.1-0.9-0.8-0.8
			c-3.4,1.6-9.3-1.3-12.7-2.4c-9-2.9-18.6-5.3-28.6-7.2c-2.4,0.2-7.7-0.7-6.4-1.6c-11.2-3.9-24.6-5.6-35.8-9.5
			c-2.5,1.9-7.5-0.4-9.5-1.6c-0.1-1.2-1.9-0.7-3.2-0.8c-6.6-0.3-11.3-2.5-16.7-4c0.7-2.1-2.4-4.4,0-5.6c-4.9-10.5-7-23.8-11.9-34.2
			c-2-5.2-5.7-12.8-4-19.1c0-0.5-0.1-0.9-0.8-0.8c-1.3-2.4-1.3-10.3,0-12.7c1.4-7.3,3.4-14.1,4.8-21.5c0.7-3,2.9-8.7,4-8.7
			c0.5,0,0.9-0.1,0.8-0.8c-2-2.8,2.3-6.2,2.4-9.5c4.7-9.3,8.8-23.6,13.5-30.2c0.5,0,0.9-0.1,0.8-0.8c-2-1.5,1.6-8.4,2.4-7.2
			c0.5,0,0.9-0.1,0.8-0.8c-1.4-1,1.5-8.5,2.4-7.2c0.9-0.1,0.9-1.3,0.8-2.4c1.3-5.1,2.8-9.9,5.6-13.5c2.4-0.8,1.7-4.6,3.2-6.4
			c-1.1-2,1.7-6.8,3.2-8.7c2.8-2.8,3-8.1,5.6-11.1c-1.4-2,2-6,3.2-8c7-9.7,14.4-19,27-23.1c7.3-2,15.2-3.3,22.3-5.6
			c0-1.1,6.4-2.6,10.3-2.4c2.7-0.2,5.4-0.4,7.2-1.6c-0.5-0.6,7.5-3.6,9.5-1.6c0.5-1.1,3.1-0.1,3.2-1.6c10.9-4.5,23.2-11.8,33.4-14.3
			c0.5,0,0.9-0.1,0.8-0.8c0.9-1.5,9.3-6.6,12.7-5.6c0.5,0,0.9-0.1,0.8-0.8c0.9-2.5,9.2-4.6,12.7-7.2c3.2-1.3,5.7-3.3,9.5-4
			c1.5-0.1,2.7-0.5,3.2-1.6c2.8-1.7,5.3-3.8,8-5.6c0,0.3,0,0.5,0,0.8c20.2,5,36.6,13.7,56.5,19.1c10.9,3.2,25,7.4,32.6,11.1
			c38.8,13.2,82.3,21.6,125.7,30.2c7.2-0.5,15.3,4.9,20.7,8.7c0.1,2.2,3.8,1,3.2,4c-4.8,7.6,3.5,15.3,9.5,19.1c0,2.4,0,4.8,0,7.2
			c0.1,1.2-0.3,2.9,0.8,3.2c0.3-0.5,2.8,3.5,4.8,4c5.7,1.4,10.4,4,18.3,3.2c1.2-0.4,4.1,0.9,4-0.8c0-0.9,5.4-3.1,5.6-6.4
			c0.5-3.4,2.5-5.5,5.6-6.4c2.2-1.2,4.4-2.5,7.2-3.2c7.5,1.3,16.1,1.4,23.1,3.2c2.3-1.9,7.6-0.2,9.5,0.8
			c17.3,5.3,34.8,10.3,52.5,15.1c4,0.3,7.2,1.3,9.5,3.2c6.6,3.2,14.8,4.8,21.5,8c1.3-1.8,5.3,0.5,6.4,1.6c9.6,4.7,20.3,8.3,31,11.9
			c2.6,0.4,8,2,7.2,3.2c5,2.9,11.7,4.2,16.7,7.2c2.7-1.3,10.9,2.9,11.1,4c6.1,2.9,12.6,5.4,19.1,8c1-1.7,7.8,1.7,6.4,2.4
			c6.2,2.3,11.3,5.7,18.3,7.2c8.6,2.5,16.7,5.6,23.9,9.5c1.8,1.1,3.5,2.3,6.4,2.4c3.5,0.5,9.6,2.5,9.5,4
			c14.3,5.6,28.3,11.4,43.7,15.9c3.4,0.6,6.7,1.3,8.7,3.2c11.4,5,24.7,8.2,36.6,12.7c2.5-1.4,7.8,1.2,10.3,2.4
			c8.8,3.9,19.2,6.2,29.4,8.7c4.1-0.1,6.8,1.2,9.5,2.4c0.1,1.2,1.9,0.7,3.2,0.8c3.5,0.2,6.6,0.8,8.7,2.4c17.2,6.1,40.9,6.5,55.7-1.6
			c-7.5-7.9-20.6-10.2-31-15.1c-1,1.7-7.8-1.7-6.4-2.4c-3.3-2.5-8-3.7-12.7-4.8c-2.1-0.1-7-1.4-5.6-2.4
			c-16.6-6.8-33.3-13.4-50.9-19.1c-3.2,0.2-4.9-1-6.4-2.4c-2.6-1.9-6.9-2.1-9.5-4c-0.8,2-7.3-1-5.6-1.6c-4.3-2.3-9.9-3.3-14.3-5.6
			c-2.3,1.5-10.7-2-10.3-3.2c-48.2-16.5-98.9-30.5-151.1-42.9c-1.6,1.8-5.6-0.7-7.2-1.6c-33.6-9.8-69.1-18.5-103.4-29.4
			c-2.3,1.7-10.5-1.6-10.3-2.4c-2-1.9-6.4-1.5-8.7-3.2c-5.6,0.1-12-6-16.7-9.5c-1.2-2-3.6-2.8-5.6-4c-4.7-2.8-9.8-5.1-12.7-9.5
			c0.7-2.2,1-4.8,2.4-6.4c1.9-2.1,1.2-6.7,2.4-9.5c-0.9-0.1-0.9-1.3-0.8-2.4c3.3-1.2,5.3-3.7,9.5-4c5.2-3.1,13.2-7.4,15.9-10.3
			c1.5-1.1,1.2-4.1,2.4-5.6c-1.9-1.7,0-6.3,0.8-8c4.9-25.6,12.3-52.9,14.3-78.7c1.1-0.8,2.4-1.3,3.2-2.4c1-1.9,3.3-2.6,5.6-3.2
			c8.5-6.6,21.5-8.7,27-18.3c0-0.3,0-0.5,0-0.8c0-1.3,0-2.7,0-4c-2.1-6.7-16.5-5.2-12.7-15.1c4.3-13.2,5.7-29.3,9.5-42.9
			c-1.2-0.1-0.7-1.9-0.8-3.2c4.7-4,14.4-7.3,17.5-10.3c1.1-0.9,2.7-5.1,0.8-6.4c-0.3-2.4-6.4-3.1-4.8-4.8c-1.1-1.3-3.5-1.2-4.8-2.4
			c-3.4,1.3-8.5-2.6-11.1-4.8c0.4-1.2-0.9-4.1,0.8-4c-1.1-1.9-3.4-2.8-4-5.6c-2-9.3,10.4-41,9.5-47.7c-1.9-1.5-0.1-5.9,0.8-7.2
			c1.8-3.2,1.4-8.7,3.2-11.9c-1.4-1.7,0-7.3,0.8-9.5c2.1-5.2-2.9-10.3-6.4-12.7c-4.3-4.2-8.7-8.3-11.9-13.5c0.3,0,0.5,0,0.8,0
			c0.5-6.2,1.8-11.4,3.2-16.7c5.6,1.3,10.8,3,15.1,5.6c1.1-1.6,7.8,2.2,6.4,3.2c5.8,3.2,11.7,6.3,17.5,9.5c1.7-1.4,5.9,1.5,7.2,3.2
			c0.5,1.1,1.7,1.5,3.2,1.6c2.2,0.5,7.5,2,6.4,3.2c19.5,10.5,41.3,18.6,62.8,27c1.3-2.3,7.6,1.3,6.4,1.6
			c46.1,16.4,95.1,30,141.6,46.1c1.1-1.6,8.7,1.3,8,1.6c52.5,18.2,114.4,29.3,170.2,39.8c1.8-0.7,9.5-0.5,11.1,1.6
			c8-0.7,13.8-3.7,14.3-11.9c-1.2-2.8-2.9-5.1-4.8-7.2c-2.7-1.3-7.8-4.3-8-5.6c-0.2-0.6-0.7-0.9-1.6-0.8c-3.1-0.8-5.6-2.3-8-4
			c0-0.5-0.1-0.9-0.8-0.8c-2.6,0.7-6.9-3.7-10.3-4.8c-2-3.6-6.4-4.7-10.3-6.4c-1,1.5-7.3-2.7-6.4-3.2c-0.7-1.7-3.5-1.3-4.8-2.4
			c-0.6,0.5-5.2-1.6-6.4-3.2c-13.9-8.7-29-16.1-43.7-23.9c-0.7,1.2-8.1-1.9-6.4-3.2c-78.2-40.3-159.7-77.3-267.2-88.3
			c-0.9,1.3-7.1,1.3-8,0c-1.1,0-1.7-0.4-2.4-0.8c-0.9,1.3-7.1,1.3-8,0c-1.9,0-2.3-1.4-4.8-0.8c-2.2,1.3-9.8,1.3-11.9,0
			c-1.9,0-2.3-1.4-4.8-0.8c-2.7,1.3-10.8,1.3-13.5,0c-0.8,0-0.9-0.6-1.6-0.8c-1.6,1.3-8.7,1.3-10.3,0c-5.6-1-17-1.7-24.7-3.2
			c-1.5-2,1.2-3.3-0.8-4.8c-1.2-1.7-5.7-4.3-4.8-5.6c-1.8-3-6.1-3.4-7.2-7.2c1.6-2.4,0.4-7.5,0.8-11.1c-8-6.9-22.3-9.1-34.2-4.8
			c-1.6,2.9-2.4,6.6-2.4,11.1c-0.8,1.5-3.7,1.1-4.8,2.4c0.9,0.9-3.7,3.1-6.4,3.2c-0.9,0.1-2.3-0.1-2.4,0.8c1.2,1-5.3,5.3-8,2.4
			c-63.1-11.4-107.9-41.1-167.8-55.7c-2.6-0.6-8.7-1.8-8-3.2c-9.4-3.6-18.9-7.1-30.2-8.7c-4-1.1-8.4-1.7-11.1-4
			c-6.3-2.2-13.7-3.2-19.9-5.6c-2.9,1.5-8.8-0.7-11.1-2.4c-1.5,0.2-1.8-0.9-3.2-0.8c-3-0.8-7.5,0.1-8.7-2.4
			c-8.9-2.7-18.2-5.2-27.8-7.2c-4.1-0.7-8.4-1.1-11.1-3.2c-4.7,0.1-3.9-0.7-7.2-2.4c-2.3,1.9-6.5-0.9-8.7-1.6
			c-8.6-4.8-17-5.1-27-8.7c-1.9,1.6-9.7-1.9-9.5-2.4c-4.2-3.2-27.8-6-27.8,1.6c0,4.3,26.8,12.1,34.2,14.3
			c64.9,19.6,134.9,27.9,194.1,47.7c24.7,8.3,45.5,22.6,67.6,30.2c2-0.7,11.1,2.6,11.1,4c9.8,4.5,20.7,7.9,31.8,11.1
			c5.3,1.9,9.8,4.5,13.5,8c3.8,3.4,8.5,5.8,13.5,8c4.7,2.4,11,3.4,13.5,8c-1,1.2-4.1,4.3-4.8,3.2c-1.4,5-1.9,10.8-3.2,15.9
			c1.2,0.1,0.7,1.9,0.8,3.2c-9.3,6.4-20.8,10.5-27.8,19.1c-5.5,30.3-12.3,63.5-15.9,93.1c-1.9,0.5-5.8-1-6.4,0.8
			c-1.2,1.8-13,1-14.3-2.4c-3-2.2-8.2,0.2-10.3,1.6c-3.5,3.9-9.6,9.5-10.3,13.5c-0.5,0-0.9,0.1-0.8,0.8c0.1,2.9,3.4,6.6,3.2,7.2
			c0.3,1.1,1,1.3,0,2.4c1.8,0.3,0.6,4.2,0,4.8c-1.2-0.1-2.9,0.3-3.2-0.8c-13.6,3.7-29.4,5.1-43,8.7c1.4,0.4-6.2,2.8-7.2,0.8
			c-0.5,0-0.9,0.1-0.8,0.8c-1.7,0.8-6.3,2.7-8,0.8c-19.7,4.4-41.1,7.1-60.4,11.9c-2.2,1.3-5.3,1.6-8.7,1.6
			c-9.2,0.9-17.6,2.5-25.5,4.8c-1.8,0.9-6.8,2.7-8.7,0.8c-11,3-23.9,4.2-35,7.2c0,0.6-8.7,3.4-11.1,1.6c-0.5,0-0.9,0.1-0.8,0.8
			c0.7,1-5.8,1.6-8.7,1.6c-1.2,0.4-4.1-0.9-4,0.8c-1.7,0.8-6.3,2.7-8,0.8c-0.6,1.6-4.4-0.2-4.8,1.6c-1.7,0.8-6.3,2.7-8,0.8
			c-5.5,2-12.9,1.9-18.3,4c1.4,0.4-6.2,2.8-7.2,0.8c-11.1-7-28.6,1.9-41.4,3.2c-2,1.2-4.8,1.5-8,1.6c-1.4,0.5-4.7-1-4.8,0.8
			c-1.8,0.9-6.8,2.7-8.7,0.8c-0.5,1.4-3.8-0.1-4,1.6c-4.9,0.9-12,3.9-16.7,2.4c-5.5,2-12.9,1.9-18.3,4c1.4,0.4-6.2,2.8-7.2,0.8
			c-1.4,1-4.6,0.1-5.6,1.6c-2.2,1.3-5.3,1.6-8.7,1.6c-1.4,0.5-4.7-1-4.8,0.8c1.2,0.5-6.6,2.8-8,0.8c-0.5,0-0.9,0.1-0.8,0.8
			c1.2,0.5-6.6,2.8-8,0.8c-2.4,1.6-7.2,0.8-9.5,2.4c1.2,0.5-6.6,2.8-8,0.8c-3.9,1.7-9.7,1.5-13.5,3.2c-1.8,1.4-4.7,1.7-8,1.6
			c-2.7-0.1-5.6-0.2-6.4,1.6c-6,1.7-11.3,8.3-16.7,8c-3.7,1.6-9.3,1.3-12.7,3.2c-1.7,0.8-6.3,2.7-8,0.8c-0.6,1.6-4.4-0.2-4.8,1.6
			c-3.6,1.4-7.8,2.3-12.7,2.4c-1.4,0.5-4.7-1-4.8,0.8c1.4,0.4-6.2,2.8-7.2,0.8c-5.1,2-12.5,1.8-17.5,4c-3.1,0.9-8.8,3.4-11.9,1.6
			c-0.5,0-0.9,0.1-0.8,0.8c2,1.1-3.9,0.8-4.8,1.6c-5-4.2-8.8-9.8-13.5-14.3c-27-10.1-54.2-20-81.1-30.2c-2.8-8.1-9.5-12.3-11.1-21.5
			c2.8-1.4,7.9-4.8,8-6.4c0.6-0.2,0.9-0.7,0.8-1.6c-0.9-1.8-2.7-6.8-0.8-8.7c-1.6-0.6,0.2-4.4-1.6-4.8c-0.4,1.4-2.8-6.2-0.8-7.2
			c0-0.5-0.1-0.9-0.8-0.8c-0.4,1.4-2.8-6.2-0.8-7.2c0-0.5-0.1-0.9-0.8-0.8c0-0.1,0-0.2,0-0.3c-0.2-0.7-1.7-1.9-3.1-3.2
			c-0.1-0.1-0.2-0.2-0.3-0.3c0,0-0.1-0.1-0.1-0.1c-0.1-0.1-0.2-0.2-0.3-0.3c0,0-0.1-0.1-0.1-0.1c-0.1-0.1-0.2-0.2-0.3-0.3
			c0,0,0,0-0.1-0.1c-0.1-0.1-0.2-0.2-0.3-0.3c0,0,0,0,0-0.1c-0.1-0.1-0.1-0.2-0.2-0.3c0,0,0,0,0-0.1c-0.1-0.1-0.1-0.2-0.1-0.3
			c0,0,0,0,0,0c0-0.1,0-0.2,0-0.3c0,0,0,0,0,0c0-0.1,0.1-0.2,0.1-0.2c0-0.5-0.1-0.9-0.8-0.8c-3.6-11.8-23.6-3.4-31.8-9.5
			c-2.6-5.9-6.3-10.6-9.5-15.9c-2-1.2-8.7-1.9-8-3.2c-1.6-1.6-5.3-1-7.2-2.4c-3,2-7.6-1.4-11.1-1.6c-6.7-13.5-15.2-25.1-22.3-38.2
			c-3-0.5-5-1.9-8-2.4c-1-4-3.3-6.8-4.8-10.3c-1.4-0.7-4-0.3-4.8-1.6c-4.3-1-8-2.6-11.1-4.8c-5.7-2.8-10-3-18.3-2.4
			c-0.2-1.2-3.1-3.7-0.8-4.8c0-0.5-0.1-0.9-0.8-0.8c-4.2-11.7-16.8-26.1-13.5-45.3c0-0.5-0.1-0.9-0.8-0.8c-1.6-3.2-8-12.6-6.4-19.1
			c0-0.5-0.1-0.9-0.8-0.8c-1.2-0.1-0.7-1.9-0.8-3.2c5.9-0.6,9.7,0.9,15.1,0.8c3.4-2.7,5.5-6.7,6.4-11.9c-0.1-0.9,0.1-2.3-0.8-2.4
			c-1.5,1.7-0.5-5.8-0.8-8c-0.6-1.6-4.4,0.2-4.8-1.6c-0.8-1.8-5-0.3-7.2-0.8c-2.3-0.1-5.2,0.4-6.4-0.8c2.3-8-1.5-19.8,1.6-25.5
			c0.5,0,0.9-0.1,0.8-0.8c-0.2-3.4,2-11.3,2.4-16.7c0-0.5-0.1-0.9-0.8-0.8c-1.8-4.7-1-13.7,1.6-16.7c1.5-3.2,2.6-7,2.4-11.9
			c0.2-6.4,0.2-13.1,3.2-16.7c3.7-6.6,2.2-18,3.2-25.5c-1.4-1.7,0-7.3,0.8-9.5c0.6-0.2,0.9-0.7,0.8-1.6c-1.3-0.9-1.3-7.1,0-8
			c0-0.3,0-0.5,0-0.8c-4.1-7,0.5-17.7-0.8-27c-1.2-2.5-1.5-5.9-1.6-9.5c-1.6-2.4-2.3-5.6-2.4-9.5c-0.5-1.6,1-5.2-0.8-5.6
			c-1.3-1.6-1.3-8.7,0-10.3c0-0.5-0.1-0.9-0.8-0.8c-1.1-0.8-1.4-9.2-1.6-13.5c0.9-0.1,1.8-1.4,2.4,0c6.3-1.4,4.2-12.8,5.6-16.7
			c0.9,0.7,2.1,1,4,0.8c4.8-1.4,19.3-1.3,21.5,0c0.1,1.8,3.4,0.3,4.8,0.8c3.7-1.3,13-1.3,16.7,0c1.2,2.4,3.5-0.7,5.6,0
			c7.3-0.9,13.7-2.7,19.9-4.8c0.9-0.1,2.3,0.1,2.4-0.8c3.6-1.7,9.2-5.6,9.5-8c2-0.9-0.3-6.2,1.6-7.2c-1.3-2.4,1.9-7.1,3.2-9.5
			c3.8-13-3.5-20.6-8-27.8c1-2.2,0.9-5.5,0.8-8.7c1.6-7.5-6.7-9.2-5.6-13.5c-1.6-2.4-0.8-7.2-2.4-9.5c-1.2-3.3-10.9-9.2-13.5-11.1
			c-2.6-1.7-5.8-2.7-8.7-4c-1.3,1.8-5.3-0.5-6.4-1.6c-11.5-3.9-27.2-6-39-7.2c-1.1,1.3-7.6,1.3-8.7,0c0-0.4-0.6-0.9-0.8,0
			c-2.3,0.4-11,0.4-14.3-0.8c-4.3-1.1-6.2-0.2-10.3-0.8c-8.5,1.3-22.5,1.3-31,0c-3.2-0.5-4.5,0.8-7.2,0.8c-1.9,1.3-9.2,1.3-11.1,0
			c-22.5,2.2-44.2,5.1-58.9,15.1c-1.9,2-4.2,3.8-6.4,5.6c-1.9,1.8-2.3,5.1-2.4,8.7c-1.8,1.9-3.9,7.8-4.8,8c-1.7-0.1-0.4,2.8-0.8,4
			c0,2.5-0.7,8.3-1.6,7.2c-2.1,5.4-1.4,13.4-3.2,19.1c1.3,3.5,1.3,12.4,0,15.9c1.6,2.1-1.4,5.5,0.8,8.7
			c1.3,11.1,17.1,12.1,22.3,16.7c0.7,2,5.5-0.2,6.4,1.6c5.8-1.3,17.2-1.3,23.1,0c0.8,1.8,5,0.3,7.2,0.8c9.1-1.4,23.5-1.2,32.6,0
			c-2.3,10.8,7.3,9.7,4.8,20.7c2.6,4.6,7.7,6.6,11.9,9.5c-0.5,4.3,1,10.6-0.8,13.5c-1.2,0.1-0.7,1.9-0.8,3.2
			c1.4,7.2,1.3,24.1,0,28.6c-1.1,0.5,0.4,2.1-0.8,4c1.3,8,1.3,21.5,0,29.4c-2.2,0.8,1.2,2.1-0.8,3.2c1.3,8,1.3,21.5,0,29.4
			c-0.6,0.2-0.9,0.7-0.8,1.6c1.8,1.4,0.3,6.1,0.8,8.7c-0.5,6.6,1.1,15.4-0.8,20.7c0,1.1-0.4,1.7-0.8,2.4c1.3,7.4,1.3,20.4,0,27.8
			c-1.2,0.1-0.7,1.9-0.8,3.2c1.3,7.2,1.3,19.9,0,27c0.1,1.4-0.2,2.5-0.8,3.2c3.1,4.2-6.8,2.2-4.8,8c-0.3,0-0.5,0-0.8,0
			c0.2,3.3,0.4,6.5,1.6,8.7c1.3-2.2,3,1.7,4.8,1.6c-0.4,4.1,0.9,14.2-0.8,14.3c-0.6,0.2-0.9,0.7-0.8,1.6c1.3,5.3,1.3,16.2,0,21.5
			c-0.7,4-5.5,0.1-6.4-0.8c-3.8,2.5-6.4,6.3-9.5,9.5c0-0.3,0-0.5,0-0.8c-0.8,0-0.9,0.6-1.6,0.8c-3.2-0.5-8.5,1-10.3-0.8
			c-0.5,0-1.1,0-1.6,0c-5.8,1.4-13,1.3-15.9,5.6c-0.8,6.4,1.7,16-1.6,19.9c-0.9-0.1-2.3,0.1-2.4-0.8c-0.8,0-0.9-0.6-1.6-0.8
			c-4.9,1-9.8,1.9-14.3,3.2c-2-0.1-3.3,0.4-4,1.6c-13,0.3-13,13.5-24.7,15.1c-6.9,9.3-10.8,21.5-17.5,31c-1.9,0-3.7,0-5.6,0
			c-10.6,1.3-20.7,3.2-30.2,5.6c-1.8,1.4-4.7,1.7-8,1.6c-3.5,0-6.6,0.3-8.7,1.6c-6.7,7.7-11.8,23.7-19.9,32.6
			c-0.5,0-0.9,0.1-0.8,0.8c1.2,0.1,0.7,1.9,0.8,3.2c-11.3,17.1-19.5,37.2-30.2,54.9c-6.4,2.1-14.3,6.9-20.7,6.4
			c-0.5,0-0.9,0.1-0.8,0.8c0.6,0.6-7,4.1-8.7,2.4c-0.5,0-0.9,0.1-0.8,0.8c-0.5,0.3-1.1,0.6-1.6,0.9c-0.2,0.1-0.3,0.2-0.5,0.3
			c-0.4,0.2-0.8,0.4-1.2,0.6c-0.2,0.1-0.3,0.2-0.5,0.2c-0.6,0.3-1.1,0.5-1.7,0.8c-0.1,0-0.1,0.1-0.2,0.1c-0.5,0.2-1.1,0.4-1.6,0.7
			c-0.2,0.1-0.4,0.2-0.6,0.2c-0.4,0.2-0.8,0.3-1.3,0.5c-0.2,0.1-0.4,0.1-0.6,0.2c-0.6,0.2-1.2,0.4-1.8,0.6c-0.2,0.1-0.3,0.1-0.5,0.2
			c-0.4,0.1-0.9,0.3-1.4,0.4c-0.3,0.1-0.5,0.2-0.8,0.2c-0.4,0.1-0.7,0.2-1.1,0.3c-0.3,0.1-0.5,0.2-0.8,0.2c-0.4,0.1-0.8,0.2-1.2,0.3
			c-0.6,0.1-1.1,0.3-1.7,0.4c-0.2,0-0.3,0.1-0.5,0.1c-4.5,1.1-9,2.1-13.3,3.3c0,0,0,0,0,0c-3.6,1.3-7.1,2.5-10.7,3.8l0,0
			c-0.7,0.3-1.4,0.7-2.1,1c-0.1,0-0.2,0.1-0.3,0.1c-0.7,0.4-1.3,0.7-2,1.1c-6.7,4.2-6.4,13.3-15.1,14.3c0-0.3,0-0.5,0-0.8
			c-0.1-1.5-2.7-0.5-3.2-1.6c-2.8,1.9-7.8-0.7-10.3-1.6c-1.7-1.5-5.5-0.9-7.2-2.4c-5.5,1.2-17-2.6-19.9-4c-3.3-1.2-6.7-2.3-11.1-2.4
			c-9.3-1.3-21.4-4.1-27-6.4c-1.7-1.3-4.2-1.6-7.2-1.6c-10.7-1.4-18.1-10.6-26.2-11.9c-3.3-1.7-8.4-1.7-11.9-3.2
			c-8.5,0.5-19.4-3.4-27.8-5.6c-0.2-1.7-3.5-0.2-4-1.6c-4.4,1.7-10.8-1.4-15.1-2.4c-0.1-1.2-1.9-0.7-3.2-0.8c-3,0.1-5.5-0.3-7.2-1.6
			c-5.4-2-11.7-3.2-18.3-4c-2.4,0.2-7.7-0.7-6.4-1.6c0.1-1.7-2.8-0.4-4-0.8c-4.3-0.2-8.2-0.8-11.1-2.4c-2.7-1.6-6.5-1.9-10.3-2.4
			c-6-0.6-15.3-2.2-17.5-4c-18-2.6-39.2-13.1-56.5-8.7c-1.8,1.7-10.2-0.9-9.5-1.6c-1.7-1.3-4.2-1.6-7.2-1.6c-12.3-2-24-4.7-35-8
			c-2.4,0.2-7.7-0.7-6.4-1.6c-4-1.9-9.2-2.4-14.3-3.2c-2.4,0.2-7.7-0.7-6.4-1.6c0-0.5-0.1-0.9-0.8-0.8c-0.9,2.1-8-0.3-6.4-0.8
			c0-0.5-0.1-0.9-0.8-0.8c-0.9,2.1-8-0.3-6.4-0.8c0-0.5-0.1-0.9-0.8-0.8c-1.8,1.7-10.2-0.9-9.5-1.6c-1.7-1.2-4.5-1.4-7.2-1.6
			c-9.5-1.4-22.3-3.7-27.8-6.4c0-0.5-0.1-0.9-0.8-0.8c-5.1,1.4-12.6-1.7-17.5-3.2c-5.2-2.5-12.6-2.8-18.3-4.8
			c-4.6,1.2-11.9-1.9-16.7-3.2c-0.1-1.2-1.9-0.7-3.2-0.8c-4.8-0.3-12.6-1.7-13.5-3.2c0-0.5-0.1-0.9-0.8-0.8c-3.3,2-8.4-1.1-11.9-1.6
			c-7.5-18.3-10.9-40.5-27.8-49.3c-3.9-0.1-4.7-3.3-5.6-6.4c0-0.8-0.6-0.9-0.8-1.6c-21.4-1-47.5-0.9-66.8-1.6c-1.3,0-2.7,0-4,0
			c-3.9,0.9-7.4-2.6-4.8-5.6c-2.1-8.8-1.7-20-4-28.6c-1.8-1.1-0.3-5.5-0.8-8c-1.1-12.7-1.8-25.8-4-37.4
			c-4.8-12.7-17.9-17.1-27.8-24.7c0.5-1.9-1-5.8,0.8-6.4c-1.4-2.6-0.5-7.5-1.6-10.3c-0.6-1.6-3.4-5-2.4-5.6c0-0.8-0.6-0.9-0.8-1.6
			c2.1-0.5,4.1-1.3,5.6-2.4c7.5-4.2,21.7-12.7,31-15.1c2.2-2,5.8-2.7,8-4.8c4.5-2.6,8.5-5.8,15.1-6.4c20.3-5.9,38.7-13.8,57.3-21.5
			c2.4-1.9,5.6-2.9,9.5-3.2c5.9-0.7,10.5-2.7,15.1-4.8c2.4-1,7.1-4,9.5-2.4c22.9-7.6,48.7-12.3,73.2-18.3c1.5-0.7,5.9-2.6,7.2-0.8
			c47.4-10.2,98.9-16.2,140-32.6c2.5-1.7,8.4-4.3,10.3-4c10.4-2.5-0.9-9.5-9.5-9.5c-9.3-0.1-37.3,9.8-46.1,11.9
			c-16.2,6.2-36.8,9.1-50.9,15.1c-2.6,0.5-3.7-0.5-5.6-0.8c-1,1.9-3.6,2.3-5.6,3.2c-1.1,0-1.7-0.4-2.4-0.8c-1.8,1.9-4.8,2.6-8.7,2.4
			c-1.9-0.3-1.7,1.5-4,0.8c-1.4,1.7-6.2,0.1-8,1.6c-2.7-0.1-5.6-0.2-6.4,1.6c-4.1,0.4-9.3,3.9-12.7,2.4c-2.2,1.3-6.9,0-8,2.4
			c-7.3,3.1-16.7,4-23.1,8c-4.4-0.7-5.4,2-9.5,1.6c-36.5,11-66.2,20-101.8,32.6c-2,0.7-5.5,4-7.2,2.4c-18.4,6.9-44.4,15.6-68.4,16.7
			c-10.8,3.4-17.3-4.4-23.9-8c1.2-7.6-5-7.7-8-11.1c-0.1-1.5-2.7-0.5-3.2-1.6c-5.2,1.7-13.8,0-18.3,2.4c-0.9,0.1-2.3-0.1-2.4,0.8
			c-2.6,2-5.6,3.5-8,5.6c2.2,13.9-13.4,9.9-12.7,22.3c-0.7,0-1.3,0-2,0l0,0c-0.3,0.1-0.7,0.1-1.2,0c-0.5,0-1.1,0-1.6,0
			c-0.9,1.3-7.1,1.3-8,0c-1.2,0.1-2.9-0.3-3.2,0.8c-7.4,1.3-20.4,1.3-27.8,0c-3.2-0.7-5.5-0.3-11.1-0.8c-2.7,1.8-8.7,0.3-12.7,0.8
			c-5.8-0.5-13.8,1.1-18.3-0.8c-0.5,0-1.1,0-1.6,0c-4.3,1.8-11.9,0.3-17.5,0.8c-1.5-1.6-2.9-0.2-4.8,0c-0.9,1.3-7.1,1.3-8,0
			c-48.2,4.1-90.6,12.4-131.2,25.5c-2,1.2-6.7,3.8-8.7,2.4c-7.4,2.9-16.1,4.6-23.1,8c-2.5,1.4-5.1,2.9-8.7,3.2
			c-8.4,2.2-15.8,5.4-23.1,8.7c-1.5,1.4-3.2,2.6-6.4,2.4c-40,15.6-88.3,37.8-130.4,58.1c-10.6,5.1-45.5,17-35,30.2
			c2.3,0.9,3.1,3.2,4,5.6c1.2,2.5,3.5,3.9,4.8,6.4c8.8-0.8,9.4,0,19.1-0.8c115.3-9.5,216.3-40,315-67.6c1.9-1,6.3-3.7,8.7-1.6
			c7.9-3.2,17.1-5.2,24.7-8.7c2.6-1.6,8.2-4.5,11.1-3.2c8.5-4.2,19-6.5,27-11.1c4.2-2.2,10.7-6.3,15.1-5.6c3.3-2.3,8.1-3,11.1-5.6
			c-0.3-1.1,7.7-5,9.5-4c0.5,0,0.9-0.1,0.8-0.8c1.8-2.2,9-5.8,14.3-7.2c2.8-0.1,4.5-1.3,6.4-2.4c-1.2-0.7,5.7-4.3,7.2-2.4
			c0.5,0,0.9-0.1,0.8-0.8c-1.7-0.7,2.8-1.9,4.8-1.6c0.6,0.6,1.8,4.4,0,4.8c1.8,0.8-0.4,5.7,1.6,6.4c3.5,7-4.1,9.6-6.4,13.5
			c-0.6,0.2-0.9,0.7-0.8,1.6c1.2,3.3-5.9,5.3-8.7,7.2c-4.4,0.8-5.3,9.4-4.8,14.3c1.8,17.2,9.6,56.1,10.3,68.4
			c1.4-2.1,0.6,4.7,0.8,6.4c-0.6-0.2-1.6,0-1.6-0.8c-2.8,2-7.4,2.2-8.7,5.6c1.8,0.1,0.3,3.4,0.8,4.8c-3.9,0.1-6.9,5.2-10.3,3.2
			c-0.5,0-0.9,0.1-0.8,0.8c-0.2,2.4-8.7,3.5-10.3,7.2c0,1.1,0,2.1,0,3.2c0.4,1.2-0.9,4.1,0.8,4c0.7,0.3,5.7,3.3,8,4.8
			c4.6,2.1,10.3,2.9,12.7,7.2c0,1.3,0,2.7,0,4c0.3,6.3,0.9,12.4,2.4,17.5c0.7-0.6,2.8,8.2,0.8,10.3c1.5,5.9,1.5,13.3,3.2,19.1
			c0,0.5,0,1.1,0,1.6c-5.5,2.5-13,7.1-15.9,9.5c-0.5,0-0.9,0.1-0.8,0.8c2,0.9,1.6,4.3,1.6,7.2c11.4,9,28.7,12.1,39,22.3
			c0,0.4-0.6,0.9-0.8,0c-0.5,0-0.9,0.1-0.8,0.8c1,5.6,3.7,13.8,2.4,19.1c3.7,21.7,6.1,44.8,9.5,66.8c2,11.8,17.6,16.9,27,23.9
			c-0.2,0.6,0,1.6-0.8,1.6c1.3,3.5,0.8,8.7,2.4,11.9c1.1,1.8,2.3,3.5,2.4,6.4c-6.4,6.1-15.4,13.8-22.3,16.7
			c-8.5,7.6-20,12.4-32.6,15.9c0.1,0.9-8.4,4.3-10.3,3.2c-36.4,11.1-66.9,20.5-105,31c-0.9,1.5-6.3,2.7-7.2,1.6
			c-22.2,5.9-51.7,12.9-75.6,21.5c-1.3,0.8-5.3,3.1-6.4,1.6c-9.5,3-19.3,5.6-27.8,9.5c-1.6,1.6-4,2.4-7.2,2.4
			c-10.9,3.2-21.1,7-31,11.1c1.4,0.2-4.7,3.7-5.6,1.6c-0.5,0-0.9,0.1-0.8,0.8c-0.9,0.7-8.7,5.5-11.9,4c-0.5,0-0.9,0.1-0.8,0.8
			c1.8,0.5-4.8,3.6-5.6,1.6c-12.6,6.2-27.3,10.3-39.8,16.7c-1.3,1.4-6.2,3.3-7.2,2.4c-21.7,9.3-45,17-65.2,27.8
			c31.8,13.8,68.3-0.8,105-11.9c27.7-8.4,55.7-17.1,74-25.5c1.1-1.1,5-3.4,6.4-1.6c43.3-16.9,85.6-34.7,127.3-53.3
			c0.2-0.9,7.7-5.5,10.3-4c8.7-4.3,18.8-7.2,27-11.9c2.1-1.6,4.7-2.7,8-3.2c26-9.8,52.6-19,79.5-27.8c3.9-1.7,10.5-4.8,15.1-3.2
			c3.9-1.7,10.5-0.7,14.3-2.4c5.1-2.1,9.7,3,14.3,4c0.5,18.6,34.4,13.3,37.4,0.8c-0.2-0.6,0-1.6-0.8-1.6c-1.2-0.1-0.7-1.9-0.8-3.2
			c4-3.1,8.9-5.4,11.1-10.3c1.3,0.4,1.3-4.3,0-4c-0.2-0.1-4-3.4-4-6.4c0.3-0.2,0.5-0.4,0.8-0.7c0,0,0-0.1,0-0.1
			c0.1-0.1,0.3-0.2,0.4-0.2l0,0c0.3-0.3,0.7-0.6,1-0.8c0.1-0.1,0.2-0.2,0.4-0.3c0.3-0.2,0.6-0.5,0.9-0.7c0.2-0.1,0.4-0.3,0.5-0.4
			c0.3-0.2,0.6-0.4,0.9-0.7c0.2-0.2,0.4-0.3,0.7-0.5c0.3-0.2,0.6-0.4,0.9-0.6c0.2-0.2,0.5-0.3,0.7-0.5c0.3-0.2,0.6-0.4,0.9-0.6
			c0.3-0.2,0.5-0.3,0.8-0.5c0.3-0.2,0.6-0.3,0.9-0.5c0.3-0.2,0.6-0.3,0.9-0.5c0.3-0.2,0.6-0.3,0.9-0.5c0.3-0.2,0.6-0.3,0.9-0.5
			c0.3-0.1,0.6-0.3,0.9-0.4c0.3-0.2,0.6-0.3,0.9-0.5c0.3-0.1,0.6-0.3,0.9-0.4c0.3-0.1,0.7-0.3,1-0.4c0.3-0.1,0.6-0.2,0.9-0.3
			c0.3-0.1,0.7-0.3,1-0.4c0.3-0.1,0.6-0.2,0.9-0.3c0.4-0.1,0.7-0.2,1.1-0.3c0.3-0.1,0.6-0.2,0.8-0.2c0.4-0.1,0.7-0.2,1.1-0.3
			c0.3-0.1,0.6-0.1,0.8-0.2c0.4-0.1,0.8-0.1,1.2-0.2c0.3,0,0.5-0.1,0.8-0.1c0.4-0.1,0.9-0.1,1.3-0.1c0.2,0,0.4,0,0.7-0.1
			c0.7,0,1.3,0,2,0c0.5,0,0.9-0.1,0.8-0.8c-0.4-0.7,8.2-3.5,10.3-1.6c0.5,0,0.9-0.1,0.8-0.8c-1.2-0.5,6.6-2.8,8-0.8
			c9.5-2.2,20-3.3,28.6-6.4c1.3-0.9,5.7-2.7,7.2-0.8c1.8-1.4,5.6-0.8,7.2-2.4c-1.3-0.9,4-1.8,6.4-1.6c1.2-0.4,4.1,0.9,4-0.8
			c-1.1-0.7,6.5-3.5,8-1.6c10.1-3.7,22.3-5.3,31.8-9.5c4.3-2.3,9.4-3.9,15.1-4.8c6.1-0.6,10.3-3,15.1-4.8c-1.8-0.5,4.8-3.6,5.6-1.6
			c0.5,0,0.9-0.1,0.8-0.8c1-0.9,9.5-5.3,12.7-4c0.5-1.1,3.1-0.1,3.2-1.6c-1.2-0.7,5.7-4.3,7.2-2.4c1.9-1.6,5.4-1.5,7.2-3.2
			c-1.3-1,3.7-2.6,6.4-2.4c2.7-0.3,5-0.8,6.4-2.4c1.1-1.1,5-3.4,6.4-1.6c1.9-1.6,5.4-1.5,7.2-3.2c0.9-2.1,8,0.3,6.4,0.8
			c0.2,1.7,3.5,0.2,4,1.6c4.9-1.1,15.8,2.7,18.3,4c0,0.5,0.1,0.9,0.8,0.8c0.9-2.1,4.1,0,5.6,0c0.1,6.3,7,10,8.7,11.9
			c0.2,1.1,1.7,0.9,2.4,1.6c3.1-0.9,8.1,3.1,11.1,4.8c11.7,5.5,23.3,11.2,34.2,17.5c5.2,2,12.9,5.6,15.1,8c1.1,1.8,4.3,1.5,5.6,3.2
			c3.7-0.7,13,3.9,15.1,4.8c0,0.5,0.1,0.9,0.8,0.8c1.5-1.9,9.1,0.9,8,1.6c1.7,1.3,4.2,1.6,7.2,1.6c6.1,0.5,11.2,2,15.9,4
			c0.1,1.5,2.7,0.5,3.2,1.6c3-1.9,8.4,0.6,10.3,2.4c4.7,2.4,9.6,4.7,13.5,8c4,0,8.2,6.7,11.1,10.3c3.4,3.5,5.7,8.1,8,12.7
			c0.4,3.1,4.1,7,2.4,9.5c0,0.5,0.1,0.9,0.8,0.8c3,4.9,6.4,16.4,8.7,24.7c2.8,5.2,4.9,11,6.4,17.5c0.1,0.9-0.1,2.3,0.8,2.4
			c1.3,3,4.7,8,3.2,11.1c1.1,1.3,0.7,4.1,2.4,4.8c1.2,2,3.8,6.7,2.4,8.7c0,0.5,0.1,0.9,0.8,0.8c1.9,3.1,6.8,14.4,6.4,19.9
			c1.3,2.4,1.8,5.6,3.2,8c0.7-0.1,4.5,7.6,2.4,10.3c1.6,0.6-0.2,4.4,1.6,4.8c0.8-0.4,2.8,8.8,0.8,11.1c-0.5,0-0.9,0.1-0.8,0.8
			c2.1,8.2,0.6,19.7-3.2,24.7c-0.7,3.8-2.2,6.8-4,9.5c-1.5,4.9-4.1,12.9-6.4,14.3c-2.6,4.3-3.8,10-6.4,14.3c1.7,2-2.5,9.2-3.2,8.7
			c-1.1,0.2-0.9,1.7-1.6,2.4c1.6,2.7-2,7-3.2,9.5c-2.9,0.1-7.1,2.9-9.5,0.8c-9.5,3-20.9,4-30.2,7.2c-2.7,1-8,3.6-11.1,1.6
			c-4.1,1-7.6,2.5-12.7,2.4c-0.6,1.9-8-0.4-6.4-0.8c-0.3-1.8-4.2,0-4.8-1.6c-1.6,1.3-8.7,1.3-10.3,0c-0.5,0-0.9,0.1-0.8,0.8
			c-5.2,0.9-12.3,4.1-17.5,2.4c-0.5,0-0.9,0.1-0.8,0.8c0.8,0.9-7.6,3.5-9.5,1.6c-0.5,1.4-3.8-0.1-4,1.6c1.1,0.9-4.7,1.6-7.2,1.6
			c-8.6,1.2-16.9,2.8-23.9,5.6c-3.8,1-7,2.5-11.9,2.4c-3.8,0.4-7.7,0.8-10.3,2.4c0.9,1-5.4,1.5-8,1.6c-2.7,0.2-5.4,0.4-7.2,1.6
			c-3.8,1.7-8.7,2.5-13.5,3.2c-11.2,1-20.4,4-30.2,6.4c-3.5,1.6-10.4,3.9-14.3,2.4c-0.5,0-0.9,0.1-0.8,0.8c-2.3,1.7-11.4,3.4-17.5,4
			c-1.2,0.4-4.1-0.9-4,0.8c-3.1,1.4-6.5,2.5-11.1,2.4c-1.2,0.4-4.1-0.9-4,0.8c-6.4,2.3-19.2,5.2-29.4,6.4c-1.2,0.4-4.1-0.9-4,0.8
			c1.2,1-4.5,1.9-7.2,1.6c-2.7,0.2-5.4,0.4-7.2,1.6c-1.7,1.3-4.2,1.6-7.2,1.6c-7,0.6-13.1,2.2-19.1,4c-1.3,0.9-5.7,2.7-7.2,0.8
			c-0.5,1.4-3.8-0.1-4,1.6c1.4,0.4-6.2,2.8-7.2,0.8c-0.5,0-0.9,0.1-0.8,0.8c-9.2,0.9-17.3,14-29.4,11.9c-0.5,1.4-3.8-0.1-4,1.6
			c-10.5,3-21.5,5.5-33.4,7.2c-7.9,1.1-15.6,2.5-22.3,4.8c-1.3,0.9-5.7,2.7-7.2,0.8c-0.5,0-0.9,0.1-0.8,0.8c-2.8,1.5-12,3.4-18.3,4
			c-1.2,0.4-4.1-0.9-4,0.8c-6.3,2.4-19.5,4.9-29.4,6.4c-1.2,0.4-4.1-0.9-4,0.8c-1.7,1.3-4.2,1.6-7.2,1.6c-4.3,0.2-8.2,0.8-11.1,2.4
			c-5.8,1.9-12.1,3.3-19.1,4c-2.8,0.4-6,0.4-8,1.6c-5.8,1.9-20.4,6.1-28.6,5.6c-0.5,0-0.9,0.1-0.8,0.8c-1.1,0.7-10.7,4.1-14.3,2.4
			c-0.5,0-0.9,0.1-0.8,0.8c1.7,0.5-5.5,2.9-6.4,0.8c-0.5,0-0.9,0.1-0.8,0.8c-6.5,1.8-15.5,5.2-22.3,4c-0.5,0-0.9,0.1-0.8,0.8
			c1.7,0.5-5.5,2.9-6.4,0.8c-0.5,1.4-3.8-0.1-4,1.6c-4.3,1.8-9.2,3-15.1,3.2c-1.8-0.3-3.1,0.1-4,0.8c-15.1,4.3-31.2,7.5-47.7,10.3
			c-3-0.1-5.5,0.3-7.2,1.6c-6.9,2.1-14.4,3.7-22.3,4.8c-3.8-0.3-5.7,1.2-8.7,1.6c-2.6-1.3-2.7-5.3-5.6-6.4c-2.3-1.7-6.4-5.7-5.6-8
			c-1.7-1.2-2.4-3.4-4-4.8c-2.3,0.1-7.7-7.6-8-9.5c-2.8-3.6-5.6-7.1-8.7-10.3c-1.5,0.9-4.5-3.4-5.6-5.6c-2.5-4.1-5.9-7.4-9.5-10.3
			c-4-1-4.6-5.4-8-7.2c-6-5.4-12.2-10.6-17.5-16.7c-0.5-1.7-1.5-2.7-3.2-3.2c2.3,3.3-7.3-3.6-5.6-4.8c0-0.5-0.1-0.9-0.8-0.8
			c-1.5,1.4-7.3-3.8-6.4-4.8c0-0.5-0.1-0.9-0.8-0.8c-1.3,2-9.2-6.1-5.6-4c-1-1.6-2.6-2.7-4.8-3.2c-4.8-2.3-11.9-6.6-13.5-9.5
			c0-0.5-0.1-0.9-0.8-0.8c-3.2,0.5-11.1-5.3-11.9-7.2c0-0.5-0.1-0.9-0.8-0.8c-1.2,1.6-4.8-1-5.6-2.4c-6.7-4.9-14.3-9-23.1-11.9
			c-3.2-0.3-8.3-2.8-8-4c-3.4-1.9-7.3-3.3-11.1-4.8c-2.9,1.6-7.8-1.8-10.3-3.2c-25.1-10.4-58.1-13-89.1-17.5
			c-11.1-1.7-21.8-3.6-27.8-10.3c-0.1-4.1,2-6,3.2-8.7c1.8-1.8,0.7-7.6-0.8-8.7c-2.6-3.8-6.3-6.4-10.3-8.7c0-0.5-0.1-0.9-0.8-0.8
			c-0.6,1.3-8.4-1-7.2-1.6c-2.1-1.6-6.6-0.8-8-3.2c0.1-4.1-1.7-6.3-1.6-10.3c-0.3,0-0.5,0-0.8,0c-8.1-4.1-17.8-6.6-30.2-6.4
			c-1.7,0.7-6.5,2.4-8,0.8c-1.6,1.3-5.2,0.6-6.4,2.4c-3,1.5-6.2,2.8-10.3,3.2c-0.5-2.4-1.7-4.1-2.4-6.4
			c-4.8-14.5-11.3-27.4-17.5-40.6c-1.3-1.4-3.9-5.6-2.4-7.2c-4.3-8.5-7.1-18.4-11.9-26.2c-0.9,0.3-5.3-6.9-4-8.7
			c-8.2-12.5-15.6-25.8-25.5-36.6c-1.6,1-4.3-3.6-5.6-5.6c-0.4-0.9-0.8-1.8-1.6-2.4c-2.3-0.4-6.9-5.3-8.7-8.7
			c-2.8-3.5-6-6.7-9.5-9.5c-2.8,1.2-5.7-4.3-8-6.4c-3.6-3.1-6.8-6.5-11.1-8.7c-3-1.2-5.2-3.3-7.2-5.6c-2.6-3-6.2-4.9-9.5-7.2
			c-1.9,0.2-9.3-5-9.5-6.4c0-0.5-0.1-0.9-0.8-0.8c-2.1,1-7.1-1.9-8.7-4c-21.8-14.8-44.1-29.1-72.4-37.4c-2.1,1.8-7.7,0.3-11.1,0.8
			c-3.4-0.8-8.3,1.2-9.5,0c-0.5,0-0.9,0.1-0.8,0.8c1.2,0.7-5.8,4.2-6.4,3.2c-9.1,3.4-16.4,8.5-25.5,11.9c-10,43.7,0.2,81,19.9,106.6
			c8.5,11.1,21,18.1,31.8,27c11.8,9.8,23.6,19.8,35.8,29.4c13,10.2,26.6,19.4,39,28.6c0-0.1,0-0.8,0-0.8c0.1,0,0.2,0,0.4,0
			c0,0,0.1,0,0.2,0c0.1,0,0.2,0,0.3,0.1c0.1,0,0.1,0,0.2,0.1c0.1,0,0.2,0.1,0.3,0.1c0.1,0,0.2,0.1,0.3,0.1c0.1,0.1,0.2,0.1,0.4,0.2
			c0.1,0,0.2,0.1,0.3,0.1c0.1,0.1,0.3,0.1,0.4,0.2c0.1,0.1,0.2,0.1,0.3,0.2c0.1,0.1,0.3,0.2,0.4,0.2c0.1,0.1,0.2,0.1,0.4,0.2
			c0.1,0.1,0.3,0.2,0.5,0.3c0.1,0.1,0.2,0.2,0.4,0.2c0.2,0.1,0.3,0.2,0.5,0.3c0.1,0.1,0.3,0.2,0.4,0.3c0.2,0.1,0.3,0.2,0.5,0.4
			c0.1,0.1,0.3,0.2,0.4,0.3c0.2,0.1,0.4,0.3,0.6,0.4c0.1,0.1,0.3,0.2,0.4,0.3c0.2,0.1,0.4,0.3,0.6,0.4c0.1,0.1,0.3,0.2,0.4,0.3
			c0.2,0.2,0.4,0.3,0.6,0.5c0.1,0.1,0.2,0.2,0.4,0.3c0.2,0.2,0.5,0.4,0.7,0.5c0.1,0.1,0.2,0.2,0.3,0.3c0.3,0.2,0.6,0.5,0.9,0.7
			c0.1,0,0.1,0.1,0.2,0.1c3.5,2.8,7.2,5.8,10.4,8.4c0,0,0,0,0,0c0.3,0.2,0.6,0.5,0.9,0.7c0.1,0,0.1,0.1,0.2,0.1
			c0.2,0.2,0.5,0.4,0.7,0.6c0.1,0.1,0.1,0.1,0.2,0.2c0.2,0.2,0.4,0.4,0.7,0.5c0.1,0.1,0.1,0.1,0.2,0.2c0.2,0.2,0.4,0.3,0.6,0.5
			c0.1,0.1,0.1,0.1,0.2,0.2c0.2,0.1,0.4,0.3,0.5,0.4c0.1,0.1,0.1,0.1,0.2,0.2c0.2,0.1,0.4,0.3,0.5,0.4c0,0,0.1,0.1,0.1,0.1
			c0.2,0.1,0.3,0.3,0.5,0.4c0.4,0.2,0.7,0.5,1.1,0.7c2.7,2.9,6.4,4.7,9.5,7.2c-2-3.2,4.6,1.8,5.6,3.2c13.4,10.2,29.1,18.1,42.9,27.8
			c1.8-1.2,5.4,2.6,7.2,4c1.1,1.5,1.8,3.5,4.8,3.2c1.9,0.5,5.9,3,4.8,4c4.7,3.3,9.5,6.4,14.3,9.5c1.5-1.7,4.3,2.1,5.6,3.2
			c3.7,1.9,4.7,6.5,6.4,10.3c4.5,4-3.4,7.9-5.6,10.3c-9.8,10.8,3.5,25.3,3.2,39c-1.4,1-4.6,0.1-5.6,1.6
			c-2.5,5.2-11.9,10.3-16.7,15.9c-18.1,14.4-3.9,38.4,0.8,55.7c7.1,26.4,14.8,59.8,21.5,81.9c1.7-0.1,0.4,2.8,0.8,4
			c-2-0.9-3.8,2.4-4.8,0c-1.9,1.3-4.6,1.8-6.4,3.2c-2.1,1.9-5.3,2.6-8.7,3.2c-6.7,1.7-13.1,3.9-18.3,7.2c-2.8,2.5-6.1,4.5-9.5,6.4
			c-4.6,7.5-13.9,3.1-20.7,0c-1.7,1.9-8.6-1.9-8-2.4c-13.5-6.2-32.1-8.1-46.9-3.2c-1.6,1-6.3,3.2-8,1.6c-0.5,0-0.9,0.1-0.8,0.8
			c-2.1,1.9-5.3,2.6-8.7,3.2c-10.6,3-19.4,7.6-27.8,12.7c8.3,44.5,26.3,79.2,50.1,108.2c2,0.9,8,7.8,4.8,6.4
			c0.2,0.9,0.9,1.2,1.6,1.6c3.7,3.5,10.1,8.4,11.1,11.9c0,0.5,0.1,0.9,0.8,0.8c0.1-0.1,0.2-0.1,0.3-0.1c0,0,0,0,0,0
			c0.1,0,0.2,0,0.3,0c0,0,0,0,0,0c0.1,0,0.2,0.1,0.4,0.1c0,0,0,0,0,0c0.1,0.1,0.2,0.1,0.4,0.2c0,0,0,0,0.1,0
			c0.1,0.1,0.3,0.2,0.4,0.3c0,0,0.1,0,0.1,0.1c0.1,0.1,0.3,0.2,0.4,0.4c0,0,0.1,0.1,0.1,0.1c0.1,0.1,0.3,0.3,0.4,0.4
			c0,0,0.1,0.1,0.1,0.1c0.1,0.1,0.3,0.3,0.4,0.4c0,0,0.1,0.1,0.1,0.1c0.1,0.1,0.2,0.3,0.4,0.4c0,0.1,0.1,0.1,0.1,0.2
			c0.1,0.1,0.2,0.2,0.3,0.4c0.1,0.1,0.2,0.2,0.2,0.3c0,0,0,0,0,0.1c0.8,1,1.5,1.8,1.7,2c0,0,0.1,0,0.1,0
			c7.8,7.6,16.1,14.7,23.9,22.3c2.5,1.2,5.2,2.2,6.4,4.8c1.5,2.5,3.4,4.5,6.4,5.6c2,1.2,10.5,7,11.1,9.5c0.2,0.6,0.7,0.9,1.6,0.8
			c22.9,17.3,47.1,33.5,71.6,49.3c3.5,2.9,6.8,6,11.1,8c3.8,1.5,7.8,2.8,10.3,5.6c8.1,3.1,14,8.3,22.3,11.1c2.2,1.7,4.8,3.2,4.8,7.2
			c2.7,5.3,3.9,12,4.8,19.1c10.1,17.6,27,22.4,46.9,27.8c1.9,11.1,7.1,18.8,15.1,23.9c-0.7,6.2-2.7,9.2-1.6,15.9
			c0.2,1.1,1.7,0.9,2.4,1.6c2.7,3.6,5.1,7.6,8.7,10.3c4.5,4.2,11.9,5.6,20.7,5.6c5.5,16.5,10.2,33.4,19.1,44.5
			c3.8,3.6,8.3,10.8,8.7,15.1c0,0.5,0.1,0.9,0.8,0.8c5.7,5.7,14,20,18.3,27c0.2,0.6,0,1.6,0.8,1.6c5.2,5.4,15,17.4,18.3,24.7
			c4.7,6.4,9.6,12.7,15.1,18.3c1.3-1.5,5.8,4.8,4.8,5.6c5.7,8.4,12.6,15.5,19.1,23.1c1.5-1.5,10.8,10.9,5.6,6.4
			c1.8,2.7,4.5,4.5,6.4,7.2c4.3,2.1,10.7,8.9,14.3,14.3c1.3,1.9,2.8,3.5,4.8,4.8c1.6,0.8,5.9,3,4,4.8c0,0.5,0.1,0.9,0.8,0.8
			c13.3,8.1,25.3,24.6,39.8,34.2c-0.2,0.6,0,1.6-0.8,1.6c3.2,2.4,6.6,5.1,10.3,8.7c3.1-1.5,6,4,8,6.4c0,0.5,0.1,0.9,0.8,0.8
			c2.5-0.3,7.3,3.9,8.7,7.2c1.1,0.2,1.3,1.3,2.4,1.6c0.1-2.3,9.3,5.8,11.9,8.7c2.7,3.6,7.3,5.5,10.3,8.7c4.3-0.3,10.1,4.8,12.7,8.7
			c4.8,2.4,7.8,6.5,12.7,8.7c1.8-1.3,11.8,7.1,8.7,5.6c2.2,2.8,6.1,4,8.7,6.4c4.4-0.1,13.3,6.3,14.3,9.5c5.7,1.8,8.8,6.1,14.3,8
			c2.7-1.3,6.5,3,8.7,4.8c0,0.5,0.1,0.9,0.8,0.8c2-1.5,6,1.9,7.2,4c2.8,2.3,6.3,3.8,9.5,5.6c11.2,3.9,25.1,12,36.6,18.3
			c0,0.5,0.1,0.9,0.8,0.8c1-1.5,7.5,2.5,6.4,3.2c0.1,2,3,1.3,4,2.4c5.1-0.6,12.1,3.8,16.7,6.4c3.5,2.1,8.2,2.9,12.7,4
			c3.6-1.5,11.1,0.1,15.1,0.8c0.3-0.1,4.2,1.7,5.6,0c8.9-1,19.4-4.4,27-4c0.5,0,0.9-0.1,0.8-0.8c-0.6-0.6,7-4.1,8.7-2.4
			c0.5,0,0.9-0.1,0.8-0.8c6-2.8,12.3-5.2,18.3-8c4.3-3.1,9.5-5.4,13.5-8.7c-6-19.4-16.1-34.8-26.2-50.1c-4.2-4.1-9.6-11.1-10.3-15.9
			c-2.8-2.5-3.8-6.9-7.2-8.7c0.2,1.6,2.2,1.6,2.4,3.2c-2-1.5-6.2-4.9-4.8-7.2c0-0.5-0.1-0.9-0.8-0.8c-2.6-0.6-8.7-8.8-8.7-11.9
			c0-0.5-0.1-0.9-0.8-0.8c-5.9-3.9-11.6-12.2-14.3-16.7c-4.4-6.2-9.5-11.7-15.1-16.7c-4.6-4.9-13-10.3-14.3-15.9
			c-2.5-2.6-5.1-5-8-7.2c-14.2-12.6-28.3-25.3-42.2-38.2c0-0.5-0.1-0.9-0.8-0.8c-4.3-1.5-10.9-7.7-15.1-11.9c0-0.5-0.1-0.9-0.8-0.8
			c-24.1-17.2-49.2-33.5-75.6-48.5c0-0.5-0.1-0.9-0.8-0.8c-3.3-0.4-10.3-4-13.5-7.2c-1.3-1.4-3-2.3-4.8-3.2
			c-8.2-2.2-22.4-9.4-27-15.1c-4.4-3-9.5-6.9-14.3-7.2c-2.1,0.5-11-3.3-9.5-6.4c-9.6-4.2-18-10.8-27.8-16.7
			c-3.9-1.7-7.2-3.9-10.3-6.4c-15.6-8-29.1-18.1-42.9-27.8c-2.5-1.8-4.6-3.9-6.4-6.4c-10-12.6-24.5-25.8-28.6-43.7
			c-1.9-8.2-2.7-12.3-6.4-17.5c1.2-4.4,4.3-6.9,5.6-11.1c-2.1-1.1-0.2-4.9,0-6.4c-2-2.4-4.3-11.5-0.8-14.3
			c4.5-7.9,13.2-11.7,19.1-18.3c1.3-6.1,5.3-11,4.8-16.7c-1.3-1.4-1.3-8.2,0-9.5c-1.4-1.8-0.6-5.2-1.6-5.6
			c-1.4-2.6-4.4-7.7-2.4-11.1c-4.4-13.7-5.9-27.6-9.5-40.6c-1.2-0.1-0.7-1.9-0.8-3.2c4.6-1.2,14.5-1.4,19.1,0c0.5,0,0.9-0.1,0.8-0.8
			c11-0.9,24.9-3.1,35-2.4c1.2-2,6.9,0.5,8-1.6c3.5-0.8,16.9-2.7,23.1-0.8c0.3,0,0.5,0,0.8,0c2.6-0.3,6.1-3.9,8.7-1.6
			c2.9,1.9,7.3,2.2,10.3,4c11,1,22.5-0.8,24.7-10.3c0.9-4-1.4-5.7-0.8-10.3c0.6,0.2,1.6,0,1.6,0.8c2.6,1.2,7.1,2.4,8.7,3.2
			c2.5-2,6.7,1.2,8.7,2.4c13.4,8.2,24,2.3,35-3.2c-1.1-0.4,4.1-5.4,5.6-3.2c5.7-4.1,12.1-7.5,16.7-12.7c1.8-1.7,5-6.1,7.2-4.8
			c0.5,0,0.9-0.1,0.8-0.8c-1.2-0.8,1.9-3.9,4-4c2.4-1.1,3.6-3.3,5.6-4.8c3.3-7.3,11-17.1,11.9-29.4c-0.5-13.9-7.8-26.2-10.3-39
			c0.8,0,0.9,0.6,1.6,0.8c0.2,1.3,5.9-0.8,8,0.8c1.7-1.5,5.4-0.9,7.2-2.4c-1.3-0.9,4-1.8,6.4-1.6c3.5-1.3,9.9-3.9,13.5-2.4
			c0.5,0,0.9-0.1,0.8-0.8c1.8-1.2,12.3-4.7,16.7-3.2c0.5,0,0.9-0.1,0.8-0.8c0.6-0.8,9.5-4.2,12.7-2.4c0.5,0,0.9-0.1,0.8-0.8
			c-1.5-0.8,3.6-1.6,5.6-1.6c4.2-0.9,10.1-4.2,14.3-2.4c0.5,0,0.9-0.1,0.8-0.8c0.6-0.8,9.5-4.2,12.7-2.4c4.2-1.9,10.5-1.7,14.3-4
			c1.9-1,12.3-4.7,16.7-3.2c0.5,0,0.9-0.1,0.8-0.8c3.1-1.2,14.3-5.3,19.9-4c0.5,0,0.9-0.1,0.8-0.8c-0.5-0.6,7.5-3.6,9.5-1.6
			c0.5,0,0.9-0.1,0.8-0.8c-0.2-1,6.1-2.4,9.5-2.4c1.7-1.3,4.2-1.6,7.2-1.6c1.2-0.4,4.1,0.9,4-0.8c-0.5-0.6,7.5-3.6,9.5-1.6
			c0.5,0,0.9-0.1,0.8-0.8c-0.6-0.7,7.8-3.3,9.5-1.6c0.5,0,0.9-0.1,0.8-0.8c-1.3-0.9,4-1.8,6.4-1.6c1.2-0.4,4.1,0.9,4-0.8
			c5.2-2.5,17.6-4.7,26.2-6.4c1.5-0.7,5.9-2.6,7.2-0.8c1.8-1.4,5.6-0.8,7.2-2.4c3.5-1.3,9.9-3.9,13.5-2.4c0.5,0,0.9-0.1,0.8-0.8
			c0.4-0.9,9.8-4,12.7-2.4c0.5,0,0.9-0.1,0.8-0.8c1.3-1.1,8.7-2.9,13.5-3.2c1.2-0.1,2.9,0.3,3.2-0.8c1.7-1.3,4.2-1.6,7.2-1.6
			c2.6-1.4,5.8-2.1,9.5-2.4c3-1.6,6.9-2.2,11.1-2.4c4.4-1.2,3.5,2.9,6.4,3.2c1.9,1.8,5.3,2.1,8,3.2c0.1,1.2,1.9,0.7,3.2,0.8
			c2.2-1.3,9.8-1.3,11.9,0c1.5-2.4,5.7,1,6.4-0.8c3.8-1.3,19.8-1.4,26.2,0c1.8-0.6,2.6-0.7,6.4-0.8c5.6-1.3,16.7-1.3,22.3,0
			c0.3,0,0.5,0,0.8,0c2.6-2.1,8-1.5,12.7-1.6c4.5,0.5,11.1-1,14.3,0.8c3.3-0.8,3.5-0.5,8-0.8c1.4-1.3,8.2-1.3,9.5,0
			c0.6-1.6,4.4,0.2,4.8-1.6c3.1-0.9,8.8-3.4,11.9-1.6c22.2-5.4,44.5-10.7,66.8-15.9c1.6-1.9,5.3-1.6,8.7-1.6c1.1-1.3,7.6-1.3,8.7,0
			c6.2,1.5,12.6,2.8,18.3,4.8c7,2.2,4.1,15.2,0.8,16.7c-1.1,1.6-2.7,6.8-0.8,8.7c0.7,2,3.3,6.2,1.6,8c1.5,1.7,2.5,3.9,4,5.6
			c3.9,3.2,12.1,9.1,20.7,10.3c2.5,8.4,9.9,16.1,8,26.2c0.2,0.6,0,1.6,0.8,1.6c1.1-1.8,1.5,8,0,8.7c1.5,1.5-0.5,1.4,0,4
			c1.5,15.6-7.5,31.7-11.9,41.4c-0.5,0-0.9,0.1-0.8,0.8c2,1.5-1.6,8.4-2.4,7.2c-1.3,1.1-1.2,3.5-2.4,4.8c-0.5,8.6-6.3,18.6-9.5,27
			c-1.8,5.4-3.4,10.9-6.4,15.1c-1.8,1.9-2.9,4.6-3.2,8c-0.4,2.6-2,8-3.2,7.2c-0.5,0-0.9,0.1-0.8,0.8c2,1.6-2.2,7.8-2.4,7.2
			c-1.3,1.1-1.2,3.5-2.4,4.8c1.1,4.3-2.8,10.5-4.8,14.3c-1.1,4.2-2.2,8.4-4.8,11.1c0,0.3,0,0.5,0,0.8c-1.3,5.1-3,9.8-5.6,13.5
			c-2.8,4.1-3.6,10.1-6.4,14.3c2,0.8-1.1,7.3-1.6,5.6c-0.5,0-0.9,0.1-0.8,0.8c0.9,3.6-2.5,9.7-4.8,12.7c-0.5,1.7-2,2.3-1.6,4.8
			c-0.2,2.8-2,8.1-3.2,7.2c-1.1,1-1.5,2.7-1.6,4.8c-2,7-4.3,13.7-8,19.1c-0.2,1.1-1.1,1.5-0.8,3.2c-3.1,9.1-7.5,21.2-11.1,27
			c-0.5,0-0.9,0.1-0.8,0.8c1.7,1.7-0.9,6-2.4,7.2c-1.1,1.8-2.3,3.5-2.4,6.4c-0.1,2.1-1.4,7-2.4,5.6c-2.4,3.7-3.4,8.8-5.6,12.7
			c1.8,1.4-1.8,8.2-2.4,7.2c-1.3,1.1-1.2,3.5-2.4,4.8c1.7,2-1.3,6.1-2.4,8c-0.7,2.7-1.2,5.7-3.2,7.2c-0.5,0-0.9,0.1-0.8,0.8
			c1.3,2.7-2.9,10.9-4,11.1c-0.5,0-0.9,0.1-0.8,0.8c0.8,4-3.8,13.7-5.6,15.1c-1.3,1.1-1.2,3.5-2.4,4.8c1.7,1.7-0.6,6.3-2.4,7.2
			c-0.5,0-0.9,0.1-0.8,0.8c-0.3,7.4-5.3,17-8.7,23.9c-1.9,1.3-1.7,4.7-3.2,6.4c1.1,3.3-2.1,9-4,11.9c-1.2,5.4-3.3,9.9-5.6,14.3
			c-1.6,5.6-3.2,11.1-6.4,15.1c-1.1,1-1.5,2.7-1.6,4.8c-1.6,5.1-4.2,13.3-6.4,15.1c-1.6,1.9-2,4.9-3.2,7.2c-0.1,8-7.3,17.7-6.4,27
			c0,0.5,0.1,0.9,0.8,0.8c1.6,4.3,10.5,12.3,15.1,13.5c1.3,1.1,2.5,2.3,4,3.2c6.5-6.2,20.8-4.6,31-7.2c-0.4-1.6,3.6-2.6,4-0.8
			c-5.1,11.9-10.2,23.7-15.9,35c-0.5,0-0.9,0.1-0.8,0.8c-0.3,4.5-4,12.4-5.6,18.3c1.4,1.8,0.6,5.2,1.6,5.6c2,8,9.2,10.9,15.1,15.1
			c4.3,1.9,13.1-2.2,19.9-4.8c17.7-6.6,36.8-14.5,54.1-19.9c6.3-13.8,8.8-31.4,18.3-42.2c0.9-0.1,0.9-1.3,0.8-2.4
			c1.9-4.7,2.6-10.6,5.6-14.3c46.3-99,93.7-196.9,140-295.9c0.4-2.8,1.4-4.9,3.2-6.4c12.5-26.2,25.5-51.9,37.4-78.7
			c0.2-3,1.2-5.1,3.2-6.4c10.1-24.1,24.8-43.6,30.2-72.4c0.9-8.6,0.1-17.7,0.8-24.7c-3.1-12.3-8.4-22.4-13.5-32.6
			c-1.8-1.4-2.8-3.5-3.2-6.4c-6.3-15.7-13.7-30.4-20.7-45.3c-3.7-4.5-6-10.4-8-16.7c-7.6-17.6-15.8-34.5-23.9-51.7
			c-2.2-2,1.4-4.9,2.4-6.4c0.9-0.2,1.2-0.9,1.6-1.6c-1.6-1.1,2.2-7.8,3.2-6.4c0.5,0,0.9-0.1,0.8-0.8c-0.2-3.7,3.8-14.2,10.3-11.1
			c0.5-1.4,3.8,0.1,4-1.6c3.6-1.9,8.4-2.7,13.5-3.2c1.2-0.4,4.1,0.9,4-0.8c-1.7-0.5,5.5-2.9,6.4-0.8c0.5,0,0.9-0.1,0.8-0.8
			c-1.5-0.8,3.6-1.6,5.6-1.6c1.3-0.9,5.7-2.7,7.2-0.8c3.5-1,6.6-2.4,11.1-2.4c8,11.7,21.6,17.6,36.6,22.3c0.2,0.6,0,1.6,0.8,1.6
			c1.2,4.4,4.5,10.9,3.2,15.1c1.2,1.2,1.1,3.7,2.4,4.8c2,2,2.3,5.7,4,8c1.5,4.6,3.1,9.1,6.4,11.9c2.4,1.5,3.6,4.4,5.6,6.4
			c2.3,2,1.8,6.7,3.2,9.5c1.6,2.1,2.4,5,3.2,8c-0.1,2.7,1.6,3.7,2.4,5.6c2.9,1.9,6.9,9.5,9.5,14.3c2.5,2.3,3.8,5.7,5.6,8.7
			c0.6,2.8,2.1,4.8,4,6.4c3.2,2.8,4.9,7.3,7.2,11.1c2.3,2.5,4.6,4.9,5.6,8.7c0.1,1.5,0.5,2.7,1.6,3.2c0.5-1.3,4.8,4.6,3.2,5.6
			c1.4,1.6,1.9,4,4,4.8c2.8,2.2,3.8,6.2,7.2,8c3.2,0,6.4,0,9.5,0c2.1,2.1,9.1,10.4,6.4,9.5c4.9,7.7,16.2,11.8,27,7.2
			c0.1-1.2,1.9-0.7,3.2-0.8c3.9,3.5,5.8,9,11.1,11.1c2.2,0.1,2.2,2.6,4,3.2c3.4,2.1,3.6,7.5,7.2,9.5c2.2,2.3,9.2,4,9.5,5.6
			c0.1,0.9,1.3,0.9,2.4,0.8c2.6,0.4,8,2,7.2,3.2c7.5,3.4,14.9,6.9,23.1,9.5c0.5,0.2,1,0.5,1.4,0.7c0.3,0.2,0.7,0.4,1,0.7
			c0.1,0.1,0.2,0.1,0.3,0.2c0.4,0.3,0.8,0.6,1.2,0.9c0,0,0,0,0,0c0.4,0.3,0.7,0.7,1.1,1.1c0.9,0.7,1.8,1.5,2.8,2.2
			c0,0,0.1,0,0.1,0.1c0.2,0.2,0.5,0.4,0.7,0.5c0,0,0,0,0.1,0c0.5,0.4,1,0.8,1.6,1.1c0.1,0,0.1,0.1,0.2,0.1c0.2,0.1,0.4,0.3,0.6,0.4
			c0.1,0,0.1,0.1,0.2,0.1c0.2,0.1,0.4,0.3,0.6,0.4c0.1,0,0.1,0.1,0.2,0.1c0.5,0.3,1.1,0.6,1.6,0.9c0.1,0,0.1,0.1,0.2,0.1
			c0.2,0.1,0.4,0.2,0.6,0.3c0.1,0,0.2,0.1,0.3,0.1c0.2,0.1,0.4,0.2,0.6,0.3c0.1,0,0.2,0.1,0.2,0.1c0.6,0.2,1.2,0.5,1.8,0.7
			c0.1,0,0.2,0.1,0.3,0.1c0.2,0.1,0.5,0.1,0.7,0.2c0.1,0,0.2,0.1,0.3,0.1c0.2,0.1,0.5,0.1,0.7,0.2c0.1,0,0.2,0,0.3,0.1
			c0.3,0.1,0.7,0.1,1,0.2c0,0,0,0,0,0c0.3,0,0.7,0.1,1,0.1c0.1,0,0.2,0,0.3,0c0.2,0,0.5,0,0.8,0c0.1,0,0.3,0,0.4,0
			c0.3,0,0.5,0,0.8,0c0.1,0,0.2,0,0.4,0c0.4,0,0.8,0,1.2-0.1c0,0,0,0,0,0c0.4,0,0.8-0.1,1.2-0.1c0.1,0,0.3,0,0.4-0.1
			c0.3,0,0.6-0.1,0.9-0.1c0.1,0,0.3-0.1,0.4-0.1c0.3-0.1,0.6-0.1,0.9-0.2c0.1,0,0.3-0.1,0.4-0.1c0.4-0.1,0.9-0.2,1.3-0.4
			c3.3,0.1,4.6-1.8,6.4-3.2c2.1-1.8,7.7-0.3,11.1-0.8c14.7,0.6,30.5,0.2,44.5,1.6c4.3,0.9,9.1,0.2,11.9,0.8
			c5.6-1.8,14.6-0.3,21.5-0.8c6.9,0.5,15.9-1.1,21.5,0.8c0.5,0,1.1,0,1.6,0c4.8,0.5,11.7-1,15.1,0.8c0.9-0.9,2.8-0.9,4.8-0.8
			c12.7,0,25.5,0,38.2,0c7.4,0.5,17-1.1,23.1,0.8c1.7,2.7,5.9-1.3,7.2,0.8c17-1.9,37.4-0.3,55.7-0.8c-0.1,0.9,1.2,1.2,0,1.6
			c2.7,3.2,8.6,3,12.7,4.8c5-1.1,10.4-1.8,14.3-4c18.7-13.1,49.9-13.8,62-33.4c3.5-1.3,11.9-5.7,14.3-0.8c1,1.1,3.5,0.8,5.6,0.8
			c0.5-3.5,7-0.9,8-4c1.1-3,4.3,0.3,4.8-4c0.6-3.9,7.9-1.1,7.2-6.4c-0.1-4.1,9.7-2.5,11.9-1.6c0.5,0,0.9-0.1,0.8-0.8
			c0-0.1,0-0.2,0.1-0.2c0,0,0,0,0,0c0-0.1,0.1-0.1,0.2-0.2c0,0,0,0,0,0c0.1-0.1,0.2-0.1,0.3-0.2c0,0,0,0,0.1,0
			c0.1-0.1,0.3-0.1,0.4-0.1c0,0,0.1,0,0.1,0c0.2,0,0.3-0.1,0.5-0.1c0,0,0.1,0,0.1,0c0.2,0,0.4-0.1,0.6-0.1c0,0,0.1,0,0.1,0
			c0.2,0,0.4-0.1,0.6-0.1c0.5-0.1,1-0.2,1.6-0.3c0,0,0,0,0,0c0.2-0.1,0.5-0.1,0.7-0.2c0,0,0,0,0.1,0c0.2-0.1,0.5-0.1,0.7-0.2
			c0,0,0.1,0,0.1,0c0.2-0.1,0.5-0.1,0.7-0.2c0,0,0.1,0,0.1,0c0.2-0.1,0.4-0.2,0.6-0.2c0,0,0,0,0.1,0c0.2-0.1,0.4-0.2,0.6-0.3
			c0,0,0,0,0,0c0.2-0.1,0.3-0.2,0.5-0.3c0,0,0,0,0,0c0.2-0.1,0.3-0.2,0.4-0.4c0.1-0.2,0.2-0.3,0.3-0.5c2.7-1.5,4.3-4.2,5.6-7.2
			c-0.4-1.2,3.4-9.3,4-9.5c1.8-0.3,0-4.2,1.6-4.8c-2-3.9,3-7.6,4.8-10.3c3.3-2.5,5.5-6.2,7.2-10.3c1.7-3.4,3.5-6.6,6.4-8.7
			c3.4-4.8,7.1-9.4,9.5-15.1c1.1-3.1,2.8-5.7,4.8-8c1.6-4.5,3-9.2,4.8-13.5c0.6-4.2,3-6.6,4-10.3c0.5-2.7,2.2-8.3,3.2-8
			c1.7-2.6,1.8-6.7,3.2-9.5c-2-1,0.3-8.6,0.8-7.2c0.5,0,0.9-0.1,0.8-0.8c-2.1-4.3,1.1-10,3.2-12.7c1.1-0.2,0.9-1.7,1.6-2.4
			c-0.4-4.6,1.9-6.6,2.4-10.3c0.9,0.1,2.3-0.1,2.4,0.8c6.6-2.7,15.5-7.3,23.1-6.4c10.9,22.2,25.3,52.1,33.4,77.2
			c0,0.5,0.1,0.9,0.8,0.8c1.6,0.6,6.1,9.3,5.6,11.9c3.8,3.2-1.4,5.7-1.6,9.5c-7.2,12.4-14.3,29.1-21.5,39c-0.5,0-0.9,0.1-0.8,0.8
			c0.7,2.6-2.9,7.7-4.8,10.3c-5.9,9.5-11.5,19.3-15.1,31c1.9,0.6-0.4,8-0.8,6.4c-0.5,0-0.9,0.1-0.8,0.8c1.4,4.6,0,13.2-0.8,18.3
			c1.5,5.4,1.7,12.1,4,16.7c1.4,1.8,4,6.6,2.4,8.7c3.8,7.6,6.7,16.1,10.3,23.9c1.7-0.6,3.1,5.9,4,8.7c8.9,23.2,18.4,45.8,28.6,67.6
			c1.8,2.8,3.3,5.7,4,9.5c-0.1,2,0.4,3.3,1.6,4c1.5,1.9,3,3.9,3.2,7.2c15.3,37.5,30.7,74.8,46.9,111.4c1.9,1.8,2.2,5.2,3.2,8
			c20.2,50.1,40.9,99.6,62,148.7c1.3,2.4,4.6,7.1,3.2,9.5c2,3.1,2.8,7.3,4.8,10.3c0.5-1.8,3.6,4.8,1.6,5.6c0,0.5,0.1,0.9,0.8,0.8
			c1-0.4,4.6,7.5,3.2,9.5c-0.8,7.3,6.6,17,10.3,24.7c2,3.6,6.2,9.1,5.6,12.7c4.6,8.7,8.5,18,13.5,26.2c1.9,2.6,5.8,7.4,4.8,10.3
			c20.7,7.4,43.2,13,64.4,19.9c4.1-3.6,9.9-5.5,13.5-9.5c1.5-3,5.1-3.9,4.8-8.7c-3.9-17.3-9.4-33-14.3-49.3
			c-0.6,1.3-3.3-6.2-1.6-7.2c0-1.2,3.8,0.4,4.8,0.8c1.8-1.7,6.6,0.2,8,1.6c5.3,0.7,11.6,4.6,15.9,1.6c9-1.3,13.5-11.4,15.1-17.5
			c1.3,0.1,1.3-4.9,0-4.8c-0.9,0.1-4.3-8.4-3.2-10.3c0-0.5-0.1-0.9-0.8-0.8c-8.5-21.8-15.2-44.9-23.1-67.6
			c-7.8-22.6-16.4-45-21.5-67.6c0-0.5-0.1-0.9-0.8-0.8c-0.5,1.8-3.6-4.8-1.6-5.6c0-0.5-0.1-0.9-0.8-0.8c-1.4,0.6-2.3-6.1-3.2-8.7
			c-2-5.4-4.6-10.2-5.6-16.7c-0.6-5.8-2.6-10.1-4.8-14.3c-1.6-1.3-2.1-3.7-2.4-6.4c-1-2.4-4-7.1-2.4-9.5c0-0.5-0.1-0.9-0.8-0.8
			c-0.4,1.4-3.5-5.4-1.6-6.4c-0.4-0.9-0.8-1.8-1.6-2.4c-0.8-1.7-3.8-5.2-1.6-7.2c-1.6-1.9-1.5-5.4-3.2-7.2
			c-2.8-6.8-7.3-16.1-7.2-23.1c0-0.5-0.1-0.9-0.8-0.8c-1.2,0.1-4.4-8.8-3.2-11.1c0-0.5-0.1-0.9-0.8-0.8c-0.3,1.2-3.9-5-1.6-6.4
			c-0.4-0.9-0.8-1.8-1.6-2.4c-4.4-11.5-10.5-25.6-11.9-37.4c0-0.5-0.1-0.9-0.8-0.8c-0.7-0.4-5.1-8.1-3.2-11.1
			c-1.1-0.5-0.1-3.1-1.6-3.2c-1,1.4-2.3-3.5-2.4-5.6c-1.3-2.2-3.6-7.5-2.4-9.5c0-0.5-0.1-0.9-0.8-0.8c-0.6,0.6-4.1-7-2.4-8.7
			c0-0.5-0.1-0.9-0.8-0.8c-0.6-0.2-4.8-7.9-3.2-10.3c0-0.5-0.1-0.9-0.8-0.8c-0.4,1.4-3.5-5.4-1.6-6.4c0-0.5-0.1-0.9-0.8-0.8
			c-0.6,0.6-4.1-7-2.4-8.7c0-0.5-0.1-0.9-0.8-0.8c-1.6-0.3-4.9-9.9-4-12.7c-1.1-0.5-0.1-3.1-1.6-3.2c-2.4-3.7-3.5-8.7-4.8-13.5
			c-0.6-4.7-2-8.7-4-11.9c-1-2.3-4.2-6.4-2.4-8.7c0-0.5-0.1-0.9-0.8-0.8c-5.3-12.2-12-29.9-10.3-51.7c1.2-2.8,0.5-7.4,2.4-9.5
			c0.5-3.5,2.3-9.9,4-9.5c1.2-0.7,1.7-2,1.6-4c1-2.5,2-4.9,4-6.4c2.1-2.6,3.9-5.6,5.6-8.7c-1.3-2.1,2.6-5.9,4-8
			c2.2-4.9,6.2-12.4,8.7-14.3c0.5,0,0.9-0.1,0.8-0.8c-0.8-1.9,2.5-6.5,4.8-8c32.2-32.4,85.5,0.8,128.8,5.6c3.4,0.3,7.1,0.4,9.5,1.6
			c0.8,1.8,5,0.3,7.2,0.8c7.4,0.1,18.7,0.4,22.3,1.6c0,0.5,0.1,0.9,0.8,0.8c3.7-1.3,13-1.3,16.7,0c4,0.5,10.1-1,12.7,0.8
			c0.8,0,0.9,0.6,1.6,0.8c2.7-1.3,10.8-1.3,13.5,0c0.2,0.6,0.7,0.9,1.6,0.8c2.7-1.3,10.8-1.3,13.5,0c3.3,0.4,12.5-0.9,11.9,0.8
			c0,0.5,0.1,0.9,0.8,0.8c4-1.3,13.5-1.3,17.5,0c5.1,0.1,4.8-8.8,10.3-5.6c1.8-1.7,6.6,0.2,8,1.6c1,0.8,2.9,0.8,4,1.6
			c7.2-0.6,16.9,3.2,23.9,5.6c3.1,2.2,8.7,1.9,11.9,4c3.2-1.8,8.6,0.9,11.1,2.4c2.1,1.1,5.3,1.1,7.2,2.4c11.2,0.5,24.8,5.4,35.8,8.7
			c4,2.6,10.8,2.5,15.1,4.8c7.1-0.5,16.9,3.3,23.9,5.6c1.2,1.8,4.7,1.1,6.4,2.4c1.5-1.9,9.1,0.9,8,1.6c1.7,1.5,5.5,0.9,7.2,2.4
			c2.5-1.7,11.2,1.4,11.1,2.4c0,0.5,0.1,0.9,0.8,0.8c1.5-1.9,9.1,0.9,8,1.6c6,2.2,12.9,3.5,19.1,5.6c1.5-1.9,9.1,0.9,8,1.6
			c1.6,1.6,5.3,1,7.2,2.4c5.4-0.9,17,3.2,19.9,4.8c0.2,1.7,3.5,0.2,4,1.6c1.1-1.5,9.2,0.8,8,1.6c4.7,2.2,11,2.7,15.9,4.8
			c3.6-1.7,9,1.6,12.7,2.4c12.3,3,28.5,6.5,37.4,10.3c0,0.5,0.1,0.9,0.8,0.8c11.6,0.6,29.2,6.4,38.2,9.5c0,0.5,0.1,0.9,0.8,0.8
			c4.7-1.3,15.3,2.7,17.5,4c6.5,2.8,15,3.6,21.5,6.4c2.1-1.8,6.9,0.5,8.7,1.6c1.4,1.5,4.8,1,6.4,2.4c1.5-1.9,9.1,0.9,8,1.6
			c0,0.5,0.1,0.9,0.8,0.8c1.4-2.2,4.8,0.4,6.4,0.8c-0.1,1.2,0.3,2.9-0.8,3.2c0,0.5,0.1,0.9,0.8,0.8c0.2,0.4,0.4,0.9,0.6,1.3
			c0.1,0.1,0.1,0.3,0.2,0.4c0.1,0.3,0.2,0.6,0.3,0.9c0.1,0.2,0.1,0.3,0.2,0.5c0.1,0.3,0.2,0.5,0.2,0.8c0.1,0.2,0.1,0.3,0.1,0.5
			c0.1,0.2,0.1,0.5,0.2,0.7c0,0.2,0.1,0.3,0.1,0.5c0,0.2,0.1,0.5,0.1,0.7c0,0.2,0.1,0.3,0.1,0.5c0,0.3,0.1,0.5,0.1,0.8
			c0,0.1,0,0.3,0,0.4c0,0.4,0,0.8,0,1.2c0,0.2,0,0.3,0,0.5c0,0.2,0,0.4,0,0.7c0,0.2,0,0.4,0,0.6c0,0.2,0,0.4,0,0.6
			c0,0.2,0,0.4-0.1,0.6c0,0.2,0,0.3-0.1,0.5c0,0.2-0.1,0.4-0.1,0.6c0,0.2-0.1,0.3-0.1,0.5c0,0.2-0.1,0.4-0.1,0.7
			c0,0.1-0.1,0.3-0.1,0.4c-0.2,0.9-0.5,1.9-0.8,2.8c0,0.4-0.1,0.9-0.1,1.4c-0.3,0.3-0.5,0.5-0.8,0.8c0,0,0,0,0,0
			c-1.6,3.9-3.8,7.7-5.6,11.5c0,0,0,0.1-0.1,0.1c-0.1,0.3-0.3,0.6-0.4,1c0,0.1-0.1,0.2-0.1,0.3c-0.1,0.3-0.2,0.5-0.3,0.8
			c-0.1,0.2-0.1,0.3-0.2,0.5c-0.1,0.2-0.2,0.4-0.2,0.6c-0.1,0.2-0.1,0.4-0.2,0.6c-0.1,0.2-0.1,0.4-0.2,0.5c-0.1,0.2-0.2,0.5-0.2,0.7
			c0,0.1-0.1,0.3-0.1,0.4c-0.1,0.4-0.2,0.8-0.3,1.2c0,0.5,0.1,0.9,0.8,0.8c2.7,14,17.2,23.1,35.8,23.9c0,0.8,1.4,1,1.6,0
			c0.9-1.3,7.1-1.3,8,0c0.5,0,0.9-0.1,0.8-0.8c-1.2-0.5,7.1-2.3,8-0.8c0.5,0,0.9-0.1,0.8-0.8c5.2-1.4,17.1-7.2,23.1-8
			c0.8-1.8,5.7,0.4,6.4-1.6c2-1.2,4.8-1.5,8-1.6c5.9,1,9.1-4.5,13.5-2.4c0.5,3.7,5.3,10.1,9.5,12.7c1.8,1,4.2,2.4,4.8,4.8
			c0,0.1,0.1,0.3,0.1,0.5c0,0,0,0.1,0,0.1c0,0.2,0,0.4,0,0.6c0,0,0,0.1,0,0.1c0,0.2,0,0.4,0,0.6c0,0,0,0.1,0,0.1
			c0,0.2,0,0.5-0.1,0.7c0,0.1,0,0.1,0,0.2c0,0.3-0.1,0.5-0.1,0.8c0,0,0,0,0,0.1c0,0.3-0.1,0.5-0.2,0.8c0,0.1,0,0.1,0,0.2
			c-0.1,0.3-0.1,0.6-0.2,0.9c0,0.1,0,0.1,0,0.2c-0.1,0.3-0.1,0.6-0.2,0.9c0,0.1,0,0.1,0,0.2c-0.1,0.3-0.2,0.7-0.3,1
			c0,0.1,0,0.2-0.1,0.3c-0.1,0.4-0.2,0.7-0.3,1.1c0,0.1,0,0.1,0,0.2c-0.1,0.3-0.2,0.7-0.3,1c0,0.1-0.1,0.2-0.1,0.3
			c-0.1,0.4-0.2,0.7-0.3,1.1c0,0.1-0.1,0.2-0.1,0.3c-0.1,0.3-0.2,0.7-0.3,1c0,0.1,0,0.2-0.1,0.2c-0.1,0.4-0.3,0.8-0.4,1.2
			c0,0.1-0.1,0.2-0.1,0.4c-0.1,0.4-0.3,0.8-0.4,1.2c0,0.1-0.1,0.2-0.1,0.3c-0.1,0.3-0.2,0.7-0.3,1c0,0.1-0.1,0.2-0.1,0.4
			c-0.1,0.4-0.3,0.8-0.4,1.2c0,0.1-0.1,0.3-0.1,0.4c-0.1,0.3-0.2,0.7-0.4,1c0,0.1-0.1,0.2-0.1,0.4c-0.1,0.4-0.3,0.7-0.4,1.1
			c-0.1,0.2-0.1,0.3-0.2,0.5c-0.1,0.4-0.3,0.8-0.4,1.2c-0.1,0.2-0.1,0.3-0.2,0.5c-0.1,0.3-0.2,0.5-0.3,0.8c-0.1,0.3-0.2,0.5-0.3,0.8
			c-0.1,0.2-0.2,0.4-0.2,0.7c-1.2,3.5-2.5,6.9-3.4,9.7c0,0,0,0,0,0.1c-0.1,0.4-0.3,0.7-0.4,1.1c0,0,0,0,0,0c-0.1,0.4-0.2,0.7-0.4,1
			c0,0,0,0,0,0c-0.1,0.3-0.2,0.6-0.3,0.9c0,0,0,0,0,0c-0.4,1.5-0.7,3-1,4.5c-3.1,6.4-4.3,14.8-7.2,21.5c-0.1,8.3-4.5,16.4-3.2,26.2
			c1.3,9.4,8.1,16.3,11.9,22.3c3.8,3.1,7.2,6.6,10.3,10.3c-0.1,1.2,0.3,2.9-0.8,3.2c-0.5,0-0.9,0.1-0.8,0.8c0.7,4.1-2,11.8-2.4,17.5
			c1.6,4.8,5.2,7.6,6.4,12.7c0.5,0,0.9,0.1,0.8,0.8c-4.4,2.8-7.9,6.4-10.3,11.1c-2.3,2.8-1.8,9,0,11.9c0,0.1,0,0.2,0,0.2
			c0,0,0,0,0,0c0.4,1.2,2.9,4.4,5,7.1c0,0,0,0,0,0c0.1,0.2,0.2,0.3,0.3,0.5c0,0,0,0.1,0.1,0.1c0.1,0.1,0.2,0.3,0.3,0.4
			c0,0,0.1,0.1,0.1,0.1c0.1,0.1,0.2,0.2,0.2,0.3c0,0,0.1,0.1,0.1,0.1c0.1,0.1,0.1,0.2,0.2,0.3c0,0.1,0.1,0.1,0.1,0.2
			c0.1,0.1,0.1,0.2,0.2,0.3c0,0.1,0.1,0.1,0.1,0.2c0.1,0.1,0.1,0.2,0.2,0.2c0,0.1,0.1,0.1,0.1,0.2c0,0.1,0.1,0.1,0.1,0.2
			c0,0,0.1,0.1,0.1,0.1c0,0.1,0.1,0.1,0.1,0.2c0,0,0,0.1,0.1,0.1c0,0.1,0.1,0.1,0.1,0.2c0,0,0,0.1,0.1,0.1c0,0.1,0,0.1,0,0.1
			c0,0,0,0.1,0,0.1c0,0,0,0.1,0,0.1c0,0,0,0.1,0,0.1c0,0,0,0.1,0,0.1c0,0,0,0,0,0.1c0,0,0,0-0.1,0.1c0,0,0,0,0,0c0,0-0.1,0-0.1,0
			c0,0,0,0-0.1,0c-0.1,0-0.1,0-0.2,0c3,1.5,4.1,5,4.8,8.7c0.6-0.8,3.2,3.1,3.2,5.6c0,0.8-0.6,0.9-0.8,1.6c2,2-0.7,6.2-1.6,8
			c-1.5,0.1-0.5,2.7-1.6,3.2c-2.3,16.3-16.8,31.1-27,45.3c-28.8,39.8-65.6,73.4-91.5,112.1c-1.4-0.2-2.5,3.7-3.2,1.6
			c-0.5,0-0.9,0.1-0.8,0.8c-0.6,5.2-7.9,14.9-11.1,17.5c-0.5,0-0.9,0.1-0.8,0.8c-4.1,11.3-14.3,27.6-19.9,37.4
			c-1.5,1.9-2.4,4.5-3.2,7.2c-4.4,12.3-10.5,27.1-15.1,36.6c-0.5,0-0.9,0.1-0.8,0.8c1.7,3.8-3.1,12.3-4,13.5
			c-1.5,0.1-0.5,2.7-1.6,3.2c0.7,6.6-4.2,18.6-5.6,23.1c-2.4,7.6-4.6,15.6-5.6,24.7c0.1,3.6-0.1,6.8-1.6,8.7c-0.3,2.4-2,5.8-0.8,7.2
			c-0.3,2.7-0.6,9.5-1.6,8.7c-0.6,0.2-0.9,0.7-0.8,1.6c1.9,3.5,0.4,10.5-0.8,13.5c-1.2,0.1-0.7,1.9-0.8,3.2c1.3,1.1,1.3,7.6,0,8.7
			c-0.6,0.2-0.9,0.7-0.8,1.6c1.3,8.8,1.3,23.1,0,31.8c0.7,8.5,0,16.1,2.4,23.1c1.4,4.5,18.3,4.5,20.7,8c3.3,1.7,9.3,0.7,12.7,2.4
			c0.3-1.5,9.4-1,7.2,0c0.2,0.6,0.7,0.9,1.6,0.8c3.9-0.9,11.5,1.3,16.7,1.6c11.3,2,30.4-1.8,41.4-7.2c3.1-4.1,8.9-9.6,12.7-10.3
			c3-4.9,8.6-7.3,11.9-11.9c-2.1,0.8-2.7,3.2-4.8,4c2.7-2.3,5.7-8.6,8.7-8c0.6-1.3,2.5-1.2,2.4-3.2c2.5-3.3,5-6.7,8.7-8.7
			c2-0.1,3.1-1.2,3.2-3.2c-0.5-1.9,3.6-5.9,6.4-7.2c2.6,0.2,1.9-2.8,3.2-4c6.2-9.4,13.8-17.5,21.5-25.5c2-2,3.9-4.1,5.6-6.4
			c-3.2,1,3-7,5.6-8c0.5,0,0.9-0.1,0.8-0.8c-1.3-1.8,2.9-5,4.8-6.4c1.1-0.5,1.5-1.7,1.6-3.2c0.8-3.4,2.9-5.6,5.6-7.2
			c0-0.3,0-0.5,0-0.8c4.5-7.2,10.7-16.8,15.1-21.5c0.9-0.2,1.2-0.9,1.6-1.6c0.3-5.8,6.1-13,10.3-17.5c1.2-3.5,4-5.5,4.8-9.5
			c3-7.1,6-14.1,11.1-19.1c0-0.3,0-0.5,0-0.8c1.6-6.1,3.7-11.6,8-15.1c1.3-1.1,1.2-3.5,2.4-4.8c-1.4-3,2.2-7.8,4-10.3
			c2-2,2.3-5.7,4-8c1.8-9.1,8.2-24.7,11.9-31.8c0.5,0,0.9-0.1,0.8-0.8c-2.6-3.4,2.3-6.1,2.4-9.5c1.9-1.8,1.4-6,3.2-8
			c-1.7-3.1,2.3-11.4,3.2-11.9c0.5,0,0.9-0.1,0.8-0.8c-2.1-3.5,0.8-8.8,2.4-11.1c0-0.3,0-0.5,0-0.8c0.3-5.3,1.6-9.6,3.2-13.5
			c1.2-3.5,3-6.3,1.6-10.3c0-2.5,0.7-8.3,1.6-7.2c2.4-7.3,2.7-13.7,4-23.1c-1.3-0.9-1.3-7.1,0-8c0.3-1.5,1.3-2.7,0-4
			c-1.5,1,0-7.7,0.8-9.5c0.2-1.5,2.1-5.3,0-6.4c-1.7,0.6-0.4-8.6-0.8-11.9c-0.8-10.5,0.3-21.4-4-31c-2.4-4.5-4-9.8-4.8-15.9
			c-0.6-3.4-1.9-6.1-3.2-8.7c-2-2.3-5.1-7.6-3.2-11.1c-1.4-0.5,0.1-3.8-1.6-4c-1.1-2.7-1.4-10.2-0.8-11.9c-0.9-3,2-2.3,1.6-4.8
			c2.8-5.7,13-10.8,15.1-19.9c-0.1-6.5,6.9-5.8,11.1-8c2.6-0.6,13.3-4.1,16.7-4c2.3-1.4,5.3-2.1,7.2-4c11.1-6.9,14.4-25.9,19.1-36.6
			c2.5-4.7,3.4-10.9,5.6-15.9c-0.6-5.4,3-13.5,5.6-18.3c1.5-3.2,4.6-12.7,3.2-13.5c-1.9,3.5-3.4-7.1-1.6-4.8c0.8,0,0.9-0.6,1.6-0.8
			c0.2-0.3,0.3-0.6,0.5-1c0,0,0-0.1,0.1-0.1c0.2-0.3,0.4-0.6,0.5-1c0,0,0,0,0,0c0.4-0.6,0.8-1.3,1.3-1.8c0,0,0-0.1,0-0.1
			c0,0,0.1,0,0.1,0c0.3-0.4,0.7-0.8,1.1-1.1c0,0,0,0,0,0c0.2-0.1,0.3-0.3,0.5-0.4c0.1,0,0.1-0.1,0.2-0.1c0.1-0.1,0.3-0.2,0.4-0.3
			c0.1,0,0.1-0.1,0.2-0.1c0.1-0.1,0.3-0.2,0.4-0.2c0.1,0,0.2-0.1,0.3-0.1c0.1-0.1,0.3-0.1,0.5-0.2c0.1,0,0.2-0.1,0.3-0.1
			c0.2-0.1,0.3-0.1,0.5-0.2c0.1,0,0.2-0.1,0.3-0.1c0.3-0.1,0.5-0.1,0.8-0.2c2,0.1,4.7-5.1,6.4-8c1.2-2.8,2.3-5.6,5.6-6.4
			c1.8-1.5,3.3-1.5,4.8-4.8c-0.3,0-0.5,0-0.8,0c0,0,0,0,0,0c0.3,1.4-2,1.2-1.6,0.8c0.4-0.3,0.9-0.6,1.6-0.8c0,0,0,0,0,0h0
			c5.3-1.4,19.1,1.4,22.3,1.6c0,0.5,0.1,0.9,0.8,0.8c6.8-1.5,17.4,0.1,24.7,0.8c15.3-1,20.5-15.9,17.5-32.6
			c-1.8-1.4-0.3-6.1-0.8-8.7c4.4-25.5,14.2-45.7,22.3-67.6c8.7-1.9,14-7.2,14.3-17.5c0-6.9,0-13.8,0-20.7c-2-0.1-1.3-3-2.4-4
			c-1.4,0-2-0.6-2.4-1.6c-1.5,0.7-7.1,0.1-8.7-1.6c0.3-1.1,1.1-1.5,0.8-3.2c-0.9-0.1-0.9-1.3-0.8-2.4c0.7-1.6,9.2-2.5,8-0.8
			c0.7,1.2,2,1.7,4,1.6c3-2.3,1.5-10,0-12.7c-2.3-4.3-6.5-6.8-9.5-10.3c-9.4-6.5-21.5-10.3-33.4-14.3c-3.2,1-5.5-2.9-3.2-4.8
			c5.5-11.7,8.8-25.6,13.5-38.2c-1.6-3.4,2.1-8.5,3.2-11.9c4.5-7.1,6-20.2,11.1-33.4c4.5-11.5,14-24.2,10.3-33.4
			c-6.2-12.4-18.8-25.2-27.8-37.4c1-2.8,1.2-6.2,3.2-8c0-0.5,0-1.1,0-1.6c0.9-2.5,0.6-6.3,3.2-7.2c5-1.7,3.7-12.9,0-15.1
			c-2.4-2.5-10.3-6.7-5.6-11.1c1.1-0.5,1.5-1.7,1.6-3.2c-1.4-10.2,14.3-10.1,11.9-23.9c1.2-13.5,13.5-14.8,19.1-25.5
			c3.4-4.5,7.9-8,11.9-11.9c0.5,0,0.9-0.1,0.8-0.8c7.1-6.7,13.8-18.1,19.9-23.1c0.5,0,0.9-0.1,0.8-0.8c1.7-7.1,9.7-14.7,14.3-21.5
			c1.6-0.2,1.6-2.1,2.4-3.2c-1.1-1.9,2.8-5.7,4.8-7.2c1.5-1.7,2.4-3.9,4-5.6c-0.6-2.8,4.1-11.2,6.4-11.1
			c9.1-15.5,18.9-40.6,19.1-58.9C5676.2,867,5675.9,860.7,5675.6,858.6z M4768.8,655 M4747.4,663.8c13.5,2.7,21.3,2.5,35,0.8
			 M3015.1,483.2c1.1-1.3,7.6-1.3,8.7,0 M3004.7,496.7 M2996,607.3 M2989.9,590.7 M3042.1,618.4 M2609.4,1383.6 M3498.6,731.4
			 M3563.9,747.3 M3599.7,798.2 M3928.9,389.4 M4238.3,765.6 M4266.2,794.2 M4267,832.4 M4356.1,791 M4359.2,764 M5197.5,1397.1"/>
		<rect x="3900.2" y="88" fill="#BBBCBF" width="66.8" height="393.4"/>
	</g>
</g>
</svg>
