<?xml version="1.0" encoding="utf-8"?>
<!-- Generator: Adobe Illustrator 18.1.1, SVG Export Plug-In . SVG Version: 6.00 Build 0)  -->
<svg version="1.1" id="Layer_1" xmlns="http://www.w3.org/2000/svg" xmlns:xlink="http://www.w3.org/1999/xlink" x="0px" y="0px"
	 viewBox="0 0 1440 2000" enable-background="new 0 0 1440 2000" xml:space="preserve">
<path fill="#333333" d="M995.2,380.2l-47.7-25.6l-1.7,0.9c-54.5,43.5-130.4,70.7-215.6,70.7c-83.5,0-159.3-26.4-213-68.2l-3.4-2.6
	l-47.7,25.6L22.2,616.3L200.2,952l132.9-70.7v651.8H1129V881.3l132.9,70.7L1440,616.3L995.2,380.2z M731.1,548.1
	c-83.5,0-155.1-46.9-191.7-115.9c56.2,29,121.8,44.3,190,44.3c69.9,0,136.3-16.2,193.4-46C887.9,500.4,815.4,548.1,731.1,548.1z"/>
</svg>
