<?xml version="1.0" encoding="utf-8"?>
<!-- Generator: Adobe Illustrator 18.1.1, SVG Export Plug-In . SVG Version: 6.00 Build 0)  -->
<svg version="1.1" id="Layer_1" xmlns="http://www.w3.org/2000/svg" xmlns:xlink="http://www.w3.org/1999/xlink" x="0px" y="0px"
	 viewBox="-634 930.6 169 140.4" enable-background="new -634 930.6 169 140.4" xml:space="preserve">
<path fill="#BBBCBF" d="M-518.5,934.8l-5.6-3l-0.2,0.1c-6.4,5.1-15.3,8.3-25.3,8.3c-9.8,0-18.7-3.1-25-8l-0.4-0.3l-5.6,3l-52.1,27.6
	l20.9,39.4l15.6-8.3v76.5h93.4v-76.5l15.6,8.3l20.9-39.4L-518.5,934.8z M-549.5,954.5c-9.8,0-18.2-5.5-22.5-13.6
	c6.6,3.4,14.3,5.2,22.3,5.2c8.2,0,16-1.9,22.7-5.4C-531.1,948.9-539.6,954.5-549.5,954.5z"/>
</svg>
