<?xml version="1.0" encoding="utf-8"?>
<!-- Generator: Adobe Illustrator 14.0.0, SVG Export Plug-In . SVG Version: 6.00 Build 43363)  -->
<!DOCTYPE svg PUBLIC "-//W3C//DTD SVG 1.1//EN" "http://www.w3.org/Graphics/SVG/1.1/DTD/svg11.dtd">
<svg version="1.1" id="Layer_1" xmlns="http://www.w3.org/2000/svg" xmlns:xlink="http://www.w3.org/1999/xlink" x="0px" y="0px"
	 width="183.947px" height="164.518px" viewBox="0 0 183.947 164.518" enable-background="new 0 0 183.947 164.518"
	 xml:space="preserve">
<g>
	<g>
		<path fill="#BCBEC0" d="M88.248,127.144v-13.453l-12.324-2.873l-1.971-5.588l6.43-10.506L68.68,84.297l-8.846,6.726l-5.135-2.114
			l-3.71-12.319h-6.588h-0.056h-6.587l-3.701,12.319l-5.145,2.114l-8.845-6.726L8.355,94.724l6.43,10.506l-1.961,5.588L0.5,113.691
			v13.453l12.324,3.173l2.341,5.288l-6.81,9.668l9.908,10.886l10.428-6.579l5.366,2.193l3.247,12.245h7.041h0.056h7.041
			l3.257-12.245l5.357-2.193l10.436,6.579l9.891-10.886l-6.8-9.668l2.341-5.288L88.248,127.144z M44.401,129.989
			c-5.348,0-9.678-4.344-9.678-9.683c0-5.348,4.33-9.687,9.678-9.687s9.696,4.339,9.696,9.687
			C54.098,125.645,49.749,129.989,44.401,129.989z"/>
	</g>
	<g>
		<path fill="#BCBEC0" d="M183.447,127.144v-13.453l-12.314-2.873l-1.966-5.588l6.426-10.506l-11.709-10.427l-8.845,6.726
			l-5.135-2.114l-3.711-12.319h-6.578h-0.064h-6.588l-3.701,12.319l-5.139,2.114l-8.85-6.726l-11.704,10.427l6.43,10.506
			l-1.971,5.588l-12.323,2.873v13.453l12.323,3.173l2.341,5.288l-6.8,9.668l9.891,10.886l10.432-6.579l5.37,2.193l3.248,12.245
			h7.041h0.064h7.041l3.248-12.245l5.356-2.193l10.437,6.579l9.896-10.886l-6.806-9.668l2.346-5.288L183.447,127.144z
			 M139.615,129.989c-5.356,0-9.687-4.344-9.687-9.683c0-5.348,4.33-9.687,9.687-9.687c5.339,0,9.688,4.339,9.688,9.687
			C149.303,125.645,144.954,129.989,139.615,129.989z"/>
	</g>
	<g>
		<path fill="#BCBEC0" d="M136.192,51.054V37.601l-12.319-2.868l-1.962-5.593l6.426-10.506L116.624,8.207l-8.845,6.727l-5.136-2.114
			L98.943,0.5h-6.578h-0.074h-6.588l-3.701,12.319l-5.135,2.114l-8.836-6.727L56.309,18.634L62.73,29.14l-1.962,5.593l-12.314,2.868
			v13.453l12.314,3.173l2.341,5.283l-6.801,9.678l9.909,10.881l10.418-6.579l5.366,2.193l3.248,12.241h7.041h0.074h7.031
			l3.247-12.241l5.366-2.193l10.428,6.579l9.899-10.881l-6.805-9.678l2.341-5.283L136.192,51.054z M92.365,53.894
			c-5.357,0-9.697-4.33-9.697-9.678s4.34-9.687,9.697-9.687c5.338,0,9.678,4.339,9.678,9.687S97.703,53.894,92.365,53.894z"/>
	</g>
</g>
</svg>
