<?xml version="1.0" encoding="utf-8"?>
<!-- Generator: Adobe Illustrator 18.1.1, SVG Export Plug-In . SVG Version: 6.00 Build 0)  -->
<svg version="1.1" id="Layer_1" xmlns="http://www.w3.org/2000/svg" xmlns:xlink="http://www.w3.org/1999/xlink" x="0px" y="0px"
	 viewBox="-627 918.5 183.9 164.5" enable-background="new -627 918.5 183.9 164.5" xml:space="preserve">
<g>
	<g>
		<path fill="#333333" d="M-538.8,1045.6v-13.5l-12.3-2.9l-2-5.6l6.4-10.5l-11.7-10.4l-8.8,6.7l-5.1-2.1l-3.7-12.3h-6.6h-0.1h-6.6
			l-3.7,12.3l-5.1,2.1l-8.8-6.7l-11.7,10.4l6.4,10.5l-2,5.6l-12.3,2.9v13.5l12.3,3.2l2.3,5.3l-6.8,9.7l9.9,10.9l10.4-6.6l5.4,2.2
			l3.2,12.2h7h0.1h7l3.3-12.2l5.4-2.2l10.4,6.6l9.9-10.9l-6.8-9.7l2.3-5.3L-538.8,1045.6z M-582.6,1048.5c-5.3,0-9.7-4.3-9.7-9.7
			c0-5.3,4.3-9.7,9.7-9.7s9.7,4.3,9.7,9.7C-572.9,1044.1-577.3,1048.5-582.6,1048.5z"/>
	</g>
	<g>
		<path fill="#333333" d="M-443.6,1045.6v-13.5l-12.3-2.9l-2-5.6l6.4-10.5l-11.7-10.4l-8.8,6.7l-5.1-2.1l-3.7-12.3h-6.6h-0.1h-6.6
			l-3.7,12.3l-5.1,2.1l-8.9-6.7l-11.7,10.4l6.4,10.5l-2,5.6l-12.3,2.9v13.5l12.3,3.2l2.3,5.3l-6.8,9.7l9.9,10.9l10.4-6.6l5.4,2.2
			l3.2,12.2h7h0.1h7l3.2-12.2l5.4-2.2l10.4,6.6l9.9-10.9l-6.8-9.7l2.3-5.3L-443.6,1045.6z M-487.4,1048.5c-5.4,0-9.7-4.3-9.7-9.7
			c0-5.3,4.3-9.7,9.7-9.7c5.3,0,9.7,4.3,9.7,9.7C-477.7,1044.1-482,1048.5-487.4,1048.5z"/>
	</g>
	<g>
		<path fill="#333333" d="M-490.8,969.5v-13.5l-12.3-2.9l-2-5.6l6.4-10.5l-11.7-10.4l-8.8,6.7l-5.1-2.1l-3.7-12.3h-6.6h-0.1h-6.6
			l-3.7,12.3l-5.1,2.1l-8.8-6.7l-11.7,10.4l6.4,10.5l-2,5.6l-12.3,2.9v13.5l12.3,3.2l2.3,5.3l-6.8,9.7l9.9,10.9l10.4-6.6l5.4,2.2
			l3.2,12.2h7h0.1h7l3.2-12.2l5.4-2.2l10.4,6.6l9.9-10.9l-6.8-9.7l2.3-5.3L-490.8,969.5z M-534.6,972.4c-5.4,0-9.7-4.3-9.7-9.7
			s4.3-9.7,9.7-9.7c5.3,0,9.7,4.3,9.7,9.7S-529.3,972.4-534.6,972.4z"/>
	</g>
</g>
</svg>
