<?xml version="1.0" encoding="utf-8"?>
<!-- Generator: Adobe Illustrator 18.1.1, SVG Export Plug-In . SVG Version: 6.00 Build 0)  -->
<svg version="1.1" id="Layer_1" xmlns="http://www.w3.org/2000/svg" xmlns:xlink="http://www.w3.org/1999/xlink" x="0px" y="0px"
	 viewBox="0 0 50 50" enable-background="new 0 0 50 50" xml:space="preserve">
<g>
	<path fill="#333333" d="M46.5,42.3l-9.3-9.8c2.2-3.4,3.4-7.2,3.4-11.4c0-2.7-0.5-5.3-1.5-7.8c-1-2.5-2.4-4.6-4.1-6.4
		c-1.7-1.8-3.7-3.2-6.1-4.3C26.6,1.5,24.1,1,21.5,1s-5.1,0.5-7.4,1.6C11.8,3.6,9.7,5.1,8,6.9S5,10.8,4,13.3c-1,2.5-1.5,5.1-1.5,7.8
		S3,26.5,4,28.9c1,2.5,2.4,4.6,4.1,6.4c1.7,1.8,3.7,3.2,6.1,4.3c2.4,1.1,4.8,1.6,7.4,1.6c4,0,7.6-1.2,10.8-3.5l9.3,9.8
		c0.6,0.7,1.5,1.1,2.4,1.1c0.9,0,1.8-0.4,2.4-1.1c0.7-0.7,1-1.6,1-2.6C47.5,43.9,47.2,43,46.5,42.3z M30.1,30.2
		c-2.4,2.5-5.2,3.8-8.6,3.8c-3.3,0-6.2-1.3-8.6-3.8c-2.4-2.5-3.6-5.5-3.6-9c0-3.5,1.2-6.5,3.6-9c2.4-2.5,5.2-3.8,8.6-3.8
		s6.2,1.3,8.6,3.8c2.4,2.5,3.6,5.5,3.6,9C33.7,24.7,32.5,27.7,30.1,30.2z"/>
</g>
</svg>
