<?xml version="1.0" encoding="utf-8"?>
<!-- Generator: Adobe Illustrator 18.1.1, SVG Export Plug-In . SVG Version: 6.00 Build 0)  -->
<svg version="1.1" id="Layer_1" xmlns="http://www.w3.org/2000/svg" xmlns:xlink="http://www.w3.org/1999/xlink" x="0px" y="0px"
	 viewBox="0 0 50 50" enable-background="new 0 0 50 50" xml:space="preserve">
<g>
	<g>
		<g>
			<g>
				<path fill="#333333" d="M11.4,10.9C11.4,10.9,11.4,10.9,11.4,10.9c0.1-0.1,0.2-0.1,0.2-0.1"/>
				<path fill="#333333" d="M11.3,10.9c0,0,0.1-0.1,0.1-0.1c0.1,0,0.1,0,0.2,0"/>
				<path fill="#333333" d="M11.3,10.9c0,0,0.1-0.1,0.1-0.1c0.1,0,0.1,0,0.2,0"/>
				<path fill="#333333" d="M37.6,12.2c0.2,0.2,0.5,0.4,0.8,0.4"/>
				<path fill="#333333" d="M37.7,10.5c-0.3,0.2-0.4,0.5-0.4,0.9c0,0,0,0,0,0.1"/>
				<path fill="#333333" d="M37.6,10.5c-0.1,0.1-0.2,0.3-0.3,0.4"/>
				<path fill="#333333" d="M37.3,11c-0.1,0.1-0.1,0.3-0.1,0.5l0,0"/>
				<path fill="#333333" d="M39.4,10.7c-0.2-0.3-0.5-0.4-0.9-0.4c0,0,0,0-0.1,0"/>
				<path fill="#333333" d="M39.4,12.2c0.2-0.2,0.3-0.5,0.3-0.8c0,0,0,0,0-0.1"/>
				<path fill="#333333" d="M39.7,11.9c0.1-0.1,0.1-0.3,0.1-0.5l0,0"/>
				<path fill="#333333" d="M39.5,12.2c0.1-0.1,0.1-0.2,0.2-0.3"/>
				<path fill="#333333" d="M12.4,12.3c-0.2,0.2-0.5,0.3-0.8,0.3c0,0,0,0-0.1,0"/>
				<path fill="#333333" d="M10.6,10.9c0-0.1,0.1-0.2,0.2-0.3"/>
				<line fill="#333333" x1="10.5" y1="10.9" x2="10.6" y2="11.1"/>
				<path fill="#333333" d="M10.5,10.8c0,0,0.1,0.1,0.1,0.2c0,0,0,0.1,0,0.1"/>
				<path fill="#333333" d="M10.6,11"/>
				<path fill="#333333" d="M10.5,11C10.5,11,10.5,10.9,10.5,11C10.6,10.9,10.6,10.9,10.5,11"/>
				<path fill="#333333" d="M10.6,11C10.6,11,10.6,11,10.6,11C10.6,10.9,10.6,10.9,10.6,11"/>
				<line fill="#333333" x1="10.6" y1="10.9" x2="10.6" y2="11.1"/>
				<path fill="#333333" d="M11.5,11.7c0.1-0.2,0.2-0.3,0.4-0.3c0,0,0.1,0,0.1,0"/>
				<path fill="#333333" d="M11.7,11.1c0,0-0.1,0-0.1,0.1c0,0-0.1,0-0.1,0"/>
				<path fill="#333333" d="M11.7,11.1c0,0-0.1,0.1-0.1,0.1c-0.1,0-0.1,0-0.2,0"/>
				<path fill="#333333" d="M11.8,11.1c0,0-0.1,0.1-0.2,0.1c-0.1,0-0.1,0-0.2,0"/>
				<path fill="#333333" d="M12.4,10.5c0.2,0.2,0.4,0.5,0.4,0.8"/>
				<path fill="#333333" d="M12.5,10.5c0.1,0.1,0.2,0.3,0.3,0.4"/>
				<path fill="#333333" d="M10.8,10.7c0.2-0.3,0.5-0.4,0.9-0.4c0,0,0,0,0.1,0"/>
				<path fill="#333333" d="M11.2,10.2c0.1-0.1,0.3-0.1,0.5-0.1l0,0"/>
				<path fill="#333333" d="M10.7,10.6c0.1-0.1,0.2-0.2,0.4-0.3"/>
				<path fill="#333333" d="M11.7,10.2c0.1,0,0.2,0,0.3,0.1"/>
				<path fill="#333333" d="M12,10.2c0,0,0.1,0.2,0.1,0.2c0,0,0,0,0,0"/>
				<line fill="#333333" x1="12.1" y1="10.2" x2="12.2" y2="10.5"/>
				<path fill="#333333" d="M12.1,10.2C12.1,10.2,12.1,10.2,12.1,10.2C12.1,10.3,12.1,10.3,12.1,10.2"/>
				<path fill="#333333" d="M12.1,10.3C12.1,10.3,12.1,10.3,12.1,10.3C12.1,10.3,12.1,10.3,12.1,10.3"/>
				<line fill="#333333" x1="12.1" y1="10.3" x2="12.2" y2="10.4"/>
				<path fill="#333333" d="M12.7,11.5C12.7,11.5,12.7,11.5,12.7,11.5c0.2-0.1,0.2-0.2,0.2-0.2"/>
				<path fill="#333333" d="M12.7,11.4L12.7,11.4c0.1,0,0.1-0.1,0.1-0.1"/>
				<path fill="#333333" d="M11.1,37.1C11.1,37.1,11,37.1,11.1,37.1c-0.2-0.1-0.3,0-0.3,0"/>
				<path fill="#333333" d="M11,37.1L11,37.1c-0.1,0-0.2,0-0.2,0"/>
				<line fill="#333333" x1="10.5" y1="38.4" x2="10.6" y2="38.1"/>
				<path fill="#333333" d="M10.5,38.5c0,0,0.1-0.1,0.1-0.2c0,0,0-0.1,0-0.1"/>
				<line fill="#333333" x1="10.6" y1="38.3" x2="10.6" y2="38.2"/>
				<path fill="#333333" d="M10.6,38.4c0,0.1,0.1,0.2,0.2,0.3"/>
				<path fill="#333333" d="M10.5,38.3C10.5,38.3,10.5,38.4,10.5,38.3C10.6,38.4,10.6,38.4,10.5,38.3"/>
				<path fill="#333333" d="M10.6,38.3C10.6,38.3,10.6,38.3,10.6,38.3C10.6,38.4,10.6,38.4,10.6,38.3"/>
				<path fill="#333333" d="M11.4,38.4C11.4,38.4,11.4,38.4,11.4,38.4c0.1,0.1,0.2,0.1,0.2,0.1"/>
				<path fill="#333333" d="M11.3,38.4c0,0,0.1,0.1,0.1,0.1c0.1,0,0.1,0,0.2,0"/>
				<path fill="#333333" d="M11.3,38.4c0,0,0.1,0.1,0.1,0.1c0.1,0,0.1,0,0.2,0"/>
				<path fill="#333333" d="M11.7,39.1c0.1,0,0.2,0,0.3-0.1"/>
				<path fill="#333333" d="M12,39.1c0,0,0.1-0.2,0.1-0.2c0,0,0,0,0,0"/>
				<line fill="#333333" x1="12.1" y1="39.1" x2="12.2" y2="38.8"/>
				<path fill="#333333" d="M12.1,39C12.1,39,12.1,39,12.1,39C12.1,39,12.1,39,12.1,39"/>
				<path fill="#333333" d="M12.1,39C12.1,39,12.1,39,12.1,39C12.1,39,12.1,39,12.1,39"/>
				<line fill="#333333" x1="12.1" y1="39" x2="12.2" y2="38.8"/>
				<path fill="#333333" d="M11.7,38.2c0,0-0.1,0-0.1-0.1c0,0-0.1,0-0.1,0"/>
				<path fill="#333333" d="M11.7,38.2c0,0-0.1-0.1-0.1-0.1c-0.1,0-0.1,0-0.2,0"/>
				<path fill="#333333" d="M11.8,38.2c0,0-0.1-0.1-0.2-0.1c-0.1,0-0.1,0-0.2,0"/>
				<path fill="#333333" d="M11.5,37.5c0.1,0.2,0.2,0.3,0.4,0.3c0,0,0.1,0,0.1,0"/>
				<path fill="#333333" d="M38.1,10.2C38.1,10.2,38.1,10.2,38.1,10.2C38.1,10.3,38.1,10.3,38.1,10.2"/>
				<path fill="#333333" d="M38.1,10.3C38.1,10.3,38.1,10.3,38.1,10.3C38,10.3,38,10.3,38.1,10.3"/>
				<path fill="#333333" d="M38.4,10.2c-0.1,0-0.2,0-0.3,0.1"/>
				<path fill="#333333" d="M38.1,10.2c0,0-0.1,0.2-0.1,0.2c0,0,0,0,0,0"/>
				<line fill="#333333" x1="38.1" y1="10.2" x2="38" y2="10.5"/>
				<line fill="#333333" x1="38.1" y1="10.3" x2="38" y2="10.4"/>
				<path fill="#333333" d="M38.8,10.9C38.8,10.9,38.8,10.9,38.8,10.9c-0.1-0.1-0.2-0.1-0.2-0.1"/>
				<path fill="#333333" d="M38.9,10.9c0,0-0.1-0.1-0.1-0.1c-0.1,0-0.1,0-0.2,0"/>
				<path fill="#333333" d="M38.9,10.9c0,0-0.1-0.1-0.1-0.1c-0.1,0-0.1,0-0.2,0"/>
				<path fill="#333333" d="M39.6,10.9c0-0.1-0.1-0.2-0.2-0.3"/>
				<line fill="#333333" x1="39.7" y1="10.9" x2="39.6" y2="11.1"/>
				<path fill="#333333" d="M39.6,10.8c0,0-0.1,0.1-0.1,0.2c0,0,0,0.1,0,0.1"/>
				<path fill="#333333" d="M39.6,11"/>
				<path fill="#333333" d="M39.6,11C39.6,11,39.6,10.9,39.6,11C39.6,10.9,39.6,10.9,39.6,11"/>
				<path fill="#333333" d="M39.6,11C39.6,11,39.6,11,39.6,11C39.6,10.9,39.6,10.9,39.6,11"/>
				<line fill="#333333" x1="39.6" y1="10.9" x2="39.5" y2="11.1"/>
				<path fill="#333333" d="M38.5,39.1c-0.1,0-0.2,0-0.3-0.1"/>
				<path fill="#333333" d="M38.1,39.1c0,0-0.1-0.2-0.1-0.2c0,0,0,0,0,0"/>
				<line fill="#333333" x1="38.1" y1="39.1" x2="38" y2="38.8"/>
				<path fill="#333333" d="M38.1,39C38.1,39,38.1,39,38.1,39C38.1,39,38.1,39,38.1,39"/>
				<path fill="#333333" d="M38.1,39C38.1,39,38.1,39,38.1,39C38,39,38,39,38.1,39"/>
				<line fill="#333333" x1="38.1" y1="39" x2="38" y2="38.8"/>
				<path fill="#333333" d="M38.5,38.2c0,0,0.1,0,0.1-0.1c0,0,0.1,0,0.1,0"/>
				<path fill="#333333" d="M38.5,38.2c0,0,0.1-0.1,0.1-0.1c0.1,0,0.1,0,0.2,0"/>
				<path fill="#333333" d="M38.4,38.2c0,0,0.1-0.1,0.2-0.1c0.1,0,0.1,0,0.2,0"/>
				<path fill="#333333" d="M38.7,37.5c-0.1,0.2-0.2,0.3-0.4,0.3c-0.1,0-0.1,0-0.1,0"/>
				<path fill="#333333" d="M38.8,38.4C38.8,38.4,38.8,38.4,38.8,38.4c-0.1,0.1-0.2,0.1-0.2,0.1"/>
				<path fill="#333333" d="M38.9,38.4c0,0-0.1,0.1-0.1,0.1c-0.1,0-0.1,0-0.2,0"/>
				<path fill="#333333" d="M38.9,38.4c0,0-0.1,0.1-0.1,0.1c-0.1,0-0.1,0-0.2,0"/>
				<path fill="#333333" d="M39.6,38.4c0,0.1-0.1,0.2-0.2,0.3"/>
				<line fill="#333333" x1="39.7" y1="38.4" x2="39.6" y2="38.1"/>
				<path fill="#333333" d="M39.6,38.5c0,0-0.1-0.1-0.1-0.2c0,0,0-0.1,0-0.1"/>
				<path fill="#333333" d="M39.6,38.3"/>
				<path fill="#333333" d="M39.6,38.3C39.6,38.3,39.6,38.4,39.6,38.3C39.6,38.4,39.6,38.4,39.6,38.3"/>
				<path fill="#333333" d="M39.6,38.3C39.6,38.3,39.6,38.3,39.6,38.3C39.6,38.4,39.6,38.4,39.6,38.3"/>
				<line fill="#333333" x1="39.6" y1="38.3" x2="39.5" y2="38.2"/>
				<path fill="#333333" d="M37.5,37.8C37.5,37.8,37.5,37.8,37.5,37.8c-0.2,0.1-0.2,0.2-0.2,0.2"/>
				<path fill="#333333" d="M37.5,37.8L37.5,37.8c-0.1,0-0.1,0.1-0.1,0.1"/>
				<path fill="#333333" d="M39.2,36.9c0.3,0.2,0.4,0.5,0.4,0.9c0,0,0,0,0,0.1"/>
				<path fill="#333333" d="M37.7,36.9c0.2-0.2,0.5-0.3,0.8-0.3c0,0,0,0,0.1,0"/>
				<path fill="#333333" d="M37.7,38.7c-0.2-0.2-0.4-0.5-0.4-0.8"/>
				<path fill="#333333" d="M39.4,38.6c-0.2,0.3-0.5,0.4-0.9,0.4c0,0,0,0-0.1,0"/>
				<path fill="#333333" d="M38,36.7c0.1-0.1,0.3-0.1,0.5-0.1l0,0"/>
				<path fill="#333333" d="M37.7,36.9c0.1-0.1,0.2-0.1,0.3-0.2"/>
				<path fill="#333333" d="M37.6,38.8c-0.1-0.1-0.2-0.3-0.3-0.4"/>
				<path fill="#333333" d="M39,39c-0.1,0.1-0.3,0.1-0.5,0.1l0,0"/>
				<path fill="#333333" d="M39.4,38.7c-0.1,0.1-0.2,0.2-0.4,0.3"/>
				<path fill="#333333" d="M38.5,11.1c0,0,0.1,0,0.1,0.1c0,0,0.1,0,0.1,0"/>
				<path fill="#333333" d="M38.5,11.1c0,0,0.1,0.1,0.1,0.1c0.1,0,0.1,0,0.2,0"/>
				<path fill="#333333" d="M38.4,11.1c0,0,0.1,0.1,0.2,0.1c0.1,0,0.1,0,0.2,0"/>
				<path fill="#333333" d="M12.4,38.7c0.3-0.2,0.4-0.5,0.4-0.9c0,0,0,0,0-0.1"/>
				<path fill="#333333" d="M12.5,38.8c0.1-0.1,0.2-0.3,0.3-0.4"/>
				<path fill="#333333" d="M10.7,37c-0.1,0.1-0.1,0.2-0.2,0.3"/>
				<path fill="#333333" d="M10.8,37.1c-0.2,0.2-0.3,0.5-0.3,0.8c0,0,0,0,0,0.1"/>
				<path fill="#333333" d="M39.1,12.2C39.1,12.2,39.1,12.2,39.1,12.2c0.2,0.1,0.3,0,0.3,0"/>
				<path fill="#333333" d="M39.2,12.2L39.2,12.2c0.1,0,0.1,0,0.2,0"/>
				<path fill="#333333" d="M31.1,28.3h-5h-0.9h-6.4c-3.1,0-3.7-0.7-3.7-3v-0.7V24c0-2.3,0.6-3,3.7-3h6.4H26h5c3.1,0,3.7,0.7,3.7,3
					v0.7v0.7C34.7,27.6,34.1,28.3,31.1,28.3z"/>
				<path fill="#333333" d="M32.8,25.3c0,1.3-0.5,1.5-2.7,1.5h-3.5h-1.5h-5.7c-2.2,0-2.7-0.2-2.7-1.5v-0.7V24c0-1.3,0.5-1.5,2.7-1.5
					h5.7h1.5h3.5c2.2,0,2.7,0.2,2.7,1.5v0.7V25.3z"/>
				<path fill="#333333" d="M39.3,39.7"/>
				<g>
					<path fill="#333333" d="M11.7,37.8"/>
				</g>
				<path fill="#333333" d="M38.5,36.2C38.5,36.2,38.5,36.2,38.5,36.2C38.5,36.2,38.4,36.2,38.5,36.2c-0.1,0-0.2-0.2-0.2-0.2
					c0,0,0,0,0-0.1c0,0,0,0,0,0"/>
				<path fill="#333333" d="M38.2,35.7C38.2,35.7,38.2,35.7,38.2,35.7C38.2,35.7,38.1,35.7,38.2,35.7c-0.1,0-0.2-0.2-0.2-0.2
					c0,0,0,0,0-0.1c0,0,0,0,0,0"/>
				<path fill="#333333" d="M37.9,35.1C37.9,35.1,37.9,35.2,37.9,35.1C37.9,35.2,37.8,35.1,37.9,35.1c-0.1,0-0.2-0.2-0.2-0.2
					c0,0,0,0,0-0.1c0,0,0,0,0,0"/>
				<path fill="#333333" d="M37.6,34.6C37.6,34.6,37.6,34.6,37.6,34.6C37.6,34.7,37.5,34.6,37.6,34.6c-0.1,0-0.2-0.2-0.2-0.2
					c0,0,0,0,0-0.1c0,0,0,0,0,0"/>
				<path fill="#333333" d="M37.3,36.7C37.3,36.7,37.3,36.7,37.3,36.7C37.3,36.7,37.3,36.7,37.3,36.7c0-0.1,0-0.3,0-0.3c0,0,0,0,0,0
					c0,0,0,0,0,0"/>
				<path fill="#333333" d="M37.1,36.1C37.1,36.1,37.1,36.1,37.1,36.1C37.1,36.1,37.2,36.1,37.1,36.1c0-0.1,0-0.3,0-0.3c0,0,0,0,0,0
					c0,0,0,0,0,0"/>
				<path fill="#333333" d="M36.9,35.6C36.9,35.6,36.9,35.6,36.9,35.6C37,35.6,37,35.5,36.9,35.6c0-0.1,0-0.3,0-0.3c0,0,0,0,0,0
					c0,0,0,0,0,0"/>
				<path fill="#333333" d="M36.8,35C36.8,35,36.8,35,36.8,35C36.8,35,36.8,35,36.8,35c0-0.1,0-0.3,0-0.3c0,0,0,0,0,0c0,0,0,0,0,0"
					/>
				<path fill="#333333" d="M39.7,37.4c0.1,0.1,0.1,0.3,0.1,0.5l0,0"/>
				<path fill="#333333" d="M39.3,36.9c0.1,0.1,0.2,0.3,0.3,0.4"/>
				<path fill="#333333" d="M37.3,38.3c0-0.1-0.1-0.2-0.1-0.3"/>
				<g>
					<circle fill="#333333" cx="38.5" cy="37.8" r="0.4"/>
					<path fill="#333333" d="M38.5,37.8"/>
				</g>
				<g>
					<circle fill="#333333" cx="38.8" cy="38.5" r="0.2"/>
					<path fill="#333333" d="M38.8,38.5"/>
				</g>
				<g>
					<circle fill="#333333" cx="38.2" cy="37.2" r="0.2"/>
					<path fill="#333333" d="M38.2,37.2"/>
				</g>
				<g>
					<circle fill="#333333" cx="39.3" cy="37.5" r="0.2"/>
					<path fill="#333333" d="M39.3,37.5"/>
				</g>
				<g>
					<circle fill="#333333" cx="37.7" cy="38.2" r="0.2"/>
					<path fill="#333333" d="M37.7,38.2"/>
				</g>
				<path fill="#333333" d="M37.4,34.3L37.4,34.3C37.4,34.3,37.4,34.3,37.4,34.3z M37.4,34.3l1.3,2.2c-0.1,0-0.2,0-0.2,0
					c-0.5,0-0.9,0.2-1.1,0.6l-0.7-2.5c0,0,0-0.1,0-0.1c0-0.2,0.2-0.4,0.4-0.4C37.2,34.1,37.3,34.1,37.4,34.3
					C37.4,34.3,37.4,34.3,37.4,34.3z"/>
				<path fill="#333333" d="M37.4,34.3C37.4,34.3,37.4,34.3,37.4,34.3c-0.1-0.1-0.2-0.2-0.4-0.2c-0.2,0-0.4,0.2-0.4,0.4
					c0,0,0,0.1,0,0.1l0.7,2.5c0.2-0.4,0.6-0.6,1.1-0.6c0.1,0,0.2,0,0.2,0L37.4,34.3z"/>
				<path fill="#333333" d="M39.8,37L39.8,37C39.8,37.1,39.8,37.1,39.8,37z M40,37.8c0,0.8-0.7,1.5-1.5,1.5c-0.7,0-1.2-0.4-1.4-1
					c0,0,0-0.1,0-0.1l-1-3.4c0-0.1-0.1-0.2-0.1-0.4c0-0.6,0.5-1.1,1.1-1.1c0.4,0,0.7,0.2,0.9,0.5c0,0,0.1,0.1,0.1,0.1l1.8,3
					c0,0,0,0.1,0,0.1C39.9,37.3,40,37.6,40,37.8z"/>
				<path fill="#333333" d="M39.8,37.9C39.8,37.9,39.8,37.9,39.8,37.9c0,0.2,0,0.4-0.1,0.5c-0.1,0.2-0.1,0.2-0.2,0.3
					c0,0-0.1,0-0.1,0c0,0,0-0.1,0-0.1c0,0,0,0,0-0.1c0,0,0.1-0.3,0.1-0.3c0-0.1,0.1-0.2,0.1-0.2C39.6,37.9,39.7,37.9,39.8,37.9
					C39.7,37.9,39.8,37.9,39.8,37.9z"/>
				<path fill="#333333" d="M38.5,39.1C38.5,39.1,38.4,39.1,38.5,39.1c-0.1,0-0.2,0-0.4,0c-0.2,0-0.3-0.1-0.4-0.2
					c-0.1-0.1-0.1-0.1,0-0.1c0,0,0,0,0.1,0c0,0,0,0,0.1,0c0,0,0.2,0.1,0.3,0.1c0.1,0,0.3,0.1,0.3,0.1C38.4,39,38.4,39,38.5,39.1
					C38.4,39.1,38.5,39.1,38.5,39.1z"/>
				<path fill="#333333" d="M39.2,36.9C39.2,36.9,39.2,36.9,39.2,36.9C39.3,36.9,39.3,36.9,39.2,36.9c0.1,0,0.1,0,0.1,0
					c0,0,0,0,0-0.1c0,0-0.2-0.1-0.3-0.2c-0.2-0.1-0.4-0.1-0.4-0.1c0,0-0.1,0-0.1,0c0,0,0,0,0,0c0,0,0,0,0,0c0,0,0,0,0,0
					c0,0,0.2,0.1,0.3,0.1C39,36.8,39.2,36.9,39.2,36.9z"/>
				<path fill="#333333" d="M37.3,38C37.3,38,37.3,38,37.3,38c-0.1,0.1-0.2,0-0.2,0c0,0,0-0.4,0.1-0.6c0.1-0.2,0.3-0.4,0.3-0.4
					c0.1,0,0.1,0,0.1,0c0,0,0.1,0.1,0.1,0.2c0,0,0,0.1,0,0.1c0,0-0.3,0.7-0.3,0.7C37.5,37.9,37.5,37.9,37.3,38
					C37.4,38,37.3,38,37.3,38z"/>
				<path fill="#333333" d="M40,37.8c0,0.8-0.7,1.5-1.5,1.5c-0.7,0-1.2-0.4-1.4-1.1l-1-3.4c-0.1-0.1-0.1-0.3-0.1-0.4
					c0-0.6,0.5-1,1-1c0.4,0,0.7,0.2,0.9,0.5l1.8,3.1C39.9,37.3,40,37.5,40,37.8z"/>
				<path fill="#333333" d="M38.3,36.3L38.3,36.3c-0.3,0-0.6,0.2-0.8,0.3l0-0.2l-0.1,0l0,0.3l0,0C37.7,36.5,38,36.4,38.3,36.3
					L38.3,36.3L38.3,36.3z"/>
				<polygon fill="#333333" points="39,39.7 38.9,39.4 39.1,39.3 				"/>
				<path fill="#333333" d="M39.2,39.3C39.2,39.3,39.2,39.3,39.2,39.3l0,0.2c0,0,0,0,0,0l0,0c0,0,0,0,0,0L39.2,39.3
					C39.3,39.3,39.3,39.3,39.2,39.3L39.2,39.3z M39.3,39.5C39.3,39.5,39.2,39.5,39.3,39.5l-0.1-0.2c0,0,0-0.1,0-0.1l0,0
					c0,0,0.1,0,0.1,0l0.1,0.1C39.4,39.5,39.4,39.5,39.3,39.5L39.3,39.5z"/>
				<polygon fill="#333333" points="39.4,39.2 39.5,39.4 39.5,39.5 39.4,39.2 				"/>
				<path fill="#333333" d="M39,39C39,39,39,39,39,39C39,39,38.9,39,39,39C38.9,39,39,39,39,39C39,39,39,39,39,39z"/>
				<path fill="#333333" d="M39.7,37.4C39.7,37.4,39.7,37.4,39.7,37.4C39.7,37.3,39.7,37.3,39.7,37.4C39.7,37.3,39.6,37.3,39.7,37.4
					C39.7,37.4,39.7,37.4,39.7,37.4z"/>
				<path fill="#333333" d="M37.3,38.4C37.3,38.4,37.3,38.4,37.3,38.4C37.3,38.3,37.3,38.3,37.3,38.4C37.3,38.3,37.3,38.3,37.3,38.4
					C37.3,38.4,37.3,38.4,37.3,38.4z"/>
				<path fill="#333333" d="M38,36.6C38,36.6,38,36.6,38,36.6C38,36.7,37.9,36.7,38,36.6C37.9,36.7,38,36.7,38,36.6
					C38,36.7,38,36.6,38,36.6z"/>
				<path fill="#333333" d="M37.2,38l-0.9-3.2c0-0.1-0.1-0.2-0.1-0.3c0-0.5,0.4-0.8,0.8-0.8c0.3,0,0.6,0.2,0.7,0.4c0,0,0,0,0,0.1
					l1.7,2.9c0.2,0.2,0.3,0.6,0.3,0.9c0,0.7-0.6,1.3-1.3,1.3C37.8,39.2,37.2,38.6,37.2,38z"/>
				<g>
					<circle fill="#333333" cx="38.5" cy="37.8" r="1.3"/>
					<path fill="#333333" d="M38.5,37.8"/>
				</g>
				<path fill="#333333" d="M11.7,36.2C11.7,36.2,11.7,36.2,11.7,36.2C11.7,36.2,11.8,36.2,11.7,36.2c0.1,0,0.2-0.2,0.2-0.2
					c0,0,0,0,0-0.1s0,0,0,0"/>
				<path fill="#333333" d="M12,35.7C12,35.7,12,35.7,12,35.7C12,35.7,12,35.7,12,35.7c0.1,0,0.2-0.2,0.2-0.2c0,0,0,0,0-0.1
					c0,0,0,0,0,0"/>
				<path fill="#333333" d="M12.3,35.1C12.3,35.1,12.3,35.2,12.3,35.1C12.3,35.2,12.3,35.1,12.3,35.1c0.1,0,0.2-0.2,0.2-0.2
					c0,0,0,0,0-0.1c0,0,0,0,0,0"/>
				<path fill="#333333" d="M12.6,34.6C12.6,34.6,12.6,34.6,12.6,34.6C12.6,34.7,12.6,34.6,12.6,34.6c0.1,0,0.2-0.2,0.2-0.2
					c0,0,0,0,0-0.1c0,0,0,0,0,0"/>
				<path fill="#333333" d="M12.9,36.7C12.9,36.7,12.9,36.7,12.9,36.7C12.9,36.7,12.9,36.7,12.9,36.7c0-0.1,0-0.3,0-0.3c0,0,0,0,0,0
					s0,0,0,0"/>
				<path fill="#333333" d="M13.1,36.1C13.1,36.1,13.1,36.1,13.1,36.1C13,36.1,13,36.1,13.1,36.1c0-0.1,0-0.3,0-0.3c0,0,0,0,0,0
					c0,0,0,0,0,0"/>
				<path fill="#333333" d="M13.3,35.6C13.3,35.6,13.2,35.6,13.3,35.6C13.2,35.6,13.2,35.5,13.3,35.6c0-0.1,0-0.3,0-0.3c0,0,0,0,0,0
					c0,0,0,0,0,0"/>
				<path fill="#333333" d="M13.4,35C13.4,35,13.4,35,13.4,35C13.4,35,13.4,35,13.4,35c0-0.1,0-0.3,0-0.3c0,0,0,0,0,0c0,0,0,0,0,0"
					/>
				<path fill="#333333" d="M12.6,37.1c-0.2-0.2-0.5-0.4-0.8-0.4"/>
				<path fill="#333333" d="M10.8,38.6c0.2,0.3,0.5,0.4,0.9,0.4c0,0,0,0,0.1,0"/>
				<path fill="#333333" d="M12.9,38.3c0.1-0.1,0.1-0.3,0.1-0.5l0,0"/>
				<path fill="#333333" d="M12.1,36.7c-0.1,0-0.2-0.1-0.3-0.1"/>
				<path fill="#333333" d="M12.6,37c-0.1-0.1-0.3-0.2-0.4-0.3"/>
				<path fill="#333333" d="M11.2,39c0.1,0.1,0.3,0.1,0.5,0.1l0,0"/>
				<path fill="#333333" d="M10.7,38.7c0.1,0.1,0.2,0.2,0.4,0.3"/>
				<g>
					<path fill="#333333" d="M11.7,37.8"/>
					<circle fill="#333333" cx="11.7" cy="37.8" r="0.4"/>
				</g>
				<g>
					<circle fill="#333333" cx="11.4" cy="38.5" r="0.2"/>
					<path fill="#333333" d="M11.4,38.5"/>
				</g>
				<g>
					<circle fill="#333333" cx="12" cy="37.2" r="0.2"/>
					<path fill="#333333" d="M12,37.2"/>
				</g>
				<g>
					<circle fill="#333333" cx="10.9" cy="37.5" r="0.2"/>
					<path fill="#333333" d="M10.9,37.5"/>
				</g>
				<g>
					<circle fill="#333333" cx="12.5" cy="38.2" r="0.2"/>
					<path fill="#333333" d="M12.5,38.2"/>
				</g>
				<path fill="#333333" d="M12.8,34.3L12.8,34.3C12.8,34.3,12.8,34.3,12.8,34.3z M12.8,34.3l-1.3,2.2c0.1,0,0.2,0,0.2,0
					c0.5,0,0.9,0.2,1.1,0.6l0.7-2.5c0,0,0-0.1,0-0.1c0-0.2-0.2-0.4-0.4-0.4C13,34.1,12.9,34.1,12.8,34.3
					C12.8,34.3,12.8,34.3,12.8,34.3z"/>
				<path fill="#333333" d="M12.8,34.3C12.8,34.3,12.8,34.3,12.8,34.3c0.1-0.1,0.2-0.2,0.4-0.2c0.2,0,0.4,0.2,0.4,0.4
					c0,0,0,0.1,0,0.1l-0.7,2.5c-0.2-0.4-0.6-0.6-1.1-0.6c-0.1,0-0.2,0-0.2,0L12.8,34.3z"/>
				<path fill="#333333" d="M10.4,37L10.4,37C10.4,37.1,10.4,37.1,10.4,37z M10.2,37.8c0,0.8,0.7,1.5,1.5,1.5c0.7,0,1.2-0.4,1.4-1
					c0,0,0-0.1,0-0.1l1-3.4c0-0.1,0.1-0.2,0.1-0.4c0-0.6-0.5-1.1-1.1-1.1c-0.4,0-0.7,0.2-0.9,0.5c0,0-0.1,0.1-0.1,0.1l-1.8,3
					c0,0,0,0.1,0,0.1C10.3,37.3,10.2,37.6,10.2,37.8z"/>
				<path fill="#333333" d="M10.4,37.9C10.4,37.9,10.4,37.9,10.4,37.9c0,0.2,0,0.4,0.1,0.5c0.1,0.2,0.1,0.2,0.2,0.3c0,0,0.1,0,0.1,0
					c0,0,0-0.1,0-0.1c0,0,0,0,0-0.1c0,0-0.1-0.3-0.1-0.3c0-0.1-0.1-0.2-0.1-0.2C10.5,37.9,10.5,37.9,10.4,37.9
					C10.5,37.9,10.4,37.9,10.4,37.9z"/>
				<path fill="#333333" d="M11.7,39.1C11.7,39.1,11.7,39.1,11.7,39.1c0.1,0,0.2,0,0.4,0c0.2,0,0.3-0.1,0.4-0.2
					c0.1-0.1,0.1-0.1,0-0.1c0,0,0,0-0.1,0c0,0,0,0-0.1,0c0,0-0.2,0.1-0.3,0.1c-0.1,0-0.3,0.1-0.3,0.1C11.8,39,11.8,39,11.7,39.1
					C11.7,39.1,11.7,39.1,11.7,39.1z"/>
				<path fill="#333333" d="M12.6,37.2C12.6,37.1,12.6,37.1,12.6,37.2C12.6,37.1,12.6,37.1,12.6,37.2c0-0.1,0-0.1,0-0.1
					c0,0,0,0,0.1,0c0,0,0.1,0.2,0.2,0.3c0.1,0.2,0.1,0.4,0.1,0.4c0,0,0,0.1,0,0.1c0,0,0,0,0,0c0,0,0,0,0,0c0,0,0,0,0,0
					c0,0-0.1-0.2-0.1-0.3C12.7,37.4,12.6,37.2,12.6,37.2z"/>
				<path fill="#333333" d="M11.8,36.7C11.8,36.7,11.8,36.7,11.8,36.7c0.1-0.1,0-0.2,0-0.2c0,0-0.4,0-0.6,0.1
					c-0.2,0.1-0.4,0.3-0.4,0.3c0,0.1,0,0.1,0,0.1c0,0,0.1,0.1,0.2,0.1c0,0,0.1,0,0.1,0c0,0,0.7-0.3,0.7-0.3
					C11.7,36.8,11.8,36.8,11.8,36.7C11.8,36.7,11.8,36.7,11.8,36.7z"/>
				<path fill="#333333" d="M10.2,37.8c0,0.8,0.7,1.5,1.5,1.5c0.7,0,1.2-0.4,1.4-1.1l1-3.4c0.1-0.1,0.1-0.3,0.1-0.4c0-0.6-0.5-1-1-1
					c-0.4,0-0.7,0.2-0.9,0.5L10.5,37C10.3,37.3,10.2,37.5,10.2,37.8z"/>
				<path fill="#333333" d="M11.1,39C11.1,39,11.2,39,11.1,39C11.2,39,11.2,39,11.1,39C11.2,39,11.2,39,11.1,39
					C11.2,39,11.1,39,11.1,39z"/>
				<path fill="#333333" d="M10.5,37.4C10.5,37.4,10.5,37.4,10.5,37.4C10.5,37.3,10.5,37.3,10.5,37.4C10.5,37.3,10.6,37.3,10.5,37.4
					C10.5,37.4,10.5,37.4,10.5,37.4z"/>
				<path fill="#333333" d="M12.9,38.4C12.9,38.4,12.9,38.4,12.9,38.4C12.9,38.3,12.9,38.3,12.9,38.4C12.9,38.3,12.8,38.3,12.9,38.4
					C12.8,38.4,12.9,38.4,12.9,38.4z"/>
				<path fill="#333333" d="M12.1,36.6C12.1,36.6,12.2,36.6,12.1,36.6C12.2,36.7,12.2,36.7,12.1,36.6C12.2,36.7,12.2,36.7,12.1,36.6
					C12.2,36.7,12.1,36.6,12.1,36.6z"/>
				<path fill="#333333" d="M10.5,38.3"/>
				<path fill="#333333" d="M13,38l0.9-3.2c0-0.1,0.1-0.2,0.1-0.3c0-0.5-0.4-0.8-0.8-0.8c-0.3,0-0.6,0.2-0.7,0.4c0,0,0,0,0,0.1
					l-1.7,2.9c-0.2,0.2-0.3,0.6-0.3,0.9c0,0.7,0.6,1.3,1.3,1.3C12.4,39.2,13,38.6,13,38z"/>
				<g>
					<path fill="#333333" d="M11.7,37.8"/>
					<circle fill="#333333" cx="11.7" cy="37.8" r="1.3"/>
				</g>
				<path fill="#333333" d="M10.9,12.3c-0.3-0.2-0.4-0.5-0.4-0.9c0,0,0,0,0-0.1"/>
				<path fill="#333333" d="M10.5,11.9c-0.1-0.1-0.1-0.3-0.1-0.5l0,0"/>
				<path fill="#333333" d="M10.8,12.4c-0.1-0.1-0.2-0.3-0.3-0.4"/>
				<path fill="#333333" d="M12.9,11c0,0.1,0.1,0.2,0.1,0.3"/>
				<g>
					<circle fill="#333333" cx="11.7" cy="11.4" r="0.4"/>
					<path fill="#333333" d="M11.7,11.4"/>
				</g>
				<g>
					<path fill="#333333" d="M11.4,10.8"/>
					<circle fill="#333333" cx="11.4" cy="10.8" r="0.2"/>
				</g>
				<g>
					<circle fill="#333333" cx="12" cy="12.1" r="0.2"/>
					<path fill="#333333" d="M12,12.1"/>
				</g>
				<g>
					<circle fill="#333333" cx="10.9" cy="11.8" r="0.2"/>
					<path fill="#333333" d="M10.9,11.8"/>
				</g>
				<g>
					<circle fill="#333333" cx="12.5" cy="11.1" r="0.2"/>
					<path fill="#333333" d="M12.5,11.1"/>
				</g>
				<path fill="#333333" d="M10.4,12.2L10.4,12.2C10.4,12.2,10.4,12.2,10.4,12.2z M10.2,11.4c0-0.8,0.7-1.5,1.5-1.5
					c0.7,0,1.2,0.4,1.4,1c0,0,0,0.1,0,0.1l1,3.4c0,0.1,0.1,0.2,0.1,0.4c0,0.6-0.5,1.1-1.1,1.1c-0.4,0-0.7-0.2-0.9-0.5
					c0,0-0.1-0.1-0.1-0.1l-1.8-3c0,0,0-0.1,0-0.1C10.3,11.9,10.2,11.7,10.2,11.4z"/>
				<path fill="#333333" d="M10.5,11.9C10.5,11.9,10.5,11.9,10.5,11.9C10.5,12,10.5,12,10.5,11.9C10.5,12,10.6,12,10.5,11.9
					C10.5,11.9,10.5,11.9,10.5,11.9z"/>
				<path fill="#333333" d="M12.9,10.9C12.9,10.9,12.9,10.9,12.9,10.9C12.9,11,12.9,11,12.9,10.9C12.9,11,12.8,11,12.9,10.9
					C12.8,10.9,12.9,10.9,12.9,10.9z"/>
				<g>
					<path fill="#333333" d="M11.7,11.4"/>
				</g>
				<g>
					<path fill="#333333" d="M25.1,24.6"/>
				</g>
				<path fill="#333333" d="M38.7,11.8c-0.1-0.2-0.2-0.3-0.4-0.3c-0.1,0-0.1,0-0.1,0"/>
				<g>
					<circle fill="#333333" cx="38.5" cy="11.4" r="0.4"/>
					<path fill="#333333" d="M38.5,11.4"/>
				</g>
				<g>
					<path fill="#333333" d="M38.8,10.8"/>
					<circle fill="#333333" cx="38.8" cy="10.8" r="0.2"/>
				</g>
				<g>
					<circle fill="#333333" cx="38.2" cy="12.1" r="0.2"/>
					<path fill="#333333" d="M38.2,12.1"/>
				</g>
				<g>
					<circle fill="#333333" cx="39.3" cy="11.8" r="0.2"/>
					<path fill="#333333" d="M39.3,11.8"/>
				</g>
				<g>
					<circle fill="#333333" cx="37.7" cy="11.1" r="0.2"/>
					<path fill="#333333" d="M37.7,11.1"/>
				</g>
				<path fill="#333333" d="M37.4,15L37.4,15C37.4,15,37.4,15,37.4,15z"/>
				<path fill="#333333" d="M39.8,12.2L39.8,12.2C39.8,12.2,39.8,12.2,39.8,12.2z M40,11.4c0-0.8-0.7-1.5-1.5-1.5
					c-0.7,0-1.2,0.4-1.4,1c0,0,0,0.1,0,0.1l-1,3.4c0,0.1-0.1,0.2-0.1,0.4c0,0.6,0.5,1.1,1.1,1.1c0.4,0,0.7-0.2,0.9-0.5
					c0,0,0.1-0.1,0.1-0.1l1.8-3c0,0,0-0.1,0-0.1C39.9,11.9,40,11.7,40,11.4z"/>
				<path fill="#333333" d="M39.7,11.9C39.7,11.9,39.7,11.9,39.7,11.9C39.7,12,39.7,12,39.7,11.9C39.7,12,39.6,12,39.7,11.9
					C39.7,11.9,39.7,11.9,39.7,11.9z"/>
				<path fill="#333333" d="M37.3,10.9C37.3,10.9,37.3,10.9,37.3,10.9C37.3,11,37.3,11,37.3,10.9C37.3,11,37.3,11,37.3,10.9
					C37.3,10.9,37.3,10.9,37.3,10.9z"/>
				<path fill="#333333" d="M25.1,19.9c0,0,5.2,0,5.8,0c0.6,0,1.1,0,1.8-0.3c0.6-0.3,1-1,1.2-1.5c0.3-0.4,0.9-1.8,1.2-2.3
					c0.3-0.6,0.6-1.7,0.8-2.4c0.2-0.7,0.7-2.5,0.8-2.6c0.3-0.7,1-1.2,1.8-1.2c1.1,0,2,0.9,2,2c0,0.3-0.1,0.6-0.2,0.9
					c-0.1,0.2-1.7,2.9-2.1,3.5c-0.2,0.3-0.6,1.2-0.8,1.8c-0.2,0.6-0.8,2.3-0.9,3c-0.1,0.6-0.2,1.5-0.2,1.9c0,0.5,0,2,0,2s0,1.6,0,2
					c0,0.5,0.1,1.3,0.2,1.9c0.1,0.6,0.7,2.3,0.9,3c0.2,0.6,0.7,1.6,0.8,1.8c0.3,0.6,2,3.4,2.1,3.5c0.1,0.3,0.2,0.6,0.2,0.9
					c0,1.1-0.9,2-2,2c-0.8,0-1.5-0.5-1.8-1.2c-0.1-0.1-0.6-1.9-0.8-2.6c-0.2-0.7-0.5-1.8-0.8-2.4c-0.3-0.6-0.9-1.9-1.2-2.3
					c-0.3-0.4-0.6-1.2-1.2-1.5c-0.6-0.3-1.2-0.3-1.8-0.3c-0.6,0-5.8,0-5.8,0s-5.2,0-5.8,0c-0.6,0-1.1,0-1.8,0.3
					c-0.6,0.3-1,1-1.2,1.5c-0.3,0.4-0.9,1.8-1.2,2.3c-0.3,0.6-0.6,1.7-0.8,2.4c-0.2,0.7-0.7,2.5-0.8,2.6c-0.3,0.7-1,1.2-1.8,1.2
					c-1.1,0-2-0.9-2-2c0-0.3,0.1-0.6,0.2-0.9c0.1-0.2,1.7-2.9,2.1-3.5c0.2-0.3,0.6-1.2,0.8-1.8c0.2-0.6,0.8-2.3,0.9-3
					c0.1-0.6,0.2-1.5,0.2-1.9c0-0.5,0-2,0-2v0c0,0,0-1.6,0-2c0-0.5-0.1-1.3-0.2-1.9c-0.1-0.6-0.7-2.3-0.9-3
					c-0.2-0.6-0.7-1.6-0.8-1.8c-0.3-0.6-2-3.4-2.1-3.5c-0.1-0.3-0.2-0.6-0.2-0.9c0-1.1,0.9-2,2-2c0.8,0,1.5,0.5,1.8,1.2
					c0.1,0.1,0.6,1.9,0.8,2.6c0.2,0.7,0.5,1.8,0.8,2.4c0.3,0.6,0.9,1.9,1.2,2.3c0.3,0.4,0.6,1.2,1.2,1.5c0.6,0.3,1.2,0.3,1.8,0.3
					c0.6,0,6,0,6,0"/>
				<g>
					<path fill="#333333" d="M38.5,11.4"/>
				</g>
				<g>
					<path fill="#333333" d="M25.9,25.7"/>
				</g>
			</g>
			<g>
				<g>
					<circle fill="#333333" cx="38.5" cy="11.4" r="1.3"/>
					<g>
						<path fill="#333333" d="M37.5,11.4C37.5,11.4,37.5,11.3,37.5,11.4C37.6,11.3,37.6,11.3,37.5,11.4
							C37.6,11.3,37.6,11.4,37.5,11.4L37.5,11.4z"/>
						<g>
							<circle fill="#333333" cx="38.5" cy="11.4" r="0.4"/>
							<path fill="#333333" d="M38.5,11.4"/>
						</g>
						<g>
							<path fill="#333333" d="M38.5,11.4"/>
						</g>
						<g>
							<path fill="#333333" d="M38.5,11.4"/>
						</g>
						<g>
							<path fill="#333333" d="M38.5,11.4"/>
						</g>
					</g>
				</g>
				<circle fill="#333333" cx="38.5" cy="11.4" r="0.3"/>
			</g>
			<g>
				<g>
					<g>
						<g>
							<path fill="#333333" d="M38.5,37.8"/>
						</g>
						<g>
							<path fill="#333333" d="M38.5,37.8"/>
						</g>
						<g>
							<path fill="#333333" d="M38.5,37.8"/>
						</g>
						<g>
							<path fill="#333333" d="M38.5,37.8"/>
							<circle fill="#333333" cx="38.5" cy="37.8" r="1.3"/>
						</g>
					</g>
				</g>
			</g>
			<g>
				<g>
					<circle fill="#333333" cx="11.7" cy="11.4" r="1.3"/>
					<g>
						<g>
							<circle fill="#333333" cx="11.7" cy="11.4" r="0.4"/>
							<path fill="#333333" d="M11.7,11.4"/>
						</g>
						<g>
							<path fill="#333333" d="M11.7,11.4"/>
						</g>
						<g>
							<path fill="#333333" d="M11.7,11.4"/>
						</g>
						<g>
							<path fill="#333333" d="M11.7,11.4"/>
						</g>
					</g>
				</g>
				<circle fill="#333333" cx="11.7" cy="11.4" r="0.3"/>
			</g>
			<g>
				<g>
					<g>
						<g>
							<path fill="#333333" d="M11.7,37.8"/>
						</g>
						<g>
							<path fill="#333333" d="M11.7,37.8"/>
						</g>
						<g>
							<path fill="#333333" d="M11.7,37.8"/>
						</g>
						<g>
							<path fill="#333333" d="M11.7,37.8"/>
							<circle fill="#333333" cx="11.7" cy="37.8" r="1.3"/>
						</g>
					</g>
				</g>
			</g>
		</g>
		<g>
			<g>
				<g>
					<g>
						<g>
							<path fill="#333333" d="M38.4,11.4"/>
						</g>
						<g>
							<path fill="#333333" d="M38.4,11.4"/>
						</g>
					</g>
				</g>
				<path fill="#333333" d="M38.2,12.1c-0.1-0.1-0.2-0.2-0.3-0.3c-0.1,0-0.3,0-0.6,0.1c-0.3,0-0.9,0.2-1.3,0.2
					c-0.4,0-0.6-0.1-0.9-0.2c-0.3-0.1-7.5-4.6-7.5-4.6s0-0.1,0.1-0.3c0.1-0.2,0.5-0.5,1-0.3c0.5,0.2,6.3,2.3,7.3,2.7
					c1,0.4,1.7,1,1.8,1.1c0.1,0.1,0.3,0.2,0.4,0.3c0.1,0,0.3,0,0.4,0c0.1,0.1,0.2,0.2,0.3,0.3c0.1,0,0.3,0,0.6-0.1
					c0.3,0,0.9-0.2,1.3-0.2c0.4,0,0.6,0.1,0.9,0.2c0.3,0.1,7.5,4.6,7.5,4.6s0,0.1-0.1,0.3c-0.1,0.2-0.5,0.5-1,0.3
					c-0.5-0.2-6.3-2.3-7.3-2.7c-1-0.4-1.7-1-1.8-1.1c-0.1-0.1-0.3-0.2-0.4-0.3C38.4,12.1,38.3,12.1,38.2,12.1z"/>
			</g>
		</g>
		<g>
			<g>
				<g>
					<g>
						<g>
							<path fill="#333333" d="M38.5,37.9"/>
						</g>
						<g>
							<path fill="#333333" d="M38.5,37.9"/>
						</g>
					</g>
				</g>
				<path fill="#333333" d="M38.7,38.5c-0.1,0-0.3,0-0.4,0c-0.1,0-0.3,0.2-0.4,0.2c-0.1,0.1-0.9,0.6-1.9,0.9c-1,0.3-7,1.8-7.6,1.9
					c-0.5,0.1-0.9-0.2-1-0.4c-0.1-0.2-0.1-0.3-0.1-0.3s7.6-3.6,7.9-3.8c0.3-0.1,0.5-0.2,0.9-0.1c0.4,0.1,1,0.3,1.3,0.3
					c0.2,0.1,0.4,0.1,0.5,0.1c0.1-0.1,0.2-0.2,0.3-0.2c0.1,0,0.3,0,0.4,0c0.1,0,0.3-0.2,0.4-0.2c0.1-0.1,0.9-0.6,1.9-0.9
					c1-0.3,7-1.8,7.6-1.9c0.5-0.1,0.9,0.2,1,0.4c0.1,0.2,0.1,0.3,0.1,0.3s-7.6,3.6-7.9,3.8c-0.3,0.1-0.5,0.2-0.9,0.1
					c-0.4-0.1-1-0.3-1.3-0.3c-0.2-0.1-0.4-0.1-0.5-0.1C38.9,38.4,38.8,38.5,38.7,38.5z"/>
			</g>
		</g>
		<g>
			<g>
				<g>
					<g>
						<g>
							<path fill="#333333" d="M11.6,37.9"/>
						</g>
						<g>
							<path fill="#333333" d="M11.6,37.9"/>
						</g>
					</g>
				</g>
				<path fill="#333333" d="M11.8,37.2c0.1,0,0.3,0.1,0.3,0.2c0.1,0,0.3,0,0.6-0.1c0.3-0.1,0.9-0.3,1.3-0.3c0.4,0,0.6,0,0.9,0.2
					c0.3,0.1,7.8,3.9,7.8,3.9s0,0.1-0.1,0.3c-0.1,0.2-0.5,0.5-1,0.4c-0.5-0.1-6.5-1.8-7.5-2.1c-1-0.3-1.8-0.9-1.9-0.9
					c-0.1-0.1-0.3-0.2-0.4-0.2c-0.1,0-0.3,0-0.4,0c-0.1,0-0.3-0.1-0.3-0.2c-0.1,0-0.3,0-0.6,0.1c-0.3,0.1-0.9,0.3-1.3,0.3
					c-0.4,0-0.6,0-0.9-0.2c-0.3-0.1-7.8-3.9-7.8-3.9s0-0.1,0.1-0.3c0.1-0.2,0.5-0.5,1-0.4c0.5,0.1,6.5,1.8,7.5,2.1
					c1,0.3,1.8,0.9,1.9,0.9c0.1,0.1,0.3,0.2,0.4,0.2C11.6,37.2,11.7,37.2,11.8,37.2z"/>
			</g>
		</g>
		<g>
			<g>
				<g>
					<g>
						<g>
							<path fill="#333333" d="M11.6,11.4"/>
						</g>
						<g>
							<circle fill="#333333" cx="11.6" cy="11.4" r="0.5"/>
							<path fill="#333333" d="M11.6,11.4"/>
						</g>
					</g>
				</g>
				<path fill="#333333" d="M11.8,12.1c-0.1,0-0.3,0-0.4,0c-0.1,0-0.3,0.1-0.4,0.2c-0.1,0.1-0.9,0.6-2,0.8c-1,0.2-7.1,1.5-7.6,1.6
					c-0.5,0.1-0.9-0.2-1-0.4C0.3,14.1,0.3,14,0.3,14s7.8-3.3,8-3.4c0.3-0.1,0.5-0.2,0.9-0.1c0.4,0.1,1,0.3,1.3,0.4
					c0.2,0.1,0.4,0.1,0.5,0.1c0.1-0.1,0.2-0.2,0.4-0.2c0.1,0,0.3,0,0.4,0c0.1,0,0.3-0.1,0.4-0.2c0.1-0.1,0.9-0.6,2-0.8
					c1-0.2,7.1-1.5,7.6-1.6c0.5-0.1,0.9,0.2,1,0.4C22.9,8.8,23,8.9,23,8.9s-7.8,3.3-8,3.4c-0.3,0.1-0.5,0.2-0.9,0.1
					c-0.4-0.1-1-0.3-1.3-0.4c-0.2-0.1-0.4-0.1-0.5-0.1C12.1,12,12,12.1,11.8,12.1z"/>
			</g>
		</g>
		<path fill="#333333" d="M31,28.3h-5h-0.9h-6.4c-3.1,0-3.7-0.7-3.7-3v-0.7V24c0-2.3,0.6-3,3.7-3h6.4H26h5c3.1,0,3.7,0.7,3.7,3v0.7
			v0.7C34.7,27.7,34.1,28.3,31,28.3z"/>
		<path opacity="0.38" fill="#333333" d="M32.8,25.4c0,1.3-0.5,1.5-2.7,1.5h-3.5h-1.5h-5.7c-2.2,0-2.7-0.2-2.7-1.5v-0.7V24
			c0-1.3,0.5-1.5,2.7-1.5h5.7h1.5h3.5c2.2,0,2.7,0.2,2.7,1.5v0.7V25.4z"/>
	</g>
</g>
</svg>
